<?xml version="1.0" encoding="UTF-8" standalone="no"?>
<svg
   version="1.0"
   width="931.000000pt"
   height="953.000000pt"
   viewBox="0 0 931.000000 953.000000"
   preserveAspectRatio="xMidYMid meet"
   id="svg24"
   sodipodi:docname="objectmap.svg"
   inkscape:version="1.3.1 (91b66b0783, 2023-11-16)"
   xmlns:inkscape="http://www.inkscape.org/namespaces/inkscape"
   xmlns:sodipodi="http://sodipodi.sourceforge.net/DTD/sodipodi-0.dtd"
   xmlns="http://www.w3.org/2000/svg"
   xmlns:svg="http://www.w3.org/2000/svg">
  <defs
     id="defs24" />
  <sodipodi:namedview
     id="namedview24"
     pagecolor="#ffffff"
     bordercolor="#000000"
     borderopacity="0.25"
     inkscape:showpageshadow="2"
     inkscape:pageopacity="0.0"
     inkscape:pagecheckerboard="0"
     inkscape:deskcolor="#d1d1d1"
     inkscape:document-units="pt"
     inkscape:lockguides="false"
     inkscape:zoom="0.4524222"
     inkscape:cx="437.6443"
     inkscape:cy="482.95596"
     inkscape:window-width="1920"
     inkscape:window-height="1009"
     inkscape:window-x="1912"
     inkscape:window-y="-8"
     inkscape:window-maximized="1"
     inkscape:current-layer="svg24"
     showguides="true" />
  <metadata
     id="metadata1">
Created by potrace 1.16, written by Peter Selinger 2001-2019
</metadata>
  <g
     transform="matrix(0.1,0,0,-0.1,3.5177962e-6,953)"
     fill="#000000"
     stroke="none"
     id="g24"
     style="display:inline;fill:#241f1c">
    <path
       id="path247"
       style="display:inline;fill:#241f1c"
       d="m 6554.1797,8631.9482 -7.4561,-7.456 c 2.2725,-1.332 4.5002,-2.8514 6.7676,-4.2041 0.5447,0.2387 0.569,0.2615 1.0254,0.4687 z m -0.6885,-11.6601 c -2.8898,-1.2665 -6.7561,-2.8043 -9.7412,-3.3252 -4.6533,-0.8121 -9.2403,-0.5016 -13.7549,0.3662 v -8.335 l -826.9922,2.0069 c -1052.8779,3 -1453.0078,-0.9971 -1453.0078,-11.9971 0,-5 6.0039,-9.0088 14.0039,-9.0088 15,0 22.9919,-44.013 18.003,-97.0019 l -3.003,-31.9922 h -160.0049 c -174.9778,-1 -203.999,-5.015 -213.999,-29.0039 -4,-10 -8.001,-57.0033 -11.001,-106.9922 -17.9889,-418.9556 -27,-591.0117 -30,-597.0117 -3,-4 -1.9892,-17.9961 1.0108,-30.9961 6,-23 11.0013,-24.0039 114.9902,-29.0039 59,-3 113.0039,-8.9932 119.0039,-12.9932 8,-4 9.9951,-37.0062 4.9951,-109.9951 -5,-77.9889 -3.9941,-108 6.0059,-120 11,-13 0.985,-15 -89.0039,-15 -97.9889,0 -101.001,-1.002 -101.001,-22.002 0,-13 -7,-142.014 -15,-288.0029 -22,-383.9556 -23.9951,-440.0333 -34.9951,-705 -6,-131.9889 -12.9961,-301.0072 -15.9961,-375.9961 -5,-101.9889 -4.0049,-138.0088 4.9951,-144.0088 7,-4 184.0323,-8.9971 393.999,-11.9971 209.9778,-2 387.9952,-5.998 394.9952,-7.998 6,-3 12.0117,-15.9961 12.0117,-30.9961 v -26.9971 l -492.0117,5.9912 c -270.9778,4 -885.0448,10.004 -1363.9893,14.004 l -871.0107,5.9912 -6.9873,-88.9893 c -3,-48.9889 -11.003,-144.0218 -18.003,-211.0107 -10,-107.9889 -14,-122.9883 -30,-122.9883 -14,0 -18.0029,-8.0098 -18.0029,-35.0098 0,-26 3.9961,-34.9951 15.9961,-34.9951 19,0 17.0019,-50.0242 -7.9981,-307.002 l -11.997,-123.0029 -45,-0.9961 c -26,0 -82.0062,-2.0029 -124.9951,-3.0029 -43,-2 -91.9991,0.01 -108.9991,5.0098 -17.9889,5 -71.0208,2.9941 -140.0097,-6.0059 -61,-8 -140.001,-15.9961 -176.001,-15.9961 -36,-1 -56.9961,-3.0059 -45.9961,-6.0059 11,-2 29.9932,-5.9941 42.9932,-8.9941 16.9889,-3 22.0019,-10.999 22.0019,-33.999 v -30 H 1185 1090.0049 v 30 c 0,25 -4.0049,30 -25.0049,30 -21,0 -25.0049,-5 -25.0049,-30 v -30 L 960,4797.998 c -43.99556,-1 -89.99818,-1.9921 -101.99707,-1.9921 -16.99778,-1 -24.00098,5.9873 -26.00098,21.9873 -3.99889,27.9889 -26,23.9977 -30,-5.9912 -2.99889,-21 -8.00928,-22.002 -116.99707,-22.002 -61.99334,0 -120.0099,-3.0059 -129.00879,-6.0059 -9.99889,-4 -15.99609,-17.998 -15.99609,-37.998 0,-18 -4.00599,-56.9971 -10.00488,-86.9971 -5,-29.9889 -15.99525,-124.015 -23.99414,-209.0039 -8.99889,-84.9889 -23.00795,-224.013 -32.00684,-307.0019 l -17.98828,-152.9883 h -26.00098 -26.00097 l 12.99316,92.9883 c 6.99889,49.9889 17.00306,140.0208 22.00195,200.0097 6,59 14.99623,133.0111 19.99512,165 15.99778,90.9889 41.00866,362.9932 35.00977,372.9932 -16.99889,29 -28.00222,-17.0134 -45,-185.9912 -5,-55 -16.99818,-167.016 -26.99707,-250.0049 -15.99889,-142.9889 -18.00711,-150.0029 -40.00489,-153.0029 -15.99778,-2 -21.99511,-9.0062 -19.99511,-19.9951 1.99889,-10 10.99232,-16.004 20.99121,-14.004 25.99667,4 19.99862,-13.0009 -7.99805,-26.0009 -30.99667,-14 -32.00351,-29.9991 -2.00684,-33.9991 20.99778,-3 22.0028,-5 14.00391,-75 -7.99889,-67.9889 -11.00515,-72.9931 -33.00293,-72.9931 C 340.99525,3990.0049 330,3986 330,3980 c 0,-5 12.00209,-10.0049 26.00098,-10.0049 23.99667,0 25.00182,-1.9922 18.00293,-31.9922 -4,-18 -10.00782,-60.0029 -13.00782,-93.0029 -5.99889,-55.9889 -8.00515,-60.0029 -33.00293,-63.0029 -35.99556,-4 -36.98885,-22.002 -1.99218,-22.002 25.99667,0 26.99511,-0.9961 19.99511,-45.9961 -2.99889,-26 -5.99121,-60 -5.99121,-75 0,-22 -6.0071,-29.9951 -25.00488,-34.9951 -29.99667,-7 -31.99179,-19.9971 -4.99512,-26.9971 15.99889,-4 19,-11.0247 15,-34.0136 -2,-15 -7.00488,-53.9971 -10.00488,-86.9971 -5,-46 -11.00209,-59.0029 -26.00098,-63.0029 -9.99889,-3 -18.99902,-12.9981 -18.99902,-22.9981 0,-10 -3.00586,-24.9883 -6.00586,-32.9883 -3,-9 3.01296,-16.0097 16.01074,-20.0097 17.99778,-5 20.99499,-10.9991 15.9961,-33.9991 -6,-30.9889 -41.00697,-346.0111 -51.00586,-465 -5,-51.9889 -10.99232,-78.0019 -20.99121,-82.0019 -15.99889,-6 -19.00866,-41.9912 -5.00977,-50.9912 11.99889,-7 3.99791,-98.014 -11.00098,-138.0029 -12.99778,-34 -5.99081,-41.9971 21.00586,-26.9971 13.99889,7 21.00586,20.9971 21.00586,41.9971 0,16.9889 7.00111,90.0081 15,161.997 7.99889,72 22.00111,192.0121 30,266.001 28.99667,254.9667 44.00209,385.014 56.00098,483.0029 11.99889,92.9889 13.99063,97.002 36.9873,97.002 21.99778,0 24.01257,-3.0039 19.01368,-29.0039 -3,-15 -9.01283,-52.002 -12.01172,-82.002 -3,-29.9889 -10.00111,-90.0039 -15,-134.0039 -5,-43.9889 -19.00111,-168.0062 -30,-274.9951 -10.99889,-106.9889 -25.00111,-229 -30,-270 -6,-41 -14.99513,-129.0111 -19.99512,-195 -5.99889,-65.9889 -12.9972,-128.0068 -15.99609,-137.0068 -8.99889,-30 36.00652,-59.9971 86.00097,-56.9971 24.99778,1 96.00471,1 157.99805,0 104.98779,-1 112.00195,-1.9912 112.00195,-20.9912 0,-12 -7.00794,-20.0098 -17.00683,-20.0098 -9.99889,-1 -82.00302,-1 -158.99414,0 -184.98002,1 -194.00391,-0.9912 -194.00391,-50.9912 0,-32 4.00124,-39.0088 18.99902,-39.0088 12.99889,0 20.99805,8.002 22.99805,22.002 3,21.9889 8.01585,23.0009 96.00586,26.0009 75.99112,2 91.99219,0 91.99219,-11.997 0,-8 -3.99024,-18.0059 -9.99024,-21.0059 C 485.00599,2271.9951 480,2263 480,2255 c 0,-22 34.00417,-5.999 52.00195,26.001 16.99889,27.9889 19.00777,28.9931 90,27.9931 101.9889,-1 118.99738,-8.9993 63.00293,-32.9882 -24.99667,-10 -45,-22.0118 -45,-27.0118 0,-5 34.00444,-8.9941 75,-8.9941 72.99223,0 75,1.0049 75,25.0049 0,14 -4.00599,24.9902 -10.00488,24.9902 -4.99999,0 -10.00488,5.0049 -10.00488,10.0049 0,6 23.01309,10.0049 50.00976,10.0049 52.99445,0 74.98899,-19.0189 50.99121,-43.0078 -16.99778,-17 -12.98996,-26.9971 13.00782,-26.9971 17.99778,0 27.00013,8.0039 33.99902,29.0039 l 11.00098,30 134.99999,-1.0107 c 74.9889,0 135.9961,-3.9942 135.9961,-8.9942 0,-13 88.0068,-10.9931 92.0068,2.0069 3,8 52.0072,8.9882 165.9961,2.9882 L 1620,2287.0068 v -61.0107 c 0,-34 -7,-137.0023 -15,-230.9912 -8,-92.9889 -15,-178.002 -15,-187.002 0,-16 -10.0111,-18.0029 -75,-18.0029 h -75 v -33.999 c 0,-33 1.015,-33.9961 59.0039,-45.9961 32,-7 63.9902,-16.0098 69.9902,-20.0098 10,-6 10.0108,-39.0072 1.0108,-150.9961 -6,-78.9889 -14.0069,-177.013 -17.0069,-217.0019 L 1547.0068,1250 h -73.0078 c -59.9889,0 -74.0039,-3 -74.0039,-15 0,-21 37.001,-32.9971 86.001,-26.9971 26,2 43.999,-0.998 48.999,-7.998 6,-9 -8.9961,-11.0088 -60.9961,-9.0088 -64.9889,4 -68.997,2.9899 -71.997,-18.999 -3,-21 0,-22.002 67.0019,-22.002 70.9889,0 71.001,0 71.001,-26.9971 0,-42.9889 -11.001,-72.9931 -26.001,-72.9931 -9,0 -14.0039,-12.002 -14.0039,-37.002 0,-34.99334 0.9961,-36.00459 15.9961,-17.00681 14,18.00001 15.0049,13.99771 10.0049,-50.99121 -4,-37.99556 -8.9971,-119.00666 -11.9971,-180 -3,-59.99334 -7.0049,-125.00026 -10.0049,-142.99804 l -4.9951,-34.01368 -59.0039,7.00196 c -64.9889,7.99889 -100.0049,1.00266 -100.0049,-19.99512 0,-18.99778 23.0189,-24.99707 103.0078,-26.99707 l 71.9971,-2.00684 -90,-4.99511 c -70.9889,-5 -90,-9.00697 -90,-21.00586 0,-18.99778 56.0062,-26.99401 154.9951,-19.99512 41,3 143.0111,2.0028 225,-0.99609 82.9889,-4 467.0444,-10.00782 855,-13.00782 387.9556,-2.99889 745.0189,-8.99316 793.0078,-12.99316 l 89.0039,-6.00586 -4.0136,-123.99902 c -3,-107.9889 -0.9922,-123.00293 13.0078,-123.00293 13,0 17.0019,17.01571 22.0019,92.00683 4,50.99445 8.9932,113.99845 12.9932,139.99512 5,38.99556 3.0029,48.00098 -11.9971,56.00098 -12,5.99889 -364.0607,12.00794 -968.9941,17.00683 -522.9445,3 -961,8.00098 -975,11.00098 -22,4.99889 -23.002,7.00111 -7.002,15 12,6.99889 14.9981,14.99818 7.9981,26.99707 -5,9.99889 -5.9961,36.99441 -0.9961,61.99219 4,24.99667 11,106.00777 15,180 4,73.99112 9.001,144.01087 11.001,155.00976 2,10.99889 8.9892,92.01112 13.9892,180.00002 6,87.9889 17.0049,237.0111 25.0049,330 8,93.9889 16.9951,206.0013 19.9951,249.9902 9,142.9889 26.001,337.0261 41.001,464.0039 7,69 12.0049,125.9981 10.0049,127.9981 -5,5 -398.0189,15.0078 -493.0078,13.0078 -72,-1 -72.9932,-1.0059 -72.9932,23.9941 V 2390 l 138.0029,0.9961 c 75,0 184.0033,1.0107 241.9922,1.0107 58,1 135.9981,1 172.9981,0 l 69.0088,-2.0068 -6.0059,-56.9971 c -4,-31.9889 -10.9961,-125.0189 -15.9961,-208.0078 -5,-81.9889 -13.999,-215.0013 -18.999,-294.9902 -6,-79.9889 -12.9961,-196.014 -15.9961,-258.0029 -3,-63 -7.0049,-117.0069 -10.0049,-122.0069 -2,-4 -10.9951,-106.9994 -19.9951,-227.9883 -8,-121.9778 -19.0088,-261.0143 -24.0088,-309.00875 -5,-47.99556 -10.9932,-133.00361 -12.9932,-187.99805 L 1605,624.99512 l 150,-1.99219 c 82.9889,0 418.0382,-4.00306 745.0049,-7.00195 326.9667,-3 683.0082,-8.99818 791.9971,-11.99707 l 195.996,-6.00586 11.001,52.99804 c 6,29.99667 14.003,137.01501 18.003,239.00391 l 7.998,184.9951 h 105 105 L 3734.0039,1040 c -2,-97.9889 -15.0088,-426.01789 -24.0088,-588.99902 -5,-100.9889 -6.999,-188.00782 -3.999,-193.00782 3,-3.99889 12.0098,-7.99804 20.0098,-7.99804 10.9889,0 13.9892,16.01056 13.9892,74.0039 0,73.99223 31.0098,744.03428 50.0098,1091.00098 6,98.9889 14.9951,288.0111 19.9951,420 5,131.9889 12,274 15,315 3,41 10,149.015 15,239.0039 6,90.9889 13.0068,176.0052 17.0068,188.9941 l 5.9912,25.0049 855.9961,-7.0019 c 470.9556,-3 1273.0705,-6.0059 1784.0039,-6.0059 h 926.9971 v -45 -45 l -637.0019,-1.9922 -637.9981,-2.0068 640.0049,-5.9912 c 351.9556,-4 640.9932,-6.9981 642.9932,-7.9981 1,-1 2.0068,-13.0117 2.0068,-27.0117 0,-14 5.0049,-24.9902 10.0049,-24.9902 7,0 8.999,25 3.999,75 -8,86.9889 0,95.9961 67.002,75.9961 26.9889,-8 43.9873,-9.0069 51.9873,-2.0069 7,5 33.0117,11.0079 57.0117,13.0079 42.9889,3 60.0019,20.9941 22.0019,23.9941 -76.9889,4 -72.0117,1.0039 -72.0117,44.0039 0,38 2,40.0049 30,40.0049 17,0 30,4.9902 30,9.9902 0,6 -13,10.0049 -30,10.0049 -25,0 -30,4.0052 -30,23.9941 0,37 10.0108,56.001 31.0108,56.001 11.9889,0 15.9931,5 12.9931,15 -5,12 -21.0052,14.0049 -83.9941,10.0049 -55,-4 -80.0117,-0.9909 -87.0117,7.998 -22,27 -34.9893,132.0193 -43.9893,341.9971 -5,120.9889 -14.0029,234.0049 -18.0029,250.0049 -15,51.9889 0,-404.016 15,-475.0049 26,-114.9889 26.0029,-114.9931 -26.9971,-117.9931 l -46.0107,-3.003 -7.9981,142.9981 c -4,78.9889 -8.9902,159.0078 -9.9902,178.0078 -2,19 -4.0098,107.0111 -5.0098,195 -2,195.9778 -9.9912,334.9951 -20.9912,334.9951 -11,0 -6.0088,-303.9971 5.9912,-311.9971 6,-5 5.001,-11.0068 -3.999,-17.0068 -7,-5 -10.9981,-13.0029 -7.9981,-18.0029 3,-4 7.9971,-120.0183 11.9971,-255.9961 l 7.002,-247.002 h -34.9951 c -19,0 -37.0049,6.0078 -40.0049,13.0078 -5,14 -10.9981,476.0053 -7.9981,608.9942 1,46.9889 -2.0019,89.0068 -7.0019,92.0068 -5,3 -7.9912,22.9893 -5.9912,43.9893 2,38.9889 -9.0059,72 -21.0059,60 -4,-3 -2.001,-14.9971 3.999,-26.9971 8,-13 7.9961,-22.001 0.9961,-26.001 -6,-4 -7.9951,-10 -4.9951,-15 3,-5 8.001,-176.0173 11.001,-379.9951 l 4.9951,-370.0049 -762.9932,1.0108 c -419.9556,1 -815.0091,3.9912 -877.998,5.9912 L 5445,2842.0068 5445.9961,3440 c 1,328.9667 4.0019,602.002 7.0019,607.002 4,5.9889 8.9971,212.0163 11.9971,458.9941 7,622.9334 14.0108,791.0029 31.0108,798.0029 18.9889,7 17.9892,32.0049 -1.0108,40.0049 -4.3181,1.5702 -7.2965,6.2408 -9.6387,13.1543 -26.525,-0.2083 -52.9144,-1.0012 -79.497,-1.3477 -6.8195,0.9295 -15.2506,1.9593 -23.5108,3.252 -3.2984,-11.0185 -8.5767,-15.4493 -19.3506,-17.0654 -31.9889,-5 -29.9931,-31.9922 2.0069,-31.9922 25,0 24.9902,-1.0069 24.9902,-92.0069 v -93.0029 l -106.9922,2.0069 c -59.9889,1 -234.0192,1.9921 -386.997,1.9921 l -80.6836,0.293 c -3.9631,-28.3599 -11.1184,-56.915 -11.8653,-84.8291 L 4965,5044.0039 c 192.9778,0 366.9932,-3.998 387.9932,-7.998 l 37.0019,-7.002 v -191.9971 c 0,-105.9889 -3.9902,-403.0401 -9.9902,-662.0068 -5,-257.9667 -12,-621.0271 -15,-805.0049 -2,-183.9778 -8.001,-378.9971 -11.001,-431.9971 l -6.0059,-95.9912 -67.0019,-4.0136 c -36,-2 -412.0457,-2 -834.9902,0 l -768.003,2.0068 5.9912,22.998 c 6,22 36.001,659.0575 56.001,1192.002 6,148.9889 12,304.0179 15,347.0068 2,42 6.0049,150.0111 10.0049,240 7,177.9889 21.9961,367.9883 30.9961,392.9883 5,13 39.031,15 249.0088,15 179.9778,0 244.0019,-2.9971 247.0019,-11.9971 3,-8.9889 10.9991,-8.9889 33.9991,0 0.2953,0.1245 1.2858,0.1559 1.5966,0.2784 -1.1905,3.5162 -2.3748,7.0372 -3.208,10.6494 -11.5587,50.113 -10.6933,36.8044 -10.6933,66.2695 v 43.0225 c -7.4024,-1.6937 -13.6963,-5.5821 -13.6963,-13.2129 0,-13 -35.045,-15.0078 -282.0117,-13.0078 -213.9778,2 -281.9961,5.9961 -285.9961,15.9961 -6,18.9889 -41.9932,15.0048 -42.9932,-4.9952 -1,-9.9889 -2.999,-31.0029 -3.999,-48.0029 -2,-16 -2.999,-71.9922 -3.999,-121.9922 L 3679.9951,4880 h -212.9883 c -117.9778,0 -261.0208,3.0059 -320.0097,6.0059 -90.9889,6 -106.0062,8.9902 -109.9951,24.9902 -7,26 -37.002,24.0039 -37.002,-0.9961 0,-19 -7.017,-19.9951 -111.0059,-19.9951 h -111.9873 l 2.959,54.7998 c -10.9674,-10.9258 -21.8608,-20.8682 -25.5615,-20.9619 -3.3337,-0.085 -6.6608,0 -9.9902,0.1904 -7.1306,-30.7175 -25.1521,-34.0283 -78.4131,-34.0283 -40,0 -76.9981,5.001 -82.9981,11.001 -8,8 -21.0068,6.9931 -47.0068,-2.0069 -56,-20 -72.002,-4.9931 -67.002,62.0069 1,29.9889 7.0118,58.9951 12.0118,64.9951 5,6 3.997,23.001 -3.003,41.001 -6,15.9889 -7.999,41.0009 -3.999,56.0009 0.4167,1.8334 1.0945,2.8741 1.5674,4.4678 -0.3044,1.7604 -0.5765,3.5245 -0.7617,5.3027 -1.7252,16.5595 1.251,33.184 5.1855,49.6289 v 45.6006 c 0,40 4,52.002 15,52.002 20,0 19.0039,9.9902 -0.9961,24.9902 -14,10 -14.9951,23.0199 -4.9951,114.0088 6,56 11.001,122.001 11.001,146.001 v 45 h 7.0312 c -0.013,3.7752 -0.09,7.5483 -0.073,11.3232 0.031,0.6346 0.303,7.7707 0.542,8.0567 0.195,0.233 0.3595,-0.5406 0.6445,-0.6446 0.146,-0.053 -0.077,0.3031 -0.1172,0.4541 -0.8188,2.7563 -1.6823,5.5044 -2.4463,8.2764 -0.235,0.8534 0,1.7664 0,2.6514 v 12.0849 h 5.0245 c -0.045,0.3568 -0.6153,0.4069 -0.6153,0.791 0,8 -2.9912,22.0111 -5.9912,30 -3,8 2.001,21.9961 11.001,30.9961 14,13 14.9951,19.0108 4.9951,31.0108 -10,12 -10.0039,17.9922 0.9961,31.9922 6.5,7.5 24.0059,11.2529 120.3809,12.3779 96.3639,1.125 271.6612,-0.3691 593.6279,-3.3691 384.9556,-4 759.0062,-9.001 829.9951,-11.001 60.3872,-1.6777 340.0954,-5.069 612.3633,-8.3936 0.3154,35.383 -3.9312,70.7982 0.4248,106.084 1.2904,6.2259 2.4313,12.4845 3.6767,18.7207 -0.051,0.2349 -0.1095,0.4683 -0.1611,0.7031 l -42.3047,0.8789 4.9951,41.001 c 3,23 5.0098,72.9981 5.0098,112.9981 1,52.9889 3.9893,70.998 13.9893,67.998 0.2138,-0.071 2.9067,-0.2753 3.208,-0.3515 -0.7786,4.0298 -0.9672,9.0021 -0.8203,16.9335 0.051,2.789 -0.1648,5.618 -0.2051,8.4229 H 4650 v 34.9951 c 0,21.0563 5.8529,35.2425 16.8457,42.5977 0.7056,6.6606 1.3921,13.3086 1.9043,19.9218 l 3.0762,-0.3808 c -1.997,1.7233 -1.6379,2.4304 -4.8194,4.8633 -15.9889,12 -17.0009,26.0231 -11.0009,146.0009 l 6.9873,131.9971 h 74.0039 c 1.5021,0 1.5726,0.1609 3.0175,0.1611 1.334,3.1057 2.6142,6.2323 4.1309,9.2579 0.7205,1.4372 2.2984,4.2154 3.2813,6.167 v 13.7988 c -5.2793,0.071 -6.2119,0.6152 -12.4219,0.6152 h -75 v 30 c 0,18 6,33.0059 15,36.0059 17,7 20.9951,33.999 4.9951,33.999 -6,0 -10.0049,47.0072 -10.0049,120.9961 0,111.9889 1.0098,121.0059 20.0098,126.0059 24,5.9889 25.9951,18.997 4.9951,26.997 -11,4 -15,20.001 -15,56.001 v 51.0059 l 7.793,-0.337 c -0.1421,1.0164 -0.267,2.2817 -0.4248,4.1895 -0.088,1.0557 0.1297,2.123 0.2197,3.1787 0.022,0.2616 -0.019,0.9447 0.073,0.9375 -1.1765,5.1876 -1.8361,9.7396 -1.7871,15.1025 0.02,1.9568 -0.172,3.9343 0.088,5.8741 -0.2144,0.9946 -0.3549,1.7849 -0.4394,3.7939 -0.448,0.096 -2.4476,0.1411 -2.5196,0.249 -8,8 9.003,186.0059 18.003,186.0059 1.5596,0 3.6873,-2.2644 5.7421,-4.585 0.1382,1.6653 0.2789,3.3346 0.4688,4.9952 -2.4109,8.6854 -4.2637,17.3733 -6.6064,25.8105 -1.9794,9.1086 -4.2696,18.165 -5.9473,27.334 -0.571,3.1228 0,6.3468 0,9.5215 v 20.6543 c -4.1461,4.8732 -3.7057,15.9987 0.3369,42.2754 9,62.9889 -3.0091,73.9892 -82.998,73.9892 h -64.9952 l 0.1612,2.5488 c -10.1772,-0.8733 -12.242,-1.1322 -24.3311,-1.4355 -1.5922,-0.04 -12.2153,-0.1727 -15.249,0.2783 -8.2213,1.2227 -9.4307,2.0238 -17.0947,4.6875 -1.4018,0.4797 -2.7689,1.0686 -4.2041,1.4356 -0.437,0.1117 1.4227,-0.7819 0.2636,-0.9229 -2.6089,-0.317 -5.2424,-0.4076 -7.8662,-0.5566 -8.2795,-0.47 -8.9352,-0.4207 -16.6992,-0.5567 -17.7811,0.088 0.1835,-0.1516 -27.0996,14.9414 -0.1214,0.067 -0.2103,0.1038 -0.293,0.1319 -0.08,0 -0.1683,0.01 -0.249,0.015 -0.5267,-0.3585 3.2118,-4.9755 4.5996,-6.7383 2.3859,-3.0309 4.6122,-1.7934 1.4209,-2.8857 -6.8276,-1.3218 -13.6072,0.2509 -20.2002,1.9189 l 0.835,3.3252 c -5.3452,-1.8733 -12.7531,-2.5147 -17.1387,-2.4902 -13.5538,0.075 -27.11,0.4692 -40.6494,1.1133 -2.0938,-1.4165 -4.589,-2.552 -6.6504,-3.7647 -6.9638,-4.097 -20.9146,-6.0511 -27.9199,-7.456 -2.6417,-0.2324 -36.7043,-3.3212 -38.1738,-3.0322 -0.1577,0.031 -0.3113,0.085 -0.4688,0.1171 v -0.6738 h -79.9951 -80.0098 l -0.9961,28.0078 c -1,15 -2.0029,45.002 -3.0029,67.002 -1,22 1.998,59.013 7.998,82.0019 16,66 3.9938,72.9932 -124.9951,72.9932 -58.9889,0 -110.0019,3.0091 -112.0019,7.998 -6,9 11.0058,538.018 21.0058,647.0069 l 7.002,79.9951 390,3.0029 c 214.9778,2 390.9922,4.9951 391.9922,4.9951 1,1 150.0072,2.9952 330.9961,4.9952 l 330,3.0029 6.0058,-192.9932 c 4,-105.9889 7.9942,-359.0202 8.9942,-562.998 L 5384.0039,7325 5216.001,7321.9971 c -150.9889,-2 -170.0069,-1 -182.0069,15 -12.4999,16.3601 -15.1946,16.1215 -26.9384,1.8896 -1.0945,-14.8158 -2.3995,-30.6592 -2.5049,-38.4668 0.736,-22.6295 0.966,-45.2442 0.791,-67.8808 0.07,-3.1572 -0.057,-6.3946 -0.029,-9.5801 6.1316,-4.7258 15.9712,-1.7459 20.6836,11.0449 3,8 12.0098,11.9941 20.0098,8.9941 16.9889,-5.9889 18.9921,-48.997 1.9921,-56.997 -9.9889,-5 -9.9889,-6.9971 0,-11.9971 6,-3 11.9971,-23 11.9971,-45 v -39.0088 h -19.5263 v -11.001 -2.9296 c 0,-0.5495 0.3234,-1.1987 0,-1.6407 -2.3995,-3.2543 -5.0225,-6.3381 -7.6465,-9.4189 h 2.7832 c 0.6692,0.4781 1.3382,0.9571 2.0068,1.4355 0.276,0.544 0.7903,2.2507 0.8203,1.6407 0.048,-1.0308 -0.1573,-2.0547 -0.3662,-3.0762 h 6.9287 l 3.0029,-33.0029 c 2.686,-23.2781 -1.8951,-31.5816 -16.1718,-38.2032 0.01,-3.6913 -0.3656,-7.421 -0.2491,-11.1035 0.041,0.075 0.091,0.1 0.1758,0.059 0.7267,-0.4025 0.5691,-1.562 0.7471,-2.373 0.066,-0.3033 0.1326,-0.6033 0.1904,-0.9082 3.8327,-0.04 4.8958,-1.3024 10.3125,-0.4688 4,0 7.002,-33.0039 7.002,-74.0039 0,-61.5104 -2.2801,-72.5279 -15.9229,-74.1797 -0.1706,-0.8914 -0.3442,-1.7766 -0.4834,-2.6807 -0.082,-0.5341 -0.036,-1.6455 -0.029,-2.3291 0.1887,-3.6147 0.2499,-2.8666 -0.6738,-7.1484 -0.03,-0.204 -0.1325,-0.4112 -0.1025,-0.6152 0.017,-0.114 0.052,0.2322 0.1318,0.3222 0.243,0.2793 0.1965,-0.7316 0.1465,-1.0986 -0.7728,-5.4225 -0.8828,-5.7095 -1.7578,-9.4922 -0.01,-0.5706 0.028,-1.1454 -0.015,-1.7138 13.5846,-4.3232 18.7061,-13.9857 18.7061,-35.0684 0,-16.9038 -5.5872,-22.7109 -15.3955,-25.8545 v -30.8057 c 4.4207,-0.034 0.6808,-3.1746 -1.2451,-5.8007 7.7092,-4.2044 13.1274,-10.4685 14.6337,-25.5323 1.8615,-19.2281 -2.3537,-24.9639 -10.5908,-27.832 h 4.5264 c 0,-6.9438 0.3444,-6.2776 -1.0107,-13.125 -0.2489,-1.2593 -0.4998,-2.5431 -1.0108,-3.7207 -2.1737,-5.0098 -2.5573,-5.4032 -3.2519,-6.3281 -0.082,-1.3938 -0.2185,-2.297 -0.4102,-0.6299 -0.1129,-0.1812 -0.3152,-0.5209 -0.498,-0.8203 -0.1472,-1.0727 -0.295,-2.1435 -0.4688,-3.208 h 2.2559 v -17.6368 c 6.6154,-7.3121 8.6583,-22.6837 10.4589,-61.6992 l 3.003,-67.998 131.997,-2.0069 c 73,-1 143.002,-2.999 157.002,-3.999 14,-1 32.9932,-3.0029 42.9932,-3.0029 14,-1 17.0068,-10.0023 17.0068,-50.9912 v -50.0098 h -40.0049 c -45.9889,0 -53.986,-17.001 -11.9971,-26.001 15,-3 33.0049,-6.9902 40.0049,-9.9902 4.99,-1.2475 7.8646,-12.5837 9.7412,-28.1836 8.3912,0.1319 16.7845,0.2133 25.1661,0.4541 8.6078,0.248 17.2268,0.4725 25.8398,0.6445 3.7154,0.08 7.5091,0.8586 11.1475,0.1026 10.6766,-2.2176 21.0107,-5.8106 31.4941,-8.8184 l -4.3945,239.7949 c -4,179.9889 -10.0039,684.0565 -14.0039,1121.001 l -5.9912,794.0039 63.999,-6.0058 c 34.9889,-4 275.0352,-7.002 532.0019,-7.002 l 468.003,-0.9961 -1.0108,-52.0019 c -3,-80.9889 -1.0019,-106.9922 7.9981,-106.9922 14,0 33.0019,63.0003 22.0019,73.9892 -6,6 -9.9902,27.9991 -9.9902,48.9991 v 39.0088 l 217.998,-6.0059 c 118.9889,-3 229.003,-4.9912 243.003,-5.9912 25.9889,0 26.9882,-2.0069 32.9882,-77.0069 5,-62.9889 17.003,-337.0091 18.003,-427.998 2,-120.9889 32.0078,-957.0173 43.0078,-1174.9951 2,-47 3.999,-110.9981 3.999,-142.9981 1,-31.9889 4.9902,-56.0127 9.9902,-53.0127 11,7 4.0059,262.0787 -23.9941,896.001 -3,63 -8.0049,189.016 -10.0049,280.0049 -3,90.9889 -8.9892,274.029 -13.9892,407.0068 -10,246.9778 -6.0088,295.9961 20.9912,300.9961 20,4 29.0029,-43.0189 33.0029,-163.0078 2,-48.9889 6.0049,-173.0062 10.0049,-274.9951 8,-216.9778 10.999,-302.0284 18.999,-544.9951 4,-98.9889 9.001,-225.016 11.001,-280.0049 10,-184.9778 16,-379.0121 15,-491.001 -1,-132.9778 11.9951,-182.9879 19.9951,-78.999 3,39 -0.01,177.0202 -6.0059,307.998 -7,130.9889 -12.9931,281.9952 -12.9931,334.9952 -1,52.9889 -3.0059,147.0117 -6.0059,207.0117 -2,60.9889 -6.9902,187.0013 -9.9902,279.9902 C 7160.9937,7828.9744 7157,7934 7155,7970 c -3,36 -5.998,129.0121 -7.998,206.001 -3,77.9889 -7.0088,146 -9.0088,150 -3,5 0.01,28.9941 6.0058,53.9941 10,40 15.001,45.0029 41.001,48.0029 33,4 60.0068,22.002 32.0068,22.002 -9,0 -17.0068,5.001 -17.0068,11.001 0,8 -3.9932,8 -12.9932,0 -9,-7 -61.014,-9.002 -153.0029,-7.002 -75.9889,2 -177,3.9951 -225,4.9951 l -85.0049,1.0108 6.0059,54.9902 c 3,30 7.9902,56.0039 9.9902,59.0039 3,2 45.0101,7.0049 93.999,10.0049 49,3 91.9991,8.001 93.9991,11.001 3,3 -57.0004,4.9912 -133.9893,5.9912 -75.9889,1 -161.0088,2.0029 -189.0088,3.0029 l -49.9951,0.9961 -0.4248,13.7256 c -1.9364,0.083 -4.1988,0.3343 -0.835,1.2598 0.089,0.05 0.046,0.025 0.1319,0.073 -0.1278,0.075 -0.2534,0.1583 -0.3809,0.2344 z m 0.3809,-0.2344 c 0.2236,-0.1307 0.4496,-0.2543 0.6738,-0.3808 l -0.015,0.747 c -0.2734,-0.1527 -0.3381,-0.1865 -0.6592,-0.3662 z M 5035.752,6630.5469 c 0.01,0.044 0.01,0.088 0.015,0.1318 -0.2169,-0.3519 -0.4581,-0.7755 -0.7617,-1.3183 -0.025,-0.045 -0.017,-0.05 -0.029,-0.073 0.1275,0.1981 0.4538,0.7314 0.7764,1.2598 z m 0.015,0.1318 c 0.4005,0.6498 0.6574,1.0039 0.8936,1.3184 0.1058,1.7979 0.1209,4.4342 -0.059,3.6474 -0.361,-1.6343 -0.6062,-3.3007 -0.835,-4.9658 z M 4845,8596.001 l 360,-0.9961 3.0029,-27.0117 3.003,-26.9971 L 4766.9971,8540 c -468.9556,-1 -457.002,-1.9951 -457.002,40.0049 0,13 119.0493,15.9961 535.0049,15.9961 z m 652.002,-0.9961 c 123.2278,-1.75 246.5048,-4.9981 250.0048,-7.9981 1,-2 -1.0136,-28 -4.0136,-60 l -5.9912,-57.0117 h -247.9981 -249.0088 v 58.0078 c 0,32 3.002,61.9912 7.002,65.9912 3.5,3 126.766,2.7608 250.0049,1.0108 z m 285.996,-5.0098 h 268.0079 c 146.9778,0 269.9882,-3.998 272.9882,-7.998 3,-5 2.0039,-18 -0.9961,-30 -4.9889,-22 -7.0261,-22.002 -269.0039,-22.002 -146.9778,0 -263.9941,-3.9941 -263.9941,-8.9941 0,-15 76.0274,-20.003 293.9941,-18.003 145.9889,1 214.0111,-2.0048 225,-10.0048 9,-6 12.0127,-14.9952 8.0127,-19.9952 -9,-8.9889 -532.0107,-12.0029 -541.0107,-3.0029 -3,3 -1.9893,31.014 1.0107,63.0029 z m -1390.371,-71.6162 c 61.6139,1.625 170.3991,1.1191 361.3769,-0.3809 313.9667,-2 437.9971,-6 446.9971,-15 6,-5.9889 7.9951,-16.0019 4.9951,-22.0019 -10,-15 -881.9912,-14.9961 -890.9912,-0.9961 -4,6 -4.0108,18.001 -1.0108,26.001 2.5,7 17.0079,10.7529 78.6329,12.3779 z m -631.626,-58.374 c -20,0 -30.9961,-5.0039 -30.9961,-14.0039 0,-15 55.9971,-29.9951 71.9971,-19.9951 C 3818.0019,8436.0058 3830,8408 3825,8375 c -2,-16 -7.0049,-115.005 -10.0049,-220.0049 -6,-210.9998 -12.9912,-357.9922 -20.9912,-421.9922 l -5.0098,-43.0078 h -75 c -40.9999,0 -73.9892,-3.9941 -73.9892,-8.9941 0,-14 18.9883,-17.9951 92.9883,-19.9951 l 67.0019,-2.0069 14.0039,33.003 c 9,22.9999 16.0059,111.0031 21.0059,288.0029 3,139.9998 9.9931,302.9922 12.9931,361.9922 l 7.002,107.0068 -37.002,-2.0068 c -19.9999,-2 -33.9921,1.0097 -31.9921,5.0097 3,5 -9.0049,7.9981 -25.0049,7.9981 z m 1665,-17.0069 c 11,-3.9889 14.0039,-40.013 14.0039,-172.0019 0,-90.9889 1.9951,-281.0072 4.9951,-420.9961 2,-139.9889 7.0049,-531.0304 10.0049,-866.9971 l 7.0019,-613.0078 h -21.0058 c -21,0 -21.0059,4.0372 -21.0059,254.0039 0,193.9778 3.0078,255.999 13.0078,258.999 9,4 9,7.004 0,14.004 -14,9.9889 -20.997,239.0809 -26.997,991.9921 -4,489.9556 -2.0049,563.0039 19.9951,554.0039 z m -1776.0059,-1042.0019 1.0108,-37.9981 c 1,-20.9999 4.9941,-49.0029 8.9941,-63.0029 7,-20 7.9941,-16.0019 8.9941,22.9981 1,38.9999 4.0098,47.0068 20.0098,47.0068 10,0 20.9941,-5.9971 23.9941,-11.9971 10,-27.9999 -6.9951,-523.0078 -19.9951,-583.0078 l -7.0019,-30 -7.002,35.0098 c -5,28 -6.998,20.9931 -7.998,-32.0069 0,-36.9999 3.9941,-69.9931 8.9941,-72.9931 6,-3 10.0049,-19.0059 10.0049,-36.0059 0,-16 -4.0049,-29.0039 -10.0049,-29.0039 -5,0 -9.9902,-7 -9.9902,-15 0,-8 3.998,-15 7.998,-15 5,0 6.9912,-74.9923 5.9912,-166.9922 -2,-92.9999 -9e-4,-186.0078 3.9991,-208.0078 6,-27 11,34.0099 15,185.0098 4,123.9999 14.0019,330.9903 22.0019,459.9902 7,128.9999 15.0069,305.0001 17.0069,390 l 3.0029,155.0098 -47.0069,2.9883 z m 371.3379,-12.627 c 23.9219,0.5 55.9219,0.1338 98.6719,-0.3662 154.9778,-1 159.9902,-2.0019 159.9902,-22.0019 0,-20 -4.0033,-21.0059 -151.9922,-21.0059 H 3975 l -10.0049,-272.9883 c -7,-178.9778 -7,-276.0159 0,-280.0048 5,-3 73.0111,-8.9971 150,-11.9971 113.9889,-6 142.0078,-3.9981 148.0078,7.0019 2.1325,3.4121 5.6851,5.2609 9.7412,6.4453 -0.055,0.7911 -0.1329,1.5804 -0.1757,2.3731 -0.062,1.9833 -0.046,3.9649 0.044,5.9473 0.06,1.8394 0.1351,3.6835 0.2051,5.5224 0.082,1.937 0.1633,3.8655 0.2783,5.8008 0.13,2.0646 0.31,4.1259 0.542,6.1816 0.205,1.8671 0.4225,3.7452 0.6445,5.6104 0.22,1.7233 0.4681,3.4414 0.7471,5.1562 0.236,1.5891 0.5144,3.1611 0.7764,4.7461 0.229,1.5912 0.4418,3.1935 0.6298,4.7901 0.179,1.5327 0.3468,3.0614 0.4688,4.5996 0.107,1.5396 0.1165,3.0862 0.1465,4.6289 0.036,1.6831 0.067,3.3709 0.1172,5.0537 0.04,1.4219 0.089,2.8402 0.059,4.2627 -0.015,1.116 -0.061,2.2302 -0.1905,3.3398 -0.169,1.3874 -0.3523,2.7797 -0.5713,4.1602 -0.259,1.608 -0.5496,3.2109 -0.8056,4.8193 -0.29,1.7595 -0.5944,3.5131 -0.7764,5.2881 -0.197,1.6617 -0.3744,3.325 -0.4834,4.9951 -0.11,1.3338 -0.1944,2.6612 -0.2344,3.9991 -0.033,0.8668 -0.038,1.7404 -0.029,2.6074 0.032,3.363 0.3274,6.371 0.8204,9.0527 -4.4131,63.8704 1.3452,299.6827 10.0488,313.6084 2,3 33.9971,3.0039 71.9971,-0.9961 36.9889,-5 93.9912,-7.998 125.9912,-7.998 l 58.0078,-0.9961 -2.0069,47.9883 c -2,25.9889 -1.9961,66 -0.9961,90 l 2.0069,43.0078 37.998,-3.003 c 31,-3 36.9912,-7.0159 35.9912,-25.0048 0,-13 -0.9921,-56.9981 -1.9921,-97.9981 l -2.0069,-75 h -3.1201 c -0.4008,-2.0306 -0.8584,-4.1121 -1.4355,-6.2842 -0.4805,-1.8082 -0.9484,-3.6093 -1.3624,-5.4345 -0.6559,-2.9108 -1.304,-5.8308 -1.875,-8.7598 -0.5448,-3.7999 -1.5024,-7.4947 -2.666,-11.1328 5.0643,-6.3643 6.9388,-17.4657 8.4668,-40.3858 l 3.003,-48.0029 h -0.9961 c -0.1567,-3.57 -0.4775,-7.1315 -0.9229,-10.6787 -1.0382,-8.6294 -4.4531,-16.5876 -8.5254,-24.1699 -0.196,-0.3562 -0.3664,-0.7248 -0.5566,-1.084 V 6980 c 0,-28.6663 -1.087,-40.0886 -7.1778,-45.3076 -0.082,-1.1015 -0.1207,-2.0477 -0.2197,-3.208 -0.18,-2.1174 -0.347,-4.241 -0.542,-6.3574 -0.4476,-4.8706 -1.4428,-9.6555 -2.4756,-14.4288 -0.7165,-3.3114 -1.49,-6.4955 -2.2998,-9.6093 l 13.711,-3.0909 -3.003,-71.0009 -3.0029,-71.9971 -338.9941,-2.0068 -338.9942,-1.9922 6.9873,86.997 c 9,120.9889 28.0079,472.002 28.0079,502.002 -1.5,37.5 -2.4235,46.8691 69.331,48.3691 z m 109.6729,-68.3642 h 121.9921 l -7.0019,-232.002 c -4,-127.9778 -9.9932,-243 -12.9932,-255 -5,-21.9889 -9.014,-22.998 -123.0029,-22.998 -84.9889,0 -119.0068,3.0042 -122.0068,12.9931 -4,8 17.0058,475.0111 21.0058,495 1,1 56.0069,2.0069 122.0069,2.0069 z m 1016.0009,-80.0098 h 115.9864 c 65.9889,0 118.0068,-3.9902 122.0068,-9.9902 7.4357,-11.8972 1.0092,-24.813 -8.1006,-25.3565 0.037,-2.1155 -0.033,-4.3626 -0.249,-6.7529 -0.3054,-3.3684 -0.6872,-7.5376 -0.9082,-11.2353 l 1.6992,-0.5713 c -0.4721,-1.5792 -0.9588,-3.1509 -1.4209,-4.7315 0.01,-0.073 0.021,-0.1461 0.029,-0.2197 v -1.2451 c 2.2588,-2.8108 3.9389,-6.5416 4.8047,-9.5215 0.619,-2.133 0.6661,-4.3953 0.9961,-6.5918 -0.022,-1.5222 0,-3.0396 0.015,-4.5557 0.2278,0.1206 1.0027,0.7513 1.128,0.7764 4,0 7.0019,-56.0062 7.0019,-124.9951 V 6909.9951 H 5265 5140.0049 V 6935 c 0,19.986 5.6035,24.1685 26.7187,24.5654 -0.1857,1.0954 -0.36,2.1976 -0.5713,3.2813 -1.0461,6.3558 -1.9771,12.7313 -2.8271,19.1162 -0.9007,6.5737 -1.8376,13.1405 -2.4756,19.7461 -0.6014,6.3711 -1.0322,12.7572 -1.4062,19.1455 -0.4039,5.5467 -0.8796,11.0882 -1.3916,16.626 -0.4796,5.5543 -0.8976,11.102 -1.3916,16.6552 -0.3932,5.2413 -0.8017,10.4897 -1.3477,15.7178 -0.5157,4.8535 -1.0825,9.6993 -1.7725,14.5313 -0.4114,2.9878 -0.833,5.9757 -1.2451,8.9648 -8.7631,3.1482 -12.29,9.4086 -12.29,25.6494 0,17 4.9902,33.0059 9.9902,36.0059 6,4 6.999,22.9961 3.999,45.9961 z m 60.4981,-395.9912 c 35.2389,-1.5 81.9883,-5.0049 130.4883,-10.0049 l 52.0019,-4.9951 1.0108,-71.9971 c 1,-39.9889 1.9882,-102.0247 2.9882,-139.0136 l 1.0108,-67.9981 H 5262.9932 5130 V 6575 c 0,6.2016 1.7275,8.0477 2.7393,11.3672 -0.3461,0.4042 -0.7028,0.7968 -1.0108,1.2305 -3.3831,4.7658 -4.0362,10.9562 -3.8672,16.6113 0.235,5.4887 0.622,10.9765 1.377,16.4209 0.6941,5.1644 1.4834,10.3171 2.3584,15.4541 0.8767,5.2038 1.7453,10.3985 2.4463,15.6299 0.7879,5.305 1.5313,10.6245 2.1533,15.9521 0.6284,5.3021 1.3149,10.5886 1.9189,15.8936 0.6128,5.1428 1.2321,10.2848 1.5821,15.4541 0.303,4.3985 0.522,8.8026 0.542,13.2129 0,4.1261 0.018,8.2562 -0.2051,12.3779 -0.188,3.9988 -0.5233,7.9794 -0.8643,11.9678 -0.291,3.7267 -0.4469,7.4562 -0.5859,11.1914 -0.1265,2.5678 -0.2679,5.1471 -0.4688,7.705 -9.4874,12.0345 -8.9469,28.8051 6.8848,40.5323 14,10 14.9909,17.0081 7.002,26.997 -7,8 -9.0059,15.9991 -6.0059,18.9991 2.5,3 26.2588,3.5068 61.5088,2.0068 z M 3922.002,6691.001 l 256.9921,-6.0059 c 140.9889,-3 294.0121,-7.9971 341.001,-11.9971 70.9889,-4.9889 80.0078,-7 58.0078,-15 -32.9889,-10.9889 -35.998,-27.9951 -7.998,-34.9951 15,-4 19.9951,-14.0088 19.9951,-39.0088 v -33.999 h -15.8643 c -1.8429,-14.6362 0.018,-14.1053 -4.9218,-19.9951 H 4590 v -45 c 0,-47 -1.002,-48.0039 -52.002,-59.0039 -39.9889,-9 -34.998,-26.001 7.002,-26.001 32,0 34.9951,-2 34.9951,-30 v -30 l -67.0019,-0.9961 c -38,-1 -98.0111,-2.0029 -135,-3.0029 -17.3384,-0.4563 -19.1082,1.2284 -31.0254,1.831 -16.7501,-4.0886 -31.5633,-3.9013 -49.4678,0.5127 -6.5343,1.7648 -12.6747,4.2219 -18.7793,6.7383 -4.9211,-2.918 -11.766,-4.4578 -20.3613,-3.6474 0.2471,-0.7938 1.6406,-4.26 1.6406,-4.4239 0,-1 -81.0111,-1.0039 -180,0.9961 -170.9778,3 -180,4.002 -180,22.002 0,19 8.0043,19.9951 132.9932,19.9951 112.9889,0 137.0247,3.0029 154.0136,18.0029 36,32 52.9981,66.0111 52.9981,105 0,32 -7.0088,46.003 -39.0088,78.003 L 4162.002,6620 h -120 c -67,0 -123.002,4.0049 -127.002,10.0049 -3,5 -3.0039,20.9951 0.9961,34.9951 z m 33.1347,-91.6114 c 15.7969,0.3594 37.1094,-1.3837 65.8594,-3.3837 53.9889,-4 112.013,-11.0069 127.0019,-17.0069 57,-20 68.002,-89.014 22.002,-138.0029 L 4140,6410 h -115.0049 -114.9902 v 78.999 c 0,89.2389 -2.2478,109.3125 45.1318,110.3906 z m 560.2149,-3.5595 c 0.092,-1.6001 0.1534,-3.2039 0.2343,-4.8047 -0.1103,1.5785 0.9554,3.4337 -0.2343,4.8047 z M 7117.002,6530 c -9,0 -7.0059,-131.0299 8.9941,-516.0059 l 5.0098,-131.0009 -78.003,-5.9912 c -98.992,-8 -1184.0189,-7.0079 -1398.0029,1.9921 -158.984,6 -159.9932,6.008 -162.9932,30 -6,43 7.9942,111.0059 23.9942,111.0059 19,0 17.9931,16.9932 -2.0069,27.9932 -2.959,1.7768 -5.11,8.1781 -7.5439,12.9638 -3.335,0.063 -6.6696,0.1447 -10.0049,0.1905 -10.8796,-0.5861 -29.7512,-5.0021 -38.9502,-3.794 -14.2545,1.8721 -28.23,5.726 -41.9824,9.917 -2.8923,0.8815 -5.342,2.9944 -7.4707,5.1416 -0.7153,0.7212 1.9943,-0.4209 2.9883,-0.6299 -4.5127,2.239 -8.1379,3.9263 -11.2061,5.376 l 1.1719,-26.1621 -33.0029,-3.0029 c -38,-3 -35.9932,-22.9981 2.0068,-22.9981 24,-1 24.9932,-3.0011 27.9932,-72.9931 l 3.0029,-71.9971 h -93.999 c -30.7713,0 -130.9928,2.1325 -225.4541,4.1455 0.07,-8.5691 0.054,-12.5655 -1.7139,-24.375 -0.3315,-2.2145 -0.8626,-4.3877 -1.4062,-6.5625 0.1136,-0.9713 0.142,-1.9447 0.205,-2.915 2.4236,-0.1099 8.4951,-0.1576 9.375,-0.293 1,0 1.9922,-13 1.9922,-30 v -30 h -16.1719 c -0.4514,-1.7656 -0.9178,-3.5564 -1.5527,-6.167 -0.6718,-4.7819 -1.7339,-9.5243 -3.0469,-14.2236 0.2725,-3.0517 0.4466,-6.1134 0.5567,-9.17 144.143,-2.0576 327.1242,-4.3605 328.2129,-5.4492 8,-8 -11.9942,-54.9902 -23.9942,-54.9902 -15.0005,0 -16.6366,-8.3482 -9.0674,-15.8936 11.6977,-2.4568 23.3817,-4.9419 35.0391,-7.5879 7.9046,-1.7942 15.7624,-3.8106 23.6133,-5.83 9.7348,1.385 19.6259,1.8346 29.3994,2.9882 23.5606,0.9335 33.7624,-0.4148 47.5781,-2.8857 v 7.0605 32.2266 h 0.3369 c -5.1623,3.8873 -7.9673,9.1379 -8.8916,17.915 -2,13 1.9903,21.9981 9.9903,22.9981 65.992,4 1515.0049,-2.002 1555.0049,-7.002 l 50.9912,-5.9912 7.0019,-92.0068 c 6,-95.992 16.0088,-378.0472 39.0088,-1100.9912 25,-766.944 28.9981,-866.0108 37.9981,-871.0108 17.992,-11.992 19.998,39.0231 7.998,333.9991 -7,168.984 -15.9951,447.0228 -19.9951,617.0068 -5,170.984 -14.0098,452.0209 -20.0098,625.0049 -6,172.984 -11.001,361.0011 -11.001,417.9931 1,75 -2.0009,104.0069 -11.0009,107.0069 -7,2 -378.04,6.0019 -825,7.0019 -445.968,2 -814.9981,5.9903 -817.9981,9.9903 -4,4 -4.9961,18.0068 -0.9961,32.0068 l 6.0059,24.9902 810,-0.9961 c 645.944,-1 812,0.9971 825,11.9971 19,16 18.9803,59.0349 2.9883,408.0029 -7,148.992 -15.9992,262.002 -20.9912,262.002 z m 79.9365,-9.5215 c -5.0391,-4.5776 -5.6836,-112.9836 -1.9336,-300.4834 3,-172.9998 8.9971,-332.002 11.9971,-352.0019 4.9999,-35 6.998,-35.9961 37.998,-30.9961 27,4 34.0049,2.0039 40.0049,-15.9961 8,-26 -1.0088,-41.001 -24.0088,-41.001 -24,0 -61.001,-53.0059 -56.001,-81.0059 2,-12.9999 6.0088,-131.9942 9.0088,-263.9941 4,-131.9999 10.9961,-336.9952 15.9961,-454.9951 5,-117.9999 11.9961,-309.0099 15.9961,-425.0098 4,-114.9999 8.0088,-225.9951 9.0088,-244.9951 1,-19 1.9883,-85.9971 2.9883,-146.9971 1,-61.9999 6.0009,-112.998 11.0009,-112.998 13,0 1.0049,513.9906 -19.9951,939.9902 -14,262.9998 -14,739.003 0,753.0029 5,5 17.0049,6.9991 25.0049,3.9991 9,-4 19.9942,-7.002 23.9941,-7.002 10,0 2.0059,232.0049 -8.9941,250.0049 -7,10 -8.998,-5 -7.998,-45 2,-83.9999 1.999,-85.0049 -26.001,-85.0049 -25,0 -25.0117,1.0079 -27.0117,88.0078 -1,48 -1.9991,100.9971 -3.9991,116.9971 -1,17 -4.9941,122.005 -8.9941,235.0049 -4,112.9999 -11.0068,211.9902 -17.0068,219.9902 -0.375,0.625 -0.7188,0.7886 -1.0547,0.4834 z M 3964.9951,6270.0049 c 45,0 65.0059,-4.0117 66.0059,-12.0117 3,-31 -2.002,-219.0111 -7.002,-285 L 4017.9932,5900 h -64.9952 -63.999 l 4.9951,172.998 c 3,94 5.0098,177.9952 5.0098,184.9952 1,8 21.0023,12.0117 65.9912,12.0117 z m 168.75,-6.2549 c 37.5,1 91.2728,0.7529 158.2617,-0.7471 194.9778,-5 213.9922,-7.0088 226.9922,-24.0088 7,-9.9889 22.0069,-18.999 32.0069,-18.999 14.9889,0 18.999,-7.9902 18.999,-39.9902 V 6140 h -11.8799 c -0.1021,-2.7666 -0.4097,-5.6934 -1.084,-8.8623 -1.5039,-7.0685 -0.7735,-3.6147 -2.2119,-10.4004 -0.3256,-1.8037 -0.7035,-3.5962 -1.0693,-5.3906 l 11.2353,-0.3516 v -60 c 0,-57.9889 -0.9971,-59.9883 -26.9971,-62.9883 -15.9889,-2 -27.9931,-7.0117 -27.9931,-12.0117 0,-5 12.0042,-9.9971 27.9931,-11.9971 24,-3 26.9971,-6.998 26.9971,-37.998 v -34.9951 H 4312.998 c -137.9778,0 -254.999,3.0019 -258.999,7.0019 -8,9 10.0101,339.9903 18.999,354.9903 2,3.5 23.2582,5.7529 60.7471,6.7529 z m 230.2002,-137.959 c 0.035,-1.2001 0.1384,-3.2408 0.1465,-3.9258 0.017,-1.3643 0.4343,2.1339 -0.1465,3.9258 z M 3668.9941,5990 c -5,0 -8.9941,-10.002 -8.9941,-22.002 -1,-63.9999 -6.004,-67.9951 -89.0039,-64.9951 -67.9999,2 -75.999,4.002 -78.999,22.002 -2,15 6,24.9912 30,35.9912 46.9999,23 24.0027,24.999 -206.9971,18.999 l -199.9951,-5.9912 154.9951,-3.999 c 84.9999,-2 171.0049,-3.0069 190.0049,-2.0069 19,1 29.9941,-1.9912 23.9941,-5.9912 -7,-4 -14,-18.0068 -15,-32.0068 -4,-28 17.0055,-27.0019 -338.9941,-22.002 -142.9999,2 -170.0098,4.0069 -170.0098,17.0069 0,17 -21.002,19.999 -37.0019,3.999 -8,-8 -12.9922,-8 -16.9922,0 -10,16 -26.001,13.001 -26.001,-3.999 0,-13 -59.0063,-15 -471.0059,-15 -371.9996,0 -469.9921,-3.0117 -466.9921,-12.0117 3.9999,-10 80.0041,-13 329.0039,-15 177.9998,-1 568.0012,-3.9912 866.0009,-5.9912 l 541.9922,-3.9991 6.0059,23.9942 c 7,28.9999 -4.0108,93.0029 -16.0108,93.0029 z m 1013.2911,-102.2607 c 0.2181,-4.6916 1.1644,-9.3493 1.8457,-14.0039 0.065,-0.4449 0.1231,-0.664 0.1464,-0.7032 0.094,0.3314 -0.6548,8.4668 -1.2597,11.4405 -0.2226,1.0937 -0.5018,2.1745 -0.7324,3.2666 z m 437.7099,-37.7344 H 5290.0049 5460 v -30 -30 h -169.9951 -170.0098 v 30 z m -2889.9902,-60 c 197.9778,0 210,-1.0101 210,-18.999 0,-9.4195 -8.6646,-16.9645 -21.7383,-22.9541 -1.2788,-5.2953 -1.9703,-10.7233 -2.6074,-16.128 -0.481,-4.2438 -0.7684,-8.5113 -1.0254,-12.7734 -0.01,-0.1158 -0.021,-0.2225 -0.029,-0.3369 11.1523,-5.6224 15.6319,-13.143 13.3887,-37.8076 l -2.9883,-36.0059 -3.9404,-0.1318 c 0.093,-1.6546 -0.2828,-3.8374 -1.0694,-6.8555 -0.1041,-0.2863 -1.3856,-3.9941 -2.3291,-6.0059 -0.69,-5.8476 -1.4861,-11.6847 -2.168,-17.5341 -0.1379,-0.9757 -0.3259,-1.9452 -0.498,-2.9151 0.4437,-0.2128 2.6993,-0.3398 3.0029,-0.5566 14.1896,-8.7841 10.7666,-41.75 0.1172,-62.8125 1.6657,-2.2261 2.985,-5.285 3.6035,-9.3164 0.5831,-3.8017 1.1752,-7.6006 1.2452,-11.4551 0.3529,-5.0091 0.9874,-10.0148 0.9375,-15.044 -0.3992,-5.4826 -0.8639,-11.0467 -3.1348,-16.1425 -0.1621,-0.2526 -0.2888,-0.4438 -0.4395,-0.6885 4.1435,-5.8156 3.0959,-15.8528 -1.333,-38.54 -4,-23 -7.9941,-44.9991 -8.9941,-48.9991 0,-5 -97.017,-7.998 -216.0059,-7.998 h -216.0058 l 6.0058,77.9883 c 10,119.9778 27.0069,286 32.0069,300 2,9 54.0101,12.0117 213.999,12.0117 z m -253.0078,-13.0078 c 2,-3 0.01,-56.015 -5.9912,-119.0039 -7,-62 -16.0059,-166.9981 -21.0059,-232.9981 -5,-65.9889 -16.0049,-201.0111 -25.0049,-300 -8,-98.9889 -15,-187.9883 -15,-197.9883 0,-10 -3.9941,-16.0078 -8.9941,-13.0078 -4,3 -6.9951,16.0078 -4.9951,28.0078 2,13 10.9951,133.0043 19.9951,267.9932 17,272.9667 17.9922,291.0131 31.9922,442.002 9,99.9889 18.0039,135.9951 29.0039,124.9951 z m 97.3388,-341.543 c -0.7311,-0.4774 -1.4959,-0.8984 -2.1972,-1.4209 -0.191,-0.147 0.5381,-0.1108 0.7031,0.029 0.4616,0.479 0.9854,0.9323 1.4941,1.3916 z M 1972.002,5330 h 220.0048 c 170.9889,0 218.9912,-2.9971 215.9912,-11.9971 -3,-7 -17.0071,-13.9961 -30.996,-15.9961 -34,-4 -34.9958,-22.0019 -2.0069,-22.0019 23,0 25.0049,-3.0098 25.0049,-50.0098 V 5180 h -27.6562 c 0.5296,-10.0041 0.7178,-20.0022 0.5566,-30 h 23.1006 l -6.0059,-47.0068 c -3.1745,-34.1265 -6.8772,-44.1857 -21.5478,-49.9366 -0.1292,-5.9115 -0.223,-11.8285 -0.3077,-17.7392 -0.026,-1.7828 -0.1177,-3.5139 -0.249,-5.1856 11.4646,-7.0412 12.1143,-20.5592 12.1143,-71.1328 v -68.9941 h -213.999 c -133.9889,0 -217.001,3.9902 -221.001,9.9902 -3,6 -2.001,61.014 3.999,123.0029 5,61 12.9961,156.0111 15.9961,210 z m 3461.0009,-30 c 18,0 18.9971,-15.0353 11.9971,-367.002 -3,-202.9778 -8.0049,-465.0042 -10.0049,-582.9931 -2,-117.9889 -5.9902,-393.0271 -9.9902,-610.0049 -3,-216.9778 -8.0049,-478.016 -10.0049,-580.0049 -2,-101.9889 -4.9951,-214.9971 -4.9951,-251.9971 0,-52.9889 -3.0039,-67.998 -14.0039,-67.998 -13,0 -14.001,47.0362 -11.001,333.0029 3,181.9778 7.0049,393.0033 10.0049,466.9922 5,138.9889 19.9951,1262.0362 19.9951,1518.0029 0,130.9889 1.0029,142.002 18.0029,142.002 z m -1427.622,-189.624 c 137.8528,-0.125 275.624,-3.8819 279.624,-11.3819 4,-6 4.9961,-12.9961 0.9961,-15.9961 -3,-3 -125.0183,-4.9951 -270.9961,-4.9951 H 3750 v -37.0019 c 0,-37 -17.0049,-439.0232 -25.0049,-596.001 -2,-49 -9,-220.0173 -15,-379.9951 -6,-158.9889 -20,-472.032 -30,-695.0098 -11,-222.9778 -19.9951,-437.001 -19.9951,-476.001 v -71.0009 l 77.0068,-6.9873 c 42,-3 143.0111,-6.0059 225,-6.0059 h 148.9893 l -3.0029,-86.9971 -2.9883,-88.0078 -138.999,-1.9922 c -95.9889,-1 -141.001,-5.0039 -146.001,-14.0039 -8,-12 -23.999,-185.9941 -18.999,-203.9941 7,-24 -14.0127,-246.001 -23.0127,-251.001 -14,-9 -157.9922,-14.998 -181.9922,-7.998 -17,6 -18.001,13.0032 -11.001,91.9921 4,47 10.9961,187.0121 15.9961,311.001 5,123.9889 13.0029,300.0072 18.0029,390.9961 11,200.9778 28.001,519.0382 41.001,775.0049 5,104.9889 12,271.016 15,370.0049 6,184.9778 19.9961,448.0023 30.9961,590.9912 8,97.9889 15.9866,93.999 -170.9912,93.999 -70.9889,0 -214.018,3.002 -317.0069,7.002 L 3030,4793.0029 v 33.9991 33.999 l 177.9932,-0.9961 c 96.9889,-1 224.0117,-6.0117 282.0117,-12.0117 57.9889,-6 125.9922,-7.9991 151.9922,-3.9991 56.9889,9 63.997,24.0141 71.997,153.003 2,50.9889 7.001,97.0078 11.001,103.0078 4.5,7 142.5219,10.4961 280.3858,10.3711 z m 869.7509,-8.3789 c 31.125,1.75 89.3822,1.0039 197.8711,-0.9961 126.9889,-2 251.0062,-3.9951 274.9951,-4.9951 27,0 41.9971,-5.0079 41.9971,-13.0079 0,-9.9889 -59.0173,-12.9931 -274.9951,-12.9931 -254.9667,0 -274.9951,0.9883 -274.9951,17.9883 0,8 4.013,12.2539 35.1269,14.0039 z m 2443.8721,-121.9922 c -7,0 -9.0098,-31.002 -5.0098,-97.002 4,-53.9999 11.0108,-245.9982 16.0108,-427.998 10,-315.9997 13.9902,-412.0003 24.9902,-645 12,-243.9998 17.0117,-307.0059 27.0117,-321.0059 6,-10 7.9991,0 3.9991,30.9961 -9,68.9999 -55.001,1250.9982 -56.001,1417.9981 0,22.9999 -5.001,42.0117 -11.001,42.0117 z M 1931.9971,4869.9951 c 522.9334,0 598.999,-2 603.999,-15 4,-8 3,-25.9902 0,-39.9902 l -5.9912,-25.0049 -508.0078,3.999 c -278.9778,3 -550.9991,4.9951 -603.9991,4.9951 l -97.998,1.0108 v 27.9931 c 0,16 3.002,31.9952 7.002,34.9952 3,4 276.0284,7.0019 604.9951,7.0019 z M 2880,4860.0049 h 109.9951 V 4824.9951 4790 h -116.001 c -115.9778,0 -115.9951,0 -109.9951,22.998 3,12 6.0059,27.9952 6.0059,34.9952 0,9 29.0062,12.0117 109.9951,12.0117 z m -1849.9951,-88.0078 v -82.9981 c 0,-78.9889 11.001,-121.9811 26.001,-106.9922 3,4 10.9882,46.9952 17.9882,94.9952 l 12.0118,87.9931 288.999,3.0029 c 174.9778,1 300.999,-1.998 318.999,-7.998 17,-6 223.0353,-10.0049 532.002,-10.0049 276.9667,-1 504.997,-3.998 506.997,-7.998 3,-4 1.9932,-44.015 -2.0068,-89.0039 -6,-75 -4.999,-82.9981 11.001,-82.9981 16,0 18.0029,10.016 18.0029,85.0049 0,81.9889 3.014,91.001 33.0029,86.001 4,0 179.0222,-3.0059 390,-6.0059 l 382.002,-5.9912 -3.0029,-512.0068 c -1,-281.9667 -6.9971,-654.0144 -11.9971,-826.9922 -5,-172.9778 -12,-459.0212 -15,-633.999 -3,-175.9889 -8.001,-323.0079 -11.001,-328.0079 -3,-3.9889 -133.0212,-7.998 -288.999,-7.998 -155.9889,0 -286.0029,-3.002 -288.0029,-7.002 -3,-4.9889 -8.001,-82.0091 -11.001,-172.998 -4,-90.9889 -10.9961,-244.016 -15.9961,-340.0049 -6,-95.9889 -12,-240.0062 -15,-319.9951 -3,-79.9889 -8.001,-169.0179 -11.001,-197.0068 l -5.0098,-52.9981 h -279.9902 -279.0088 v 30 c 0,23 -3.9951,30 -19.9951,30 -14,0 -19.9951,-6.9941 -19.9951,-23.9941 0,-13 -6.0117,-26.0078 -12.0117,-28.0078 -7,-3 -141.0154,-3.9922 -297.9932,-1.9922 l -285,3.0029 3.0029,61.9922 c 2,34 5.9942,66.9971 8.9942,71.9971 3,6 124.0212,8.0058 303.999,6.0058 L 2310,1475 l -6.0059,-32.0068 c -5,-26 -2.9912,-32.9883 9.0088,-32.9883 19,0 23.9922,25.0124 31.9922,174.9902 4,61 11.0108,173.016 16.0108,250.0049 5,76.9889 12.9882,201.0062 17.9882,274.9951 5,73.9889 11.0039,142 14.0039,150 11,31 16.9981,135.0078 7.9981,148.0078 -7,11 -127.0526,15.003 -641.9971,18.003 -479.9445,4 -635.001,8.0032 -641.001,16.9921 -5.9889,9 -11.9931,9 -27.9931,0 -11,-6.9889 -51.0111,-12.9931 -90,-12.9931 -59.99556,0 -70.00099,2.9883 -71.00099,17.9883 -2,42.9889 2.99818,112.0218 11.99707,166.0107 6.99889,42 7.00279,61.9902 -0.9961,69.9902 -18.99778,19 -27.00013,-9.0111 -33.99902,-120 -4,-56.9889 -9.01172,-110.9892 -12.01172,-118.9892 -4.99889,-12 -27.004,-15 -109.99512,-15 -62.99223,0 -104.0039,3.9902 -104.0039,9.9902 0,15 -29.99232,12.0117 -35.99121,-2.9883 -3,-9 -45.01332,-13.0039 -165,-14.0039 l -160.00489,-2.0068 6.00586,122.0068 c 4,67 10.00111,145.002 15,172.002 5,28 15.99525,122.0111 23.99414,210 8.99889,87.9889 20.00209,189 26.00098,225 5,35.9889 17.00599,135.0013 25.00488,219.9902 19.99778,200.9778 20.00236,200.0098 48.99903,200.0098 35.99556,0 39.98677,26.999 5.99121,33.999 l -28.98926,4.9951 5.99121,67.9981 c 3,36.9889 9.00892,70.9961 13.00781,75.9961 3,4 65.00387,4 135.9961,0 73.99112,-4 113.99289,-9.9932 94.99511,-12.9932 -56.99334,-9 -50.98455,-30 9.00879,-30 41.99556,0 49.99707,2.9932 41.99707,12.9932 -5.99889,7 -8.99511,23.0097 -4.99511,35.0097 4.99889,22 4.97274,22.002 -132.01172,22.002 H 467.00684 l 6.9873,91.9922 c 3,55.9889 11.00013,95.0049 18.99902,100.0049 9,5.9889 9.00964,10.0071 1.01075,15.996 -8,5 -9.00293,24.9981 -3.00293,67.9981 7.99889,55.9889 27.00124,232.0212 48.99902,438.999 11.99889,111.9889 29.00209,212.0098 41.00098,245.0098 l 8.99414,24.9902 220.00488,3.999 z m 2625,-26.9971 c 6,-1 8.9941,-53.0072 8.9941,-135.9961 -1,-73.9889 -7.0039,-251.0212 -14.0039,-393.999 -7,-142.9889 -13.9961,-298.0111 -15.9961,-345 -10,-242.9778 -36.0039,-815.016 -44.0039,-955.0049 -5,-87.9889 -11.9961,-233.0091 -15.9961,-322.998 -4,-90 -11,-157.9961 -15,-150.9961 -8,13.9889 -9.0029,-7.795 26.9971,1898.9941 2,128.9889 5.998,251 7.998,270 2,19 4.0098,56.002 5.0098,82.002 1,39.9889 4.0052,46.9912 23.9941,50.9912 12,2 27.0069,3.0068 32.0069,2.0068 z m -1606.377,-750 c -148.6248,0 -251.123,-1.0029 -253.623,-3.0029 -2,-3 -2.0039,-16.0039 0.9961,-29.0039 4,-13 3.0039,-61.9884 -0.9961,-107.9883 L 1788.0029,3770 h -48.999 c -31,0 -48.0039,-4.0049 -44.0039,-10.0049 3,-5 18.0029,-9.9902 33.0029,-9.9902 45,0 56.9981,-14.0069 52.9981,-62.0069 -6,-80.9999 -2.0041,-80.0029 -179.0039,-78.0029 -193.9998,2 -191.9971,2.0098 -191.9971,-9.9902 0,-6 64.9942,-10.0049 173.9941,-10.0049 106.9999,0 176.0079,-4.0049 178.0079,-10.0049 2,-5 0.9931,-37.9971 -2.0069,-71.9971 l -4.9951,-63.0029 -47.0068,-2.9883 c -59,-4 -61.9873,-17.0049 -6.9873,-25.0048 21.9999,-3 42.9961,-8.001 45.9961,-11.001 3,-2 -3.0079,-75.005 -13.0079,-160.0049 -9,-85.9999 -13.9902,-158.9932 -9.9902,-162.9932 9,-9 869.9913,-20.997 905.9912,-11.997 15,3 25.001,12.9902 26.001,24.9902 1,10 7.0078,84.004 13.0078,164.0039 7,79.9999 17.9971,243.9952 26.9971,364.9951 15,225.9998 18,263.0079 30,328.0078 l 6.0058,37.002 -153.0029,1.9922 c -186.9998,2 -381.7511,3.0029 -530.376,3.0029 z m 0.073,-25.459 c 55.1718,-0.4219 125.046,-1.2842 213.2959,-2.5342 273.9997,-5 415.0068,-10.0068 422.0068,-17.0068 8,-8 -109.0062,-9.998 -411.0059,-7.998 -357.9996,2 -423.0029,4.9922 -423.0029,16.9921 0,9 33.1906,11.8125 198.7061,10.5469 z m -145.708,-55.5469 8.0127,-21.9873 c 5,-13 37.001,-55.0098 71.0009,-95.0097 35,-39 99.9903,-108.9913 144.9903,-155.9912 45.9999,-47 82.998,-94.0079 82.998,-103.0079 0,-8.9999 -27.9922,-41.0049 -61.9922,-70.0048 -51.9999,-45 -90.9962,-80.0001 -180.9961,-165 l -72.0117,-71.9971 c -32,-34 -62.998,-60.9961 -67.998,-60.9961 -5,0 -6.003,21.003 -3.003,48.0029 3,26 8.0118,80.0001 12.0118,120 6,71 6.999,71.9971 33.999,71.9971 16,0 29.999,7 33.999,15 4,11 -1.9981,15 -22.998,15 -36,0 -40.9991,13.9942 -33.9991,83.9941 l 5.9912,56.001 h 101.9971 c 81.9999,0 103.999,3 108.999,15 4,12 -7.9971,15.0069 -71.997,17.0069 -42,1 -89.004,1.996 -104.0039,0.996 -28,-1 -27.9932,0 -27.9932,63.003 V 3740 h 45 c 33,0 45,4 45,15 0,10 -10.9951,15 -34.9951,15 h -35.0098 v 51.0059 c 0,27.9999 5.001,59.997 11.001,71.997 z m 185.9765,-0.8496 c 183.4686,-0.5156 516.2842,-5.3906 520.0342,-9.1406 4,-4 -5.004,-13.0079 -89.0039,-88.0078 -36,-32 -84.9951,-76.9903 -109.9951,-99.9902 -25,-22 -57.0049,-50.0069 -70.0049,-62.0069 -14,-11 -35.9951,-33.9951 -49.9951,-49.9951 -14,-17 -30.9981,-33.998 -37.9981,-37.998 -8,-5 -42.002,22.999 -97.0019,78.999 -47,47.9999 -85.0049,89.999 -85.0049,93.999 0,3 -15.0029,21.9971 -33.0029,41.9971 -41,44.9999 -97.002,116.0029 -97.002,123.0029 0,3 15.003,5.9981 33.0029,7.9981 10.25,1 54.8155,1.3144 115.9717,1.1425 z m 587.0362,-3.1494 c 12.9999,0 14.9902,-8.9971 9.9902,-56.9971 -4,-31.9999 -10.9961,-122.9981 -15.9961,-202.998 -13,-203.9998 -40,-522.9971 -45,-536.9971 -3,-10 -99.0042,-13.0078 -434.0039,-13.0078 -333.9997,0 -429.9932,3.0078 -432.9932,13.0078 -3,6 -0.997,45.9971 3.003,86.9971 5,41 11.9961,106.9971 15.9961,146.9971 5.9999,54.9999 10.9912,70.0097 20.9912,65.0097 9,-7 10.0029,-25.0127 3.0029,-83.0127 -6,-40.9999 -10.9932,-102.999 -12.9932,-138.999 L 1785,3125 l 402.9932,-0.9961 c 220.9997,-1 404.0107,0.9951 406.0107,4.9951 4,7 26.9961,246.0011 30.9961,326.001 5,110.9999 26.9961,410.9932 30.9961,432.9932 2,12 11.0098,22.0019 20.0098,22.0019 z m -57.0411,-64.79 c 0.8516,0.1094 1.5362,0.045 2.0362,-0.2051 3,-2 1.9931,-39.002 -2.0069,-82.002 -4,-42.9999 -14.9941,-183.9932 -23.9941,-312.9931 -10,-128.9999 -19.9941,-241.002 -23.9941,-247.002 -4,-8 -40.005,24.0001 -100.0049,90 -51,56 -115.002,125.003 -142.002,153.003 -26.9999,27.9999 -48.999,55.9922 -48.999,61.9921 0,5 -6.9961,12.9961 -15.9961,15.9961 -17,6 -11.0038,12.0011 75.9961,86.001 23,19 55.9932,49.0098 72.9932,65.0098 32.9999,30 116.002,102.9932 172.0019,147.9931 14,12.25 28.0088,21.4415 33.9697,22.2071 z m -385.9716,-336.211 c 4,1 20.0097,-11.9931 35.0097,-27.9931 15,-16 44.9913,-50 65.9912,-75 22,-26 53.001,-60.9991 71.001,-78.999 65,-66 145.0029,-163.9952 138.0029,-169.9952 -8.9999,-10 -672.9931,-9.0039 -672.9931,0.9961 0,9 216.9922,221.9932 226.9922,222.9932 5,0 34.9981,28.9991 67.998,63.999 33,35 63.9981,63.999 67.9981,63.999 z m 1927.0019,-696.9873 494.0039,-3.0029 c 476.9445,-3 494.9951,-3.013 499.9951,-22.0019 12,-47 13.9674,-47.0069 -317.9882,-47.0069 -171.9889,0 -395.015,3.002 -494.0039,7.002 l -182.0069,6.0058 v 29.0039 z M 5253.999,2802.002 c 70,3.9889 438.0101,-2.002 453.999,-7.002 8,-3 11.9971,-29.0052 11.9971,-83.9941 0,-79 0,-79.0049 -26.9971,-85.0049 -15.9889,-2 -132.0062,-4.9951 -259.9951,-4.9951 -202.9778,0 -231.997,1.9961 -236.997,15.9961 -4,8.9889 -4,49.0039 0,89.0039 l 6.9873,72.9931 z M 5760,2799.9951 h 495 495 V 2765 2730.0049 H 6255 5760 V 2765 Z m 1042.998,0 311.001,-1.9922 L 7425,2795 l 3.0029,-86.9971 3.003,-88.0078 h -315 c -172.9889,0 -317.0098,2.9981 -320.0098,7.9981 -2,4 -1.9893,45 1.0107,90 z m 693.003,0 c 36.9889,0 43.999,-2.998 48.999,-22.998 3,-12 5.0029,-51.9971 3.0029,-86.9971 l -3.0029,-64.9951 -47.0068,-3.0029 -45.9961,-3.003 -3.9991,74.0039 c -3.9889,105.9889 -3.997,106.9922 48.003,106.9922 z M 4162.002,2712.998 4583.9941,2705 c 230.9778,-5 455.0108,-8.9941 496.0108,-8.9941 66.9889,-1 74.9883,-3.0059 77.9883,-21.0059 5,-44 0.9676,-44.9961 -303.9991,-45.9961 -699.9223,-1 -691.9941,-1.0088 -698.9941,20.9912 -3,11 -3,30.001 0,41.001 z M 5760,2698.9941 l 277.998,-4.9951 c 151.9889,-2 375.0222,-3.999 495,-3.999 H 6750 v -34.9951 -35.0098 h -495 -495 v 39.0088 z M 3016.2451,2398.3789 c 10.25,0.375 23.7601,-0.373 37.749,-2.373 28,-3 153.031,-6.0059 279.0088,-6.0059 h 226.9922 v -70.0049 c 0,-65.9889 -1.001,-70.9951 -26.001,-79.9951 -13.9889,-6 -142.0023,-10.0049 -290.9912,-10.0049 H 2977.998 l 7.002,78.0029 c 4,42 9.9932,81.001 12.9932,86.001 1,2.5 8.0019,4.0049 18.2519,4.3799 z m -1213.2422,-6.3721 c 44,6 541.9942,-3.0159 548.9942,-10.0048 4,-4 4.9961,-38.0111 0.9961,-75 l -5.9912,-67.002 -176.001,-2.0068 c -96.9889,-1 -223.016,-1.9922 -280.0049,-1.9922 -66.9889,-1 -106.0029,-4.9971 -108.0029,-11.9971 -6,-19 83.03,-24.998 328.0078,-22.998 126.9778,0 231.998,-1.003 232.998,-3.003 2,-1 1.0078,-36 -1.9922,-75 l -4.0136,-73.0078 H 2043.999 1750.0049 v 28.0078 c 0,34 18.001,233.9942 26.001,278.9942 3,22.9889 10.997,33.0097 26.997,35.0097 z m 901.5967,-103.374 c -22.9721,-0.7331 -49.2315,-6.6992 -81.6064,-17.6367 -64,-22 -77.9903,-33.0001 -114.9903,-90 -39.9999,-63.9999 -40.0038,-135.001 0.9961,-176.001 46,-47.9999 56.001,-53.9932 101.001,-57.9931 91.9999,-9 177.9942,40.9981 218.9941,127.998 37,79.9999 22.0039,143.0049 -45.9961,190.0049 -24.7499,16.875 -48.8628,24.5705 -78.3984,23.6279 z m -42.6269,-53.2031 c 1.8359,-0.039 3.5244,-0.1748 5.0244,-0.4248 13,-3 32.9961,-7.0049 45.9961,-10.0049 32.9999,-6 87.0117,-57.9981 87.0117,-82.998 0,-60 -62.002,-128.003 -127.002,-138.003 -150.9998,-23 -197.0076,149.005 -58.0078,220.0049 14,7 34.126,11.6992 46.9776,11.4258 z m 590.1562,-35.9326 c 136.3639,-0.25 274.3682,-2.5039 284.8682,-6.5039 8,-3 13.0078,-22.9932 13.0078,-57.9932 0,-91.9889 23.9657,-85.0049 -296.001,-85.0049 H 2970 v 67.9981 c 0,37.9889 3.002,72.0107 7.002,76.0107 3.9889,4 138.763,5.7432 275.1269,5.4932 z M 3735,2120 c 24,0 45.9951,-4.0049 49.9951,-10.0049 3,-5 -3,-179.0193 -15,-386.9971 -11,-207.9667 -19.9912,-418.0029 -20.9912,-468.0029 -2,-125.9889 -6.0088,-135 -69.0088,-135 h -50.9912 l 5.9912,133.0078 c 15,322.9667 43.0059,781.9903 51.0059,834.9903 5,29.9889 6.999,32.0068 48.999,32.0068 z m -115.0049,-3.0029 c 12,-2 15,-22.0131 15,-112.002 0,-100.9889 -18.999,-543.0222 -33.999,-780 -6,-99.9889 -6.0101,-99.9931 -33.999,-102.9931 -18,-2 -29.003,1.9931 -33.003,12.9931 -4,9 -2.0009,100.0092 3.9991,202.9981 14.9889,251.9667 32.0097,568.0111 35.0097,675 3,89.9889 12.0033,111.0039 46.9922,104.0039 z m -1839.4922,-95.2442 c 31,1.75 90.5102,0.2461 206.4991,-2.7539 130.9778,-4 261.9912,-6.998 290.9912,-7.998 l 52.0019,-0.9961 v -44.0039 c 0,-24 -2.9912,-55.9971 -5.9912,-71.9971 L 2317.998,1865 l -284.0039,-3.999 -283.9892,-3.003 -7.9981,22.9981 c -8,22 -7.0117,75.0101 2.9883,123.999 2,10 4.5189,15.0078 35.5078,16.7578 z m 1268.5108,-1.9922 c 33.0358,0.6094 78.2415,-0.2617 139.9804,-0.7617 118.9889,-2 246.015,-5.0019 284.0039,-7.0019 L 3540,2007.998 v -63.0029 c 0,-34.9889 -4.0049,-66.9902 -10.0049,-69.9902 -5,-3 -136.0173,-8.001 -289.9951,-11.001 l -280.0049,-3.999 v 63.999 c 0,78.7389 -10.111,93.9287 89.0186,95.7568 z M 1744.0283,1836.4941 c 3.4688,1.375 7.7285,1.002 12.9785,-0.498 10,-2 140.0063,-5.9981 289.9952,-7.9981 l 271.9921,-3.0029 V 1762.0068 1700 l -296.997,2.0068 -296.9971,2.9883 3.0029,55.0049 c 2.25,52.4889 5.6192,72.3691 16.0254,76.4941 z m 1441.2158,-6.6211 c 116.7389,0.125 242.766,-1.874 283.7549,-5.874 l 60.9961,-7.0019 v -48.003 c 0,-84.9889 22.9657,-78.999 -296.001,-78.999 h -283.9892 v 31.0108 c 0,23.9889 6.0003,31.9902 28.9892,39.9902 16,6 30.9991,20.0107 33.9991,31.0107 5,18 2.0107,20 -28.9893,15 -32,-5 -42.986,0.9961 -26.9971,15.9961 4,4.5 111.5095,6.7451 228.2373,6.8701 z m -1463.247,-160.8691 146.997,-3.0029 c 80,-2 212.0199,-3.9951 294.0088,-4.9951 L 2310,1659.9951 v -75 -75 h -300 -300 v 48.999 c 0,27 3.0059,61.9991 6.0059,78.9991 z m 1387.0019,-9.0088 c 85.9889,0 213.015,-3.0019 284.0039,-7.0019 l 127.002,-5.9912 v -67.9981 c 0,-64.9889 -1.002,-69.0049 -22.002,-70.0049 -13,-1 -143.0319,-2.0029 -290.0097,-3.0029 L 2940,1505 v 62.0068 c 0,98.9889 -9.9788,93.9883 168.999,92.9883 z m -166.9922,-181.9922 216.9873,-3.999 c 118.9889,-3 248.0108,-7.0049 286.0108,-10.0049 l 69.9902,-4.9951 -3.999,-62.0068 c -1,-34 -7.001,-64.002 -11.001,-67.002 -7,-5 -146.0255,-4.9961 -451.9922,-0.9961 l -118.0078,0.9961 v 44.0039 c 0,24 3.0059,57.0039 6.0059,74.0039 z M 1982.373,1302.6318 C 2098.7369,1301.0068 2214.514,1298 2238.0029,1295 L 2280,1288.9941 v -96.9873 c 0,-52.9889 -5.001,-142.0179 -11.001,-197.0068 -6,-54.99445 -13.9922,-154.01265 -16.9922,-220.00488 l -7.0019,-120 -299.0039,2.00683 c -163.9889,1 -301.003,3.99232 -303.003,5.99121 -2,3 3.9971,85.01403 11.9971,183.00293 14,152.98335 33.0098,402.00591 35.0098,441.00591 0,5.9889 14.9883,13 32.9883,15 25.9889,2.5 143.027,2.2548 259.3798,0.6298 z m 350.4639,-5.8886 c 3.7813,2.125 8.4151,1.5029 14.1651,-0.7471 7.9889,-3 35.0039,-5.9912 59.0039,-5.9912 h 43.9892 v -42.0117 c 0,-24 -7,-122.0092 -15,-217.9981 -8,-95.98779 -18.998,-220.00066 -22.998,-274.9951 l -7.002,-100.00488 -63.999,-2.98828 -63.0029,-3.00293 6.0058,97.99804 c 4,53.99445 10.9961,147.99983 15.9961,207.99317 5,60.98898 12.0039,157.99808 14.0039,217.99808 3.75,86.2389 7.4942,117.375 18.8379,123.75 z m 598.169,-1.7432 121.9921,-3.0029 c 67,-1 196.0072,-4.9981 285.9961,-7.9981 l 164.0039,-6.0058 -7.0019,-121.9922 c -3,-66 -8.9971,-195.00611 -11.9971,-285.99612 -3,-90.99001 -7.0049,-180.00404 -10.0049,-198.00293 l -4.9951,-32.00683 -286.9922,2.00683 L 2895,645.00488 2897.0068,680 c 10,232.97447 24.9893,525.0049 28.9893,565.0049 z m -350.0098,-0.7471 c 36.25,-1.75 72.5068,-5.2578 77.0068,-9.2578 2,-2 -4.0078,-108.0333 -28.0078,-434.99998 -5,-68.99223 -8.9902,-141.99929 -9.9902,-161.99707 V 650 h -87.0117 -85.9864 l 5.9912,142.99805 c 9,211.97775 37.0059,490.99515 51.0059,499.99515 4.5,3 40.7422,3.0097 76.9922,1.2597 z m 162.4512,-4.1601 c 13.7968,0.7812 32.5498,-0.088 58.5498,-0.088 h 90.9961 l -5.9912,-62.0069 c -4,-34.9889 -12.003,-175.0043 -18.003,-312.99312 -6,-136.98446 -14.9951,-254.00013 -19.9951,-258.99902 -9,-9.99889 -175.001,-9.99889 -191.001,0 -4,3 -6.0029,14.99818 -3.0029,26.99707 2,11.99889 9,110.01416 15,217.00195 6,106.98892 15.0059,229.00002 21.0059,270.00002 14.2389,100.4889 11.0508,117.7441 52.4414,120.0879 z" />
  </g>
  <g
     id="g306"
     transform="translate(1.1722035,1.1721955)">
    <rect
       style="display:inline;opacity:1;mix-blend-mode:normal;fill:#e6e6e6;stroke-width:7.5"
       id="rect54"
       width="1500.4182"
       height="2121.6851"
       x="3833.0996"
       y="-5005.3013"
       transform="matrix(0.1,0,0,0.1,0,953.00003)" />
    <rect
       style="display:inline;opacity:1;fill:#e6e6e6;fill-opacity:1;stroke-width:7.5"
       id="rect55"
       width="1523.8622"
       height="2836.728"
       x="5556.2363"
       y="-5708.6221"
       transform="matrix(0.1,0,0,0.1,0,953.00003)" />
    <rect
       style="display:inline;opacity:1;fill:#e6e6e6;stroke-width:7.5"
       id="rect56"
       width="1488.6962"
       height="2496.7898"
       x="5521.0703"
       y="-8404.6865"
       transform="matrix(0.1,0,0,0.1,0,953.00003)" />
    <path
       id="rect371"
       style="fill:#e6e6e6;fill-opacity:1;stroke-width:0.75"
       d="m 416.09363,145.88144 h 113.55544 v 57.19215 H 416.09363 Z m -19.89289,-34.81262 h 135.1061 v 69.62523 h -135.1061 z"
       transform="translate(-1.1722017,-1.1722017)" />
    <path
       id="rect327"
       style="opacity:1;fill:#e6e6e6;stroke-width:0.75"
       d="M 354.00492,378.36286 H 532.7657 v 55.09349 H 354.00492 Z m -100.22323,-0.58612 h 109.01476 v 82.05412 H 253.78169 Z" />
  </g>
</svg>
