<?xml version="1.0" standalone="no"?>
<!DOCTYPE svg PUBLIC "-//W3C//DTD SVG 20010904//EN"
 "http://www.w3.org/TR/2001/REC-SVG-20010904/DTD/svg10.dtd">
<svg version="1.0" xmlns="http://www.w3.org/2000/svg"
 width="826.000000pt" height="826.000000pt" viewBox="0 0 826.000000 826.000000"
 preserveAspectRatio="xMidYMid meet">

<g transform="translate(0.000000,826.000000) scale(0.100000,-0.100000)"
fill="#000000" stroke="none">
<path d="M0 4130 l0 -4130 4130 0 4130 0 0 4130 0 4130 -4130 0 -4130 0 0
-4130z m8248 3 l-3 -4118 -4117 -3 -4118 -2 0 4120 0 4120 4120 0 4120 0 -2
-4117z"/>
<path d="M890 6120 l0 -480 40 0 40 0 -2 -622 -3 -623 -37 -3 -38 -3 0 -1365
0 -1364 449 0 450 0 3 38 3 37 413 3 412 2 0 -40 0 -40 224 0 225 0 3 38 3 37
413 3 412 2 0 -40 0 -40 714 0 715 0 3 38 3 37 410 0 410 0 3 -37 3 -38 605 0
604 0 0 1210 0 1210 -55 0 -55 0 0 310 0 310 55 0 55 0 0 505 0 505 -790 0
-790 0 -1 28 c-1 15 0 215 1 445 l2 417 -256 0 -256 0 0 -40 0 -40 -780 0
-780 0 0 40 0 40 -1415 0 -1415 0 0 -480z m2380 -1030 l0 -1370 -1120 0 -1120
0 0 1370 0 1370 1120 0 1120 0 0 -1370z m2380 805 l0 -565 30 0 30 0 0 120 0
120 760 0 760 0 0 -925 0 -925 -35 0 c-34 0 -35 1 -36 43 -2 29 -3 34 -6 15
l-4 -28 -230 0 c-222 0 -230 1 -224 19 3 11 1 22 -5 26 -35 21 6 25 230 23
132 -2 240 0 240 5 0 4 -128 7 -285 7 l-285 0 0 -55 0 -55 -61 0 c-60 0 -60 0
-57 -27 l3 -28 -335 0 -335 0 -3 28 c-3 25 -7 27 -48 27 l-44 0 0 105 0 105
125 0 c127 0 145 6 113 38 -9 9 -9 17 2 36 11 21 11 28 0 41 -11 13 -11 20 1
41 10 20 11 29 1 44 -15 25 -15 62 -1 94 9 20 9 29 -1 41 -11 13 -11 20 1 41
10 20 11 29 1 44 -15 25 -16 75 -1 102 8 15 8 26 -1 44 -11 19 -11 26 0 39 10
12 10 21 1 43 -9 18 -9 28 -2 30 6 2 11 12 11 23 0 18 -9 19 -155 19 l-155 0
0 -465 0 -465 -765 0 -765 0 0 -30 0 -30 -335 0 -335 0 0 30 c0 30 -1 30 -55
30 l-55 0 0 261 0 261 -25 -4 -25 -5 0 338 0 339 25 0 25 0 0 775 0 775 1155
0 1155 0 0 -565z m300 -1265 c0 -6 -45 -10 -116 -10 -74 0 -113 4 -109 10 4 6
53 10 116 10 66 0 109 -4 109 -10z m-175 -35 c-16 -8 -20 -12 -9 -10 24 6 39
-18 26 -41 -11 -20 -39 2 -48 39 -6 25 -4 27 27 27 l34 -1 -30 -14z m155 7 c0
-4 -17 -6 -37 -4 -65 6 -70 10 -15 11 28 0 52 -3 52 -7z m-73 -18 c-3 -3 -12
-4 -19 -1 -8 3 -5 6 6 6 11 1 17 -2 13 -5z m78 -24 c0 -8 -10 -16 -22 -18 -18
-3 -23 2 -23 18 0 16 5 21 23 18 12 -2 22 -10 22 -18z m-167 -57 c-21 -13 -21
-13 -2 -8 24 6 39 -17 26 -41 -13 -23 -42 5 -49 49 l-6 38 27 -12 27 -13 -23
-13z m162 16 c0 -9 -58 -15 -90 -10 -23 3 -24 4 -5 11 23 9 95 8 95 -1z m5
-49 c0 -8 -10 -16 -22 -18 -18 -3 -23 2 -23 18 0 16 5 21 23 18 12 -2 22 -10
22 -18z m-71 -40 l66 5 0 -34 0 -34 -77 6 c-43 3 -85 1 -95 -4 -16 -9 -18 -5
-18 35 l0 45 29 -12 c19 -8 54 -11 95 -7z m-7 14 c-3 -3 -12 -4 -19 -1 -8 3
-5 6 6 6 11 1 17 -2 13 -5z m-45 -109 c4 -38 -6 -47 -39 -34 -38 14 -23 69 18
69 12 0 18 -10 21 -35z m117 16 c28 -18 4 -41 -44 -41 -41 0 -45 2 -45 25 0
22 4 25 38 25 20 0 43 -4 51 -9z m-172 -65 c-5 -11 1 -13 27 -9 32 5 32 5 28
-32 -4 -35 -6 -37 -34 -31 -20 4 -27 2 -22 -5 5 -8 33 -9 90 -5 l84 7 0 -31 0
-31 -72 3 c-40 2 -83 -1 -95 -5 -22 -8 -22 -7 -20 72 1 45 6 81 11 81 4 0 6
-6 3 -14z m173 4 c0 -5 -18 -10 -40 -10 -22 0 -40 5 -40 10 0 6 18 10 40 10
22 0 40 -4 40 -10z m5 -45 c0 -17 -8 -20 -47 -23 -45 -3 -48 -1 -48 20 0 22 4
24 48 23 40 0 47 -3 47 -20z m-142 -118 c8 -20 -9 -41 -27 -34 -19 8 -21 33
-3 40 20 9 25 8 30 -6z m64 7 c-3 -3 -12 -4 -19 -1 -8 3 -5 6 6 6 11 1 17 -2
13 -5z m81 -21 c-2 -10 -13 -19 -26 -21 -17 -3 -22 2 -22 17 0 16 6 21 26 21
19 0 25 -5 22 -17z m-162 -38 c10 -8 14 -15 7 -15 -6 0 -18 -3 -27 -6 -12 -4
-16 0 -16 15 0 25 9 26 36 6z m154 -5 c0 -5 -25 -10 -56 -10 -34 0 -53 4 -49
10 3 6 28 10 56 10 27 0 49 -4 49 -10z m-136 -36 c8 -20 -1 -34 -20 -34 -20 0
-30 30 -13 41 20 12 26 11 33 -7z m146 -8 c0 -16 -27 -29 -41 -20 -19 11 -9
34 16 34 15 0 25 -6 25 -14z m-85 -26 c3 -5 2 -10 -4 -10 -5 0 -13 5 -16 10
-3 6 -2 10 4 10 5 0 13 -4 16 -10z m-2 -13 c61 1 77 -1 77 -13 0 -8 5 -14 10
-14 6 0 10 -4 10 -10 0 -6 -46 -10 -117 -10 -91 0 -114 3 -105 12 7 7 12 21
12 31 0 15 4 17 18 11 9 -5 52 -8 95 -7z m787 -188 c-9 -15 -8 -24 1 -35 9
-11 7 -14 -15 -14 -23 0 -26 4 -26 35 0 31 3 35 25 35 23 0 24 -2 15 -21z m35
-19 c-3 -5 -10 -10 -16 -10 -5 0 -9 5 -9 10 0 6 7 10 16 10 8 0 12 -4 9 -10z
m-2482 -145 c-17 -7 -36 -22 -42 -34 -7 -12 -11 -90 -11 -200 0 -114 -4 -181
-10 -181 -5 0 -10 -22 -10 -50 0 -27 5 -50 10 -50 6 0 10 -11 10 -24 0 -13 9
-34 19 -47 19 -24 21 -24 218 -24 l198 0 0 305 0 305 -80 6 -80 6 90 -1 90 -1
-4 -920 -3 -920 -1779 -3 -1779 -2 0 925 0 925 1598 0 c1358 -1 1592 -3 1565
-15z m175 8 c-27 -2 -69 -2 -95 0 -27 2 -5 3 47 3 52 0 74 -1 48 -3z m2862
-918 l0 -925 -1285 0 -1285 0 0 925 0 925 1285 0 1285 0 0 -925z m-3020 604
c0 -315 1 -308 -42 -271 -16 14 -18 40 -18 274 0 245 1 259 20 278 11 11 25
20 30 20 6 0 10 -107 10 -301z m355 1 l0 -295 -167 -3 -168 -2 0 300 0 300
168 -2 167 -3 0 -295z m-428 -182 c-2 -13 -4 -3 -4 22 0 25 2 35 4 23 2 -13 2
-33 0 -45z"/>
<path d="M1072 6298 l3 -133 73 -3 c39 -2 72 -7 72 -12 0 -13 73 -13 86 -1 5
6 41 11 79 13 l70 3 3 133 3 132 -196 0 -196 0 3 -132z m376 5 l-3 -118 -180
0 -180 0 -3 118 -3 117 186 0 186 0 -3 -117z"/>
<path d="M1500 6391 c0 -33 4 -40 23 -43 22 -3 22 -5 25 -169 l2 -166 -25 -17
c-22 -14 -25 -24 -25 -71 0 -29 5 -57 10 -60 6 -4 10 -83 10 -206 l0 -199 -70
0 -70 0 0 -430 0 -430 775 0 775 0 0 430 0 430 -75 0 -75 0 0 199 c0 123 4
202 10 206 11 7 13 105 2 121 -4 6 -15 13 -25 17 -16 6 -17 21 -15 174 3 166
3 168 26 171 18 3 22 10 22 43 l0 39 -650 0 -650 0 0 -39z m1290 -1 l0 -30
-640 0 -640 0 0 30 0 30 640 0 640 0 0 -30z m-50 -215 l0 -175 -590 0 -590 0
0 175 0 175 590 0 590 0 0 -175z m45 -250 l0 -60 -635 0 -635 0 -3 49 c-2 27
-1 55 2 62 5 12 107 14 638 12 l633 -3 0 -60z m-930 -89 c110 -2 175 -1 145 3
-36 5 11 8 135 8 130 0 170 -3 125 -8 -74 -8 314 -2 433 7 l77 6 0 -479 c0
-417 -2 -481 -16 -501 l-15 -22 -582 0 c-320 0 -587 4 -593 8 -32 21 -34 52
-34 515 0 255 3 467 7 471 4 4 33 5 63 2 30 -3 145 -7 255 -10z m-333 -670 c3
-263 4 -285 22 -305 19 -21 22 -21 607 -21 l588 0 20 26 c20 26 21 39 21 305
l0 279 70 0 70 0 -2 -417 -3 -418 -762 -3 -763 -2 0 420 0 420 65 0 64 0 3
-284z"/>
<path d="M1592 6182 l3 -123 258 0 c141 0 262 3 267 6 6 3 10 14 9 23 0 12 -3
10 -10 -7 -6 -15 -14 -21 -25 -17 -9 3 -86 6 -171 6 -86 0 -154 2 -151 5 3 3
40 14 84 26 43 11 103 31 131 44 68 31 146 106 141 137 l-3 22 -268 1 -268 0
3 -123z m528 110 c0 -13 -34 -63 -62 -88 -64 -61 -163 -93 -425 -138 l-33 -5
0 117 0 117 260 0 c143 0 260 -1 260 -3z"/>
<path d="M2183 6294 c-2 -6 -2 -33 0 -60 l3 -49 2 55 2 55 260 0 c176 0 260
-3 260 -11 0 -20 -51 -79 -91 -106 -22 -15 -68 -36 -102 -47 -66 -22 -228 -57
-287 -63 l-35 -3 -6 60 -6 60 1 -63 1 -63 260 0 c143 1 264 1 268 1 4 0 6 55
5 122 l-3 122 -264 1 c-187 0 -265 -3 -268 -11z m525 -139 c-2 -47 -6 -85 -10
-85 -5 0 -83 0 -175 0 -91 0 -164 2 -161 5 2 3 40 14 84 25 105 27 194 70 225
108 13 17 28 31 32 31 4 1 6 -37 5 -84z"/>
<path d="M2113 6170 c0 -36 2 -50 4 -32 2 17 2 47 0 65 -2 17 -4 3 -4 -33z"/>
<path d="M2098 5823 c18 -2 45 -2 60 0 15 2 0 4 -33 4 -33 0 -45 -2 -27 -4z"/>
<path d="M2850 6295 l0 -135 69 0 c39 0 73 -4 76 -10 8 -13 85 -13 85 0 0 5
33 10 73 12 l72 3 3 133 3 132 -191 0 -190 0 0 -135z m370 5 l0 -120 -180 0
-180 0 0 120 0 120 180 0 180 0 0 -120z"/>
<path d="M3100 6323 c-78 -45 -82 -50 -63 -87 9 -17 21 -34 27 -38 10 -7 107
42 135 68 13 11 12 18 -5 49 -22 42 -35 43 -94 8z m90 -37 c0 -6 -22 -24 -50
-39 -48 -27 -49 -27 -60 -8 -6 11 -17 18 -24 15 -8 -3 -17 0 -22 7 -5 9 -2 10
9 6 10 -3 17 -2 17 2 0 5 21 23 48 39 47 30 47 30 65 10 9 -11 17 -25 17 -32z
m-110 -72 c0 -8 -4 -12 -10 -9 -5 3 -10 10 -10 16 0 5 5 9 10 9 6 0 10 -7 10
-16z"/>
<path d="M1510 3970 l0 -190 640 0 c603 0 640 1 639 18 0 10 -3 12 -6 5 -4
-10 -140 -13 -634 -13 l-629 0 0 180 0 180 630 0 629 0 4 -147 3 -148 2 153 2
152 -640 0 -640 0 0 -190z"/>
<path d="M1248 4112 c-7 -11 -29 -25 -50 -32 -27 -10 -38 -20 -42 -41 -3 -15
-15 -37 -27 -48 l-23 -21 23 -21 c12 -11 24 -33 27 -48 4 -21 15 -31 42 -41
21 -7 43 -21 50 -32 13 -18 15 -18 44 7 16 14 40 28 54 31 13 3 24 12 24 19 0
7 11 29 25 49 l24 36 -24 36 c-14 20 -25 42 -25 49 0 7 -11 16 -24 19 -14 3
-38 17 -54 31 -29 25 -31 25 -44 7z m38 -19 c20 -27 17 -39 -5 -19 -18 17 -20
17 -29 -1 -6 -10 -13 -15 -16 -12 -6 6 21 49 31 49 3 0 12 -8 19 -17z m-2 -40
c9 -24 -9 -39 -29 -23 -12 10 -13 16 -4 26 15 19 25 18 33 -3z m-59 -3 c3 -5
-3 -10 -15 -10 -16 0 -20 -4 -16 -18 5 -13 -1 -22 -20 -30 -25 -12 -29 -32 -7
-39 6 -2 10 4 9 14 0 9 7 19 17 21 30 6 21 -35 -10 -42 -35 -9 -63 15 -43 38
7 9 19 16 27 16 12 0 14 7 10 30 -6 27 -4 30 18 30 13 0 27 -4 30 -10z m135
-7 c0 -10 -5 -25 -10 -33 -8 -12 -10 -11 -10 8 0 15 -6 22 -21 22 -11 0 -17 5
-14 10 11 18 55 12 55 -7z m-105 -33 c14 -16 16 -23 6 -33 -15 -15 -41 0 -52
31 -7 18 -5 22 10 22 10 0 26 -9 36 -20z m75 11 c0 -23 -14 -41 -30 -41 -22 0
-32 24 -17 39 13 13 47 15 47 2z m64 -36 c20 -15 20 -15 0 -30 -25 -19 -40
-19 -24 0 10 12 10 18 0 30 -16 19 -1 19 24 0z m-34 -5 c13 -9 13 -11 0 -20
-19 -12 -27 -12 -35 0 -7 11 2 30 13 30 4 0 14 -5 22 -10z m-48 -27 c10 -9 18
-22 18 -30 0 -21 -37 -15 -54 9 -26 36 1 53 36 21z m-54 -15 c2 -12 -5 -19
-23 -24 -32 -8 -35 -5 -24 24 10 27 42 27 47 0z m102 -40 c0 -20 -44 -26 -55
-8 -3 6 3 10 14 10 15 0 21 7 21 23 0 18 2 19 10 7 5 -8 10 -23 10 -32z m-166
17 c-4 -10 0 -15 16 -15 11 0 18 -4 15 -10 -3 -5 -18 -10 -32 -10 -19 0 -24 4
-19 16 3 9 6 20 6 25 0 5 4 9 10 9 5 0 7 -7 4 -15z m96 -14 c0 -3 -4 -12 -9
-20 -8 -12 -12 -13 -25 -2 -12 10 -13 17 -5 27 10 12 39 9 39 -5z m-36 -37 c6
-15 8 -15 26 1 23 21 26 9 5 -19 -7 -10 -18 -15 -24 -11 -16 9 -33 45 -22 45
5 0 12 -7 15 -16z"/>
<path d="M1540 3970 l0 -160 610 0 610 0 0 160 0 160 -610 0 -610 0 0 -160z
m1210 0 l0 -150 -600 0 -600 0 0 143 c0 79 3 147 7 150 3 4 273 7 600 7 l593
0 0 -150z"/>
<path d="M1692 3998 c3 -7 16 -14 30 -16 14 -2 34 -12 44 -23 14 -15 31 -19
91 -19 42 0 73 -4 73 -10 0 -6 80 -10 220 -10 140 0 220 4 220 10 0 6 32 10
75 10 63 0 78 3 92 20 10 11 30 20 45 20 18 0 28 5 28 15 0 13 -58 15 -461 15
-364 0 -460 -3 -457 -12z m838 -33 c-11 -13 -65 -15 -380 -15 -315 0 -369 2
-380 15 -11 13 32 15 380 15 348 0 391 -2 380 -15z m-267 -32 c-56 -2 -151 -2
-210 0 -59 1 -13 3 102 3 116 0 164 -2 108 -3z"/>
<path d="M3018 4112 c-7 -11 -29 -25 -50 -32 -27 -10 -38 -20 -42 -41 -3 -15
-15 -37 -27 -48 l-23 -21 23 -21 c12 -11 24 -33 27 -48 4 -21 15 -31 42 -41
21 -7 43 -21 50 -32 13 -18 15 -18 44 7 16 14 40 28 54 31 13 3 24 12 24 19 0
7 12 29 26 50 25 37 25 38 5 59 -11 11 -22 33 -26 48 -4 16 -16 28 -30 32 -13
3 -37 17 -53 31 -29 25 -31 25 -44 7z m38 -19 c20 -27 17 -39 -5 -19 -18 17
-20 17 -29 -1 -6 -10 -13 -15 -16 -12 -6 6 21 49 31 49 3 0 12 -8 19 -17z m4
-53 c0 -13 -26 -19 -40 -10 -11 7 -11 11 -1 24 11 12 17 14 27 5 8 -6 14 -15
14 -19z m-65 10 c3 -5 -3 -10 -14 -10 -12 0 -21 -4 -21 -9 0 -4 10 -6 23 -4
25 5 63 -29 52 -46 -10 -17 -33 -13 -48 10 -15 20 -16 20 -41 3 -26 -17 -30
-34 -9 -41 6 -2 10 4 9 14 0 9 7 19 17 21 11 2 17 -3 17 -16 0 -25 -42 -37
-69 -20 -19 11 -19 14 -4 30 9 10 23 18 30 18 11 0 13 8 8 30 -6 27 -4 30 19
30 13 0 28 -4 31 -10z m134 -2 c0 -7 -4 -22 -9 -33 -8 -19 -9 -19 -9 3 -1 15
-7 22 -22 22 -11 0 -17 5 -14 10 9 14 55 12 54 -2z m-29 -24 c0 -15 -22 -44
-34 -44 -19 0 -27 25 -13 39 11 11 47 15 47 5z m64 -39 c20 -15 20 -15 0 -30
-25 -19 -40 -19 -24 0 10 12 10 18 0 30 -16 19 -1 19 24 0z m-34 -5 c13 -9 13
-11 0 -20 -8 -5 -18 -10 -22 -10 -11 0 -20 19 -13 30 8 12 16 12 35 0z m-46
-32 c21 -29 20 -38 -2 -38 -23 0 -56 35 -47 49 10 18 33 13 49 -11z m-60 -5
c8 -20 -12 -35 -41 -30 -13 2 -23 0 -23 -4 0 -5 9 -9 21 -9 11 0 17 -4 14 -10
-8 -13 -55 -13 -55 -1 0 20 13 41 25 41 7 0 15 7 19 15 7 20 32 19 40 -2z
m105 -50 c1 -15 -45 -17 -54 -3 -3 6 3 10 14 10 15 0 21 7 22 23 0 21 1 21 9
2 5 -11 9 -26 9 -32z m-69 8 c0 -3 -5 -13 -10 -21 -8 -13 -12 -13 -27 3 -15
15 -16 19 -4 26 14 9 41 4 41 -8z m-36 -37 c6 -15 8 -15 26 1 23 21 26 9 5
-19 -7 -10 -18 -15 -24 -11 -16 9 -33 45 -22 45 5 0 12 -7 15 -16z"/>
<path d="M3651 6353 c-39 -19 -71 -67 -70 -103 1 -21 2 -20 9 8 4 18 16 42 26
54 44 49 30 48 884 48 882 0 850 2 890 -62 19 -30 20 -46 18 -175 l-3 -143
-30 -30 c-19 -18 -46 -33 -68 -37 -33 -5 -37 -3 -37 16 0 17 6 21 33 21 18 0
38 5 45 12 15 15 17 310 2 339 -10 19 -30 19 -849 19 -701 0 -840 -2 -850 -14
-8 -9 -11 -66 -9 -182 l3 -169 40 -5 c27 -3 41 -10 43 -22 3 -14 -3 -18 -23
-18 -44 0 -85 28 -106 73 -14 33 -19 37 -19 19 0 -31 58 -89 96 -97 51 -11 54
-14 54 -41 0 -40 56 -91 111 -99 24 -3 337 -5 694 -3 619 3 651 4 678 22 31
21 57 64 57 96 0 15 6 20 28 20 41 0 91 36 108 77 12 28 15 67 12 174 -3 131
-4 139 -28 165 -52 56 -22 54 -897 54 -733 0 -811 -2 -842 -17z m1694 -65 c3
-13 4 -90 3 -173 l-3 -150 -37 -3 -38 -3 0 84 c0 54 6 98 16 122 8 21 12 41 7
45 -4 4 -42 15 -83 25 -41 10 -96 26 -122 36 l-48 19 -15 -30 -16 -30 -499 0
c-393 0 -500 3 -500 13 -1 32 -15 37 -62 21 -26 -8 -86 -24 -135 -34 -48 -10
-76 -19 -62 -19 15 -1 69 10 120 23 52 13 101 26 109 27 20 6 14 -65 -11 -118
-21 -44 -164 -187 -178 -179 -5 3 -11 20 -15 37 -3 17 -22 67 -41 112 -27 61
-32 83 -23 89 9 5 8 8 -4 8 -23 0 -22 -8 2 -65 11 -26 20 -55 20 -66 0 -10 4
-19 10 -19 16 0 40 -100 40 -165 0 -34 5 -66 12 -73 9 -9 74 -12 230 -12 139
0 218 -4 218 -10 0 -5 9 -10 20 -10 11 0 20 5 20 10 0 6 80 10 220 10 140 0
220 -4 220 -10 0 -5 9 -10 20 -10 11 0 20 5 20 10 0 6 80 10 220 10 252 0 240
-5 240 95 0 31 8 82 18 113 l17 57 3 -110 c3 -123 -5 -145 -69 -178 -32 -16
-81 -17 -704 -15 -605 3 -672 5 -693 20 -46 32 -53 52 -54 160 -1 57 -4 81 -6
55 l-3 -48 -37 3 -37 3 -3 160 c-1 87 0 165 2 172 4 10 169 13 845 13 l841 0
5 -22z m-170 -53 c55 -15 104 -30 108 -35 13 -12 -73 -79 -111 -86 -42 -8
-141 1 -175 17 l-25 11 37 64 c24 43 41 63 51 60 8 -2 60 -16 115 -31z m-175
-24 c0 -6 -4 -13 -10 -16 -5 -3 -228 -5 -496 -5 l-486 0 6 -52 6 -53 -65 -31
c-36 -18 -65 -31 -65 -29 0 1 18 22 39 46 22 23 50 67 63 96 l23 53 492 0
c302 0 493 -4 493 -9z m-762 -213 l2 -178 -220 0 c-140 0 -220 4 -220 10 0 6
77 10 210 10 l210 0 -2 163 -2 162 -3 -157 -4 -158 -204 0 -205 0 0 49 c0 45
4 53 33 75 17 13 69 43 115 66 l83 42 -5 49 -5 50 107 -3 107 -3 3 -177z m32
-8 c0 -120 -4 -190 -10 -190 -6 0 -10 70 -10 190 0 120 4 190 10 190 6 0 10
-70 10 -190z m445 10 l0 -175 -217 -3 -218 -2 0 180 0 180 218 -2 217 -3 0
-175z m35 -16 c0 -128 -3 -185 -11 -182 -6 2 -10 7 -10 11 1 4 1 88 1 188 0
117 3 178 10 174 6 -4 10 -79 10 -191z m215 174 c-4 -19 5 -29 53 -60 31 -20
83 -60 115 -88 56 -51 57 -52 57 -106 l0 -54 -205 0 -206 0 3 155 c2 85 0 155
-4 155 -5 0 -8 -72 -8 -160 l0 -160 215 0 c137 0 215 -4 215 -10 0 -6 -80 -10
-220 -10 l-220 0 0 180 0 180 105 0 c104 0 105 0 100 -22z m296 -31 c-5 -12
-19 -55 -30 -95 l-22 -72 -62 52 c-34 29 -75 62 -90 73 l-27 20 84 0 c72 0 89
3 113 22 36 28 45 28 34 0z m-54 -254 c-2 -16 -4 -3 -4 27 0 30 2 43 4 28 2
-16 2 -40 0 -55z"/>
<path d="M4302 6003 l-2 -163 195 0 195 0 0 160 c0 88 -3 160 -7 160 -5 0 -7
-70 -5 -155 l3 -155 -185 0 -185 0 -4 158 -3 157 -2 -162z"/>
<path d="M6016 5524 c-15 -13 -36 -24 -47 -24 -12 0 -19 -7 -19 -19 0 -11 -11
-32 -24 -48 l-24 -28 24 -28 c13 -16 24 -37 24 -48 0 -12 7 -19 19 -19 11 0
32 -11 48 -24 l28 -24 28 24 c16 13 36 24 46 24 10 0 22 13 29 34 7 19 19 39
27 46 11 9 10 17 -11 47 -13 20 -24 42 -24 49 0 8 -6 14 -14 14 -7 0 -29 11
-48 24 l-34 23 -28 -23z m52 -14 c13 -21 3 -27 -15 -9 -8 8 -13 7 -18 -3 -5
-7 -5 -10 0 -6 10 10 37 -11 29 -23 -10 -17 -32 -9 -37 13 -6 20 7 48 22 48 3
0 12 -9 19 -20z m-63 -30 c3 -5 -1 -10 -9 -10 -9 0 -16 -8 -16 -17 0 -15 -2
-16 -10 -3 -5 8 -10 21 -10 28 0 14 36 16 45 2z m125 -9 c0 -11 -4 -23 -10
-26 -5 -3 -10 1 -10 9 0 9 -7 16 -16 16 -8 0 -12 5 -9 10 11 18 45 11 45 -9z
m-104 -22 c7 -12 -15 -31 -28 -23 -4 3 -8 12 -8 20 0 17 26 19 36 3z m74 -2
c0 -8 -3 -17 -7 -20 -9 -9 -34 13 -27 24 8 14 34 11 34 -4z m70 -43 c0 -16
-23 -24 -49 -17 -25 7 -29 36 -3 31 9 -2 16 -10 14 -17 -1 -7 2 -9 9 -6 8 5 8
10 0 18 -18 18 -12 28 9 15 11 -7 20 -18 20 -24z m-176 5 c5 -5 -3 -13 -19
-19 -23 -9 -32 -8 -44 5 -14 14 -14 17 -1 25 15 10 48 4 64 -11z m31 -40 c0
-7 -8 -15 -17 -17 -18 -3 -25 18 -11 32 10 10 28 1 28 -15z m75 -5 c0 -14 -21
-19 -33 -7 -9 9 13 34 24 27 5 -3 9 -12 9 -20z m-104 -24 c8 0 12 -4 9 -10 -8
-13 -45 -13 -45 -1 0 5 3 18 7 28 7 17 8 17 11 1 2 -10 10 -18 18 -18z m134
-1 c0 -21 -16 -24 -40 -9 -13 8 -12 10 3 10 9 0 17 7 17 16 0 8 5 12 10 9 6
-3 10 -15 10 -26z m-71 -10 c-5 -11 -15 -16 -21 -13 -7 4 -8 2 -4 -5 6 -9 11
-9 22 0 20 17 25 8 8 -16 -13 -17 -16 -18 -30 -4 -19 20 -3 72 20 63 12 -5 13
-11 5 -25z"/>
<path d="M5945 5411 c-3 -5 -2 -12 3 -15 5 -3 9 1 9 9 0 17 -3 19 -12 6z"/>
<path d="M6360 5421 l0 -128 88 -56 c48 -31 100 -67 115 -81 16 -15 33 -26 39
-26 15 0 156 -90 192 -122 17 -15 36 -28 44 -28 7 0 43 -20 80 -45 l67 -45
117 0 118 0 0 330 0 330 -430 0 -430 0 0 -129z m848 -198 l-3 -318 -85 -3 -85
-2 -330 213 -330 213 -3 107 -3 107 421 0 420 0 -2 -317z"/>
<path d="M3850 5090 l0 -190 645 0 645 0 0 190 0 190 -645 0 -645 0 0 -190z
m1280 0 l0 -180 -635 0 -635 0 0 180 0 180 635 0 635 0 0 -180z"/>
<path d="M3884 5237 c-2 -7 -3 -78 -2 -157 l3 -145 608 -3 607 -2 0 160 0 160
-605 0 c-487 0 -607 -3 -611 -13z m1206 -147 l0 -150 -597 2 -598 3 -3 134
c-1 74 0 141 2 148 4 10 121 13 601 13 l595 0 0 -150z"/>
<path d="M4040 5115 c0 -9 9 -15 23 -15 13 0 32 -9 42 -20 15 -17 31 -20 91
-20 40 0 76 -4 79 -10 4 -6 88 -10 221 -10 136 0 214 4 214 10 0 6 33 10 78
10 66 0 82 3 97 20 10 11 29 20 42 20 14 0 23 6 23 15 0 13 -57 15 -455 15
-398 0 -455 -2 -455 -15z m830 -30 c-11 -13 -65 -15 -375 -15 -310 0 -364 2
-375 15 -11 13 32 15 375 15 343 0 386 -2 375 -15z m-267 -32 c-56 -2 -151 -2
-210 0 -59 1 -13 3 102 3 116 0 164 -2 108 -3z"/>
<path d="M7002 4660 c-18 -11 -37 -32 -43 -47 -6 -17 -9 -111 -7 -241 l3 -214
33 -29 c39 -35 82 -38 129 -9 30 18 53 63 39 77 -3 4 -6 -3 -6 -14 0 -27 -54
-73 -85 -73 -38 0 -75 21 -91 51 -21 41 -20 418 1 458 27 54 111 65 151 19 17
-18 20 -44 24 -227 l6 -206 2 205 c1 217 1 219 -48 253 -32 22 -68 21 -108 -3z"/>
<path d="M5335 4571 c-16 -4 -39 -13 -51 -19 -36 -19 -92 -89 -103 -129 -6
-21 -18 -64 -26 -96 -22 -82 -82 -141 -156 -155 -30 -6 -196 -13 -369 -16
-303 -6 -317 -7 -360 -29 -25 -13 -58 -42 -75 -66 -30 -42 -30 -45 -33 -187
l-3 -144 730 0 731 0 0 425 0 425 -127 -1 c-71 -1 -141 -4 -158 -8z m275 -416
l0 -415 -720 0 -720 0 0 125 c0 85 5 136 14 158 16 39 71 92 108 106 15 6 168
13 340 16 383 8 407 12 470 74 36 36 50 60 63 106 30 112 48 150 86 186 48 47
87 57 237 58 l122 1 0 -415z"/>
<path d="M5125 4140 c-155 -156 -154 -151 -79 -214 l35 -29 144 144 c80 79
145 148 145 154 0 16 -73 85 -91 85 -8 0 -77 -63 -154 -140z m162 110 c-1 -10
-3 -17 -6 -15 -2 3 -15 -2 -28 -10 -28 -18 -32 -1 -6 27 21 24 42 23 40 -2z
m73 -49 c0 -14 -48 -53 -54 -43 -3 5 1 15 9 22 8 7 13 15 11 19 -3 4 4 8 15 8
10 1 19 -2 19 -6z m-240 -106 c0 -3 -12 -17 -27 -30 l-28 -23 30 -34 30 -33
-33 30 -34 30 -23 -27 c-26 -30 -35 -34 -35 -18 0 16 91 110 106 110 8 0 14
-2 14 -5z m0 -133 c0 -14 -46 -53 -53 -45 -4 3 3 17 15 30 22 23 38 30 38 15z"/>
<path d="M5282 4007 c-150 -150 -181 -186 -169 -195 11 -9 19 -7 37 13 13 14
33 25 45 25 26 0 255 229 255 255 0 10 9 29 21 41 19 20 19 44 1 44 -4 0 -90
-82 -190 -183z m198 165 c0 -14 -356 -363 -363 -355 -8 7 341 363 355 363 5 0
8 -3 8 -8z m-157 -203 c-60 -60 -116 -109 -124 -109 -7 0 40 54 106 120 66 66
122 115 124 109 2 -7 -46 -61 -106 -120z"/>
<path d="M4880 4000 c-14 -27 -6 -66 16 -74 27 -10 45 13 42 53 -2 28 -8 37
-25 39 -14 2 -26 -4 -33 -18z m48 -24 c5 -38 -13 -55 -34 -34 -11 11 -14 25
-10 43 9 36 40 30 44 -9z"/>
<path d="M7020 4547 c0 -13 5 -28 12 -35 7 -7 8 -16 2 -24 -8 -11 -11 -67 -5
-115 0 -6 11 -14 24 -16 19 -4 18 -4 -6 -6 l-28 -1 3 -70 c2 -71 5 -75 46 -64
24 7 33 54 10 54 -10 0 -10 2 -1 8 9 6 12 47 11 150 l-1 142 -34 0 c-28 0 -33
-4 -33 -23z m50 -101 c0 -3 -4 -8 -10 -11 -5 -3 -10 -1 -10 4 0 6 5 11 10 11
6 0 10 -2 10 -4z m-5 -56 c3 -5 1 -10 -4 -10 -6 0 -11 5 -11 10 0 6 2 10 4 10
3 0 8 -4 11 -10z"/>
<path d="M4855 4502 c-41 -22 -55 -37 -77 -82 -33 -69 -34 -82 -5 -78 17 2 26
-5 39 -30 23 -47 47 -71 90 -92 37 -18 39 -18 76 0 44 21 63 42 86 91 17 36
16 38 -7 80 -17 30 -41 53 -75 73 -37 22 -48 33 -45 47 7 27 -21 23 -82 -9z
m75 9 c0 -5 -9 -12 -19 -16 -21 -7 -131 -120 -131 -136 0 -5 -4 -9 -10 -9 -18
0 -11 17 24 63 19 25 33 48 30 51 -2 3 -1 4 2 2 3 -3 24 9 47 25 42 30 57 36
57 20z m-5 -31 c-3 -5 -11 -10 -16 -10 -6 0 -7 5 -4 10 3 6 11 10 16 10 6 0 7
-4 4 -10z m84 -46 c90 -76 41 -204 -79 -204 -76 0 -124 73 -101 151 23 76 120
104 180 53z m-199 -65 c-7 -11 -14 -18 -17 -15 -3 3 0 12 7 21 18 21 23 19 10
-6z"/>
<path d="M1070 3428 l0 -193 92 2 c51 1 99 2 106 3 8 0 12 21 12 69 0 39 5 73
10 76 13 8 13 68 1 81 -6 5 -11 41 -13 79 l-3 70 -102 3 -103 3 0 -193z m190
2 l0 -180 -90 0 -90 0 0 180 0 180 90 0 90 0 0 -180z"/>
<path d="M2532 3453 l3 -168 433 -3 432 -2 0 170 0 170 -435 0 -435 0 2 -167z
m186 145 c-2 -7 -23 -22 -45 -33 -30 -14 -44 -28 -48 -47 -4 -16 -16 -34 -27
-42 -20 -14 -20 -14 1 -35 12 -12 24 -35 28 -51 3 -16 9 -28 13 -25 12 7 67
-24 74 -41 5 -13 9 -14 21 -4 8 7 15 17 15 23 0 7 -4 7 -12 -1 -12 -12 -38 1
-38 20 0 6 6 6 14 -1 11 -9 16 -9 21 0 6 8 9 8 15 -1 5 -8 16 -9 31 -4 13 4
27 7 30 6 4 -1 9 12 12 28 4 15 16 38 28 49 l23 21 -22 20 c-12 11 -24 31 -28
43 -3 15 -18 28 -40 36 -19 7 -39 21 -44 32 -10 19 -4 19 320 19 l330 0 0
-160 0 -160 -110 0 c-60 0 -110 4 -110 8 0 5 32 39 70 76 89 86 90 101 15 176
l-55 54 -90 -89 -90 -90 60 -60 c33 -33 60 -64 60 -68 0 -4 -134 -6 -297 -5
l-298 3 -3 158 -3 157 92 0 c68 0 90 -3 87 -12z m70 -58 c23 0 28 -15 12 -40
-8 -12 -10 -10 -10 8 0 14 -5 22 -12 20 -7 -3 -21 6 -31 19 -18 23 -37 23 -37
1 0 -6 3 -8 7 -5 9 9 34 -13 27 -24 -3 -5 -11 -9 -19 -9 -19 0 -29 49 -13 67
11 13 15 12 33 -11 11 -14 31 -26 43 -26z m427 20 c4 -6 1 -17 -5 -26 -10 -11
-16 -12 -26 -3 -11 9 -11 15 -3 25 14 17 25 18 34 4z m-529 -35 c-3 -9 0 -15
10 -15 21 0 12 -24 -11 -28 -14 -3 -17 1 -13 22 3 14 1 26 -3 26 -5 0 -9 -10
-9 -22 0 -19 -2 -20 -10 -8 -17 26 -11 40 16 40 19 0 25 -4 20 -15z m115 -50
c16 -5 28 -25 15 -25 -2 0 -11 -3 -20 -6 -11 -4 -16 0 -16 14 0 11 -8 22 -20
25 -25 6 -26 24 -2 29 10 2 18 -3 20 -14 2 -9 12 -20 23 -23z m-171 0 c-10
-12 -10 -18 1 -32 13 -15 12 -15 -8 -4 -28 14 -29 26 -5 40 24 14 26 13 12 -4z
m220 -13 c0 -11 -22 -32 -33 -32 -5 0 -4 7 3 15 10 12 10 18 -1 32 -13 15 -12
15 9 4 12 -6 22 -15 22 -19z m-174 7 c10 -17 -13 -36 -27 -22 -12 12 -4 33 11
33 5 0 12 -5 16 -11z m608 -39 c-14 -14 -39 14 -29 31 5 8 12 6 23 -5 11 -11
13 -19 6 -26z m-179 0 c18 -19 30 -42 30 -60 0 -16 6 -35 13 -42 7 -7 12 -17
12 -22 0 -6 -29 18 -65 54 -61 60 -64 65 -48 82 21 24 24 23 58 -12z m-399 -2
c4 -6 2 -14 -4 -16 -7 -2 -12 -10 -12 -18 0 -8 -10 -14 -25 -14 -26 0 -32 14
-15 40 8 12 10 11 10 -7 0 -13 4 -23 9 -23 4 0 6 11 3 25 -3 18 0 25 11 25 9
0 19 -5 23 -12z m72 -13 c-3 -14 -1 -25 3 -25 5 0 9 10 9 23 0 18 2 19 10 7
17 -26 11 -40 -15 -40 -15 0 -25 6 -25 14 0 8 -5 16 -12 18 -16 6 -1 28 19 28
11 0 14 -7 11 -25z m-35 -12 c9 -9 -13 -34 -24 -27 -14 8 -11 34 4 34 8 0 17
-3 20 -7z m438 -76 c-10 -9 -11 -8 -5 6 3 10 9 15 12 12 3 -3 0 -11 -7 -18z"/>
<path d="M1705 3435 c-23 -13 -51 -42 -67 -68 l-27 -46 19 -38 c21 -44 44 -67
91 -91 32 -16 36 -16 67 0 47 23 71 47 92 91 18 37 18 38 -6 82 -17 29 -41 53
-71 69 -25 15 -48 26 -52 25 -3 0 -24 -11 -46 -24z m89 -9 c44 -19 76 -61 76
-103 0 -93 -89 -150 -170 -108 -87 45 -79 170 14 211 39 17 40 17 80 0z"/>
<path d="M1092 3204 l-22 -15 0 -680 0 -679 348 2 347 3 -342 2 -343 3 0 45 0
45 463 0 c489 0 487 0 487 -46 0 -34 -20 -43 -110 -47 l-85 -3 87 -2 c67 -2
90 1 102 14 24 23 19 60 -9 82 -23 19 -25 26 -25 111 0 139 18 131 -310 131
l-270 0 0 451 c0 494 0 497 -59 532 -20 11 -51 17 -96 17 -60 0 -69 3 -87 25
-22 29 -44 32 -76 9z m68 -14 c11 -11 20 -28 21 -37 0 -11 3 -13 6 -5 3 7 25
12 61 12 66 0 104 -9 96 -21 -3 -5 2 -9 10 -9 14 0 16 -25 16 -195 l0 -195
-80 0 -80 0 0 195 0 194 63 4 62 3 -67 2 -68 2 0 -205 0 -205 90 0 90 0 0 188
c0 124 4 182 10 172 13 -21 13 -950 0 -950 -6 0 -10 37 -10 90 l0 90 -90 0
-90 0 0 -180 0 -180 100 0 c60 0 100 -4 100 -10 0 -6 -59 -10 -160 -9 l-160 1
0 618 c0 549 2 620 16 634 21 21 40 20 64 -4z m210 -1050 l0 -170 -80 0 -80 0
0 170 0 170 80 0 80 0 0 -170z m592 3 c15 -13 18 -32 18 -110 l0 -93 -285 0
c-183 0 -285 4 -285 10 0 6 32 10 75 10 l75 0 0 90 0 90 -75 0 c-43 0 -75 4
-75 10 0 6 96 10 267 10 234 0 269 -2 285 -17z m-412 -93 l0 -80 -85 0 -85 0
0 80 0 80 85 0 85 0 0 -80z"/>
<path d="M1200 2530 l0 -190 90 0 90 0 -2 193 -3 192 -2 -187 -3 -188 -80 0
-80 0 0 180 0 179 78 4 77 3 -82 2 -83 2 0 -190z"/>
<path d="M1570 2050 l0 -90 190 0 190 0 0 90 0 90 -190 0 -190 0 0 -90z m370
0 l0 -80 -180 0 -180 0 0 80 0 80 180 0 180 0 0 -80z"/>
<path d="M1688 3126 c-26 -7 -55 -19 -65 -26 -52 -39 -78 -70 -99 -115 -23
-48 -24 -58 -23 -295 0 -264 4 -290 53 -355 116 -152 378 -110 440 72 21 62
23 497 2 556 -29 80 -111 155 -177 161 -19 2 -24 1 -13 -1 49 -10 129 -69 159
-117 l30 -49 3 -253 c3 -242 2 -255 -19 -304 -39 -90 -128 -150 -224 -150 -68
0 -117 22 -171 75 -72 72 -76 92 -72 386 l3 246 30 49 c36 57 99 100 177 119
29 7 44 13 33 13 -11 0 -41 -5 -67 -12z"/>
<path d="M1656 3060 c-98 -30 -122 -152 -45 -226 28 -27 36 -29 124 -32 117
-5 157 11 187 73 37 75 -2 163 -80 185 -44 12 -145 12 -186 0z m173 -6 c42 -9
89 -56 96 -98 9 -45 -16 -101 -57 -126 -47 -29 -189 -29 -236 0 -86 53 -73
173 23 216 32 14 122 18 174 8z"/>
<path d="M1725 3019 c-11 -6 -30 -23 -42 -38 l-23 -26 0 28 c0 16 -4 26 -10
22 -5 -3 -10 -35 -10 -71 0 -50 3 -64 15 -64 8 0 15 5 15 11 0 6 14 -1 31 -15
35 -29 76 -33 118 -11 33 17 41 33 41 84 0 64 -80 111 -135 80z m105 -39 c27
-37 25 -62 -6 -99 -50 -59 -144 -26 -144 50 0 32 32 79 54 79 5 0 0 -9 -12
-20 -30 -28 -38 -65 -19 -94 38 -58 119 -33 125 38 3 31 -1 38 -27 54 -35 19
-41 33 -11 25 11 -3 29 -18 40 -33z m-40 -49 c0 -12 -20 -25 -27 -18 -7 7 6
27 18 27 5 0 9 -4 9 -9z"/>
<path d="M2149 3035 c-53 -30 -68 -44 -89 -87 l-19 -39 28 -47 c18 -32 42 -55
71 -70 l44 -23 45 23 c31 16 53 38 72 70 l28 47 -19 36 c-26 50 -36 61 -83 88
l-42 23 -36 -21z m91 -20 c65 -33 79 -122 30 -179 -94 -106 -250 7 -185 134
28 55 98 75 155 45z"/>
<path d="M4150 2629 l0 -381 -712 2 c-392 2 -795 2 -896 1 l-182 -1 2 -217 3
-218 1100 0 1100 0 1 345 c0 190 -1 317 -3 283 -2 -35 -8 -63 -14 -63 -6 0
-27 11 -47 25 -20 14 -41 25 -47 25 -5 0 -3 -4 5 -10 12 -7 12 -12 0 -34 -16
-30 -27 -33 -33 -8 -4 14 -5 14 -6 1 0 -9 18 -29 41 -44 l41 -27 18 23 c10 13
19 27 19 32 0 4 5 7 10 7 7 0 9 -93 8 -272 l-3 -273 -1090 0 -1090 0 -3 208
-2 207 895 0 895 0 0 380 0 380 198 -2 197 -3 5 -245 6 -245 2 253 2 252 -210
0 -210 0 0 -381z"/>
<path d="M4240 2607 c0 -7 18 -23 40 -36 22 -12 40 -28 40 -35 0 -14 96 -66
121 -66 37 0 22 17 -74 81 -103 69 -127 80 -127 56z m150 -83 c22 -15 38 -29
36 -32 -8 -7 -79 33 -84 46 -6 18 4 15 48 -14z"/>
<path d="M2168 2593 c-1 -5 -20 -17 -41 -28 -41 -21 -100 -110 -82 -123 6 -4
18 -23 29 -43 10 -22 33 -45 55 -55 20 -11 39 -22 42 -27 7 -9 67 19 97 47 28
25 65 97 55 105 -5 3 -16 23 -25 44 -12 25 -30 43 -55 55 -21 9 -39 20 -41 25
-2 4 -10 7 -17 7 -7 0 -15 -3 -17 -7z m98 -57 c29 -29 34 -41 34 -80 0 -67
-38 -107 -108 -114 -49 -4 -54 -2 -87 31 -30 30 -35 42 -35 82 0 40 5 52 34
81 29 29 41 34 81 34 40 0 52 -5 81 -34z"/>
<path d="M1653 2569 c-40 -12 -79 -57 -87 -104 -9 -47 17 -102 64 -133 32 -21
44 -23 132 -20 91 3 99 5 127 32 16 15 35 41 41 57 26 63 -19 149 -88 169 -45
12 -145 12 -189 -1z m225 -28 c67 -48 64 -151 -7 -198 -29 -20 -47 -23 -120
-23 -101 0 -143 19 -167 76 -27 63 -2 125 61 156 57 27 188 21 233 -11z"/>
<path d="M1694 2531 c-33 -14 -54 -51 -54 -92 0 -29 7 -43 31 -63 43 -37 91
-35 131 4 35 35 38 36 38 10 0 -11 5 -20 10 -20 6 0 10 30 10 70 0 56 -3 70
-15 70 -8 0 -15 -5 -15 -12 0 -6 -11 -2 -24 11 -26 25 -80 35 -112 22z m87
-18 c40 -24 52 -63 31 -104 -9 -18 -23 -35 -31 -37 -10 -3 -7 5 7 23 27 35 28
69 2 95 -45 45 -124 10 -118 -53 2 -23 12 -38 37 -54 28 -19 30 -23 13 -23
-21 0 -57 37 -67 71 -9 26 15 71 45 86 33 17 46 16 81 -4z m-41 -53 c0 -5 -2
-10 -4 -10 -3 0 -8 5 -11 10 -3 6 -1 10 4 10 6 0 11 -4 11 -10z"/>
<path d="M4240 2523 c1 -18 19 -32 95 -75 84 -48 135 -55 68 -10 -21 14 -40
28 -43 31 -33 39 -120 78 -120 54z"/>
<path d="M2667 2212 c-14 -16 -17 -44 -17 -185 0 -160 1 -166 22 -181 18 -13
56 -16 209 -16 173 0 188 1 213 21 l26 20 0 160 c0 214 18 199 -238 199 -180
0 -200 -2 -215 -18z m425 -9 c16 -14 18 -34 18 -174 0 -152 -1 -158 -22 -173
-33 -24 -389 -23 -412 0 -13 13 -16 44 -16 178 0 113 4 166 12 174 9 9 69 12
207 12 167 0 197 -2 213 -17z"/>
<path d="M2727 2180 c-30 -24 -34 -55 -12 -87 14 -20 61 -41 49 -22 -3 5 -12
9 -19 9 -20 0 -38 38 -31 66 4 14 17 30 31 36 58 26 105 -60 53 -96 -12 -9
-18 -16 -12 -16 19 0 44 36 44 61 0 57 -58 84 -103 49z"/>
<path d="M2952 2168 c-20 -20 -14 -66 9 -79 33 -17 69 3 69 39 0 33 -16 52
-45 52 -12 0 -26 -5 -33 -12z m58 -13 c26 -31 -13 -82 -44 -56 -19 16 -21 57
-3 64 22 9 34 7 47 -8z"/>
<path d="M2954 2030 c-55 -22 -70 -95 -29 -135 51 -52 145 -16 145 54 0 57
-66 102 -116 81z m89 -32 c39 -46 3 -118 -59 -118 -58 0 -91 59 -63 111 22 42
89 46 122 7z"/>
<path d="M2717 2002 c-39 -43 -7 -122 48 -122 30 0 75 41 75 68 0 11 -9 31
-21 46 -25 32 -77 36 -102 8z m97 -14 c21 -30 20 -54 -4 -78 -41 -41 -100 -13
-100 46 0 54 73 76 104 32z"/>
<path d="M3814 2211 c-47 -29 -56 -63 -52 -195 3 -115 3 -116 36 -148 l32 -33
238 -1 c130 0 177 1 105 3 -73 2 -133 6 -133 10 0 3 8 12 18 19 10 8 12 13 5
14 -30 0 -10 20 20 20 18 0 38 5 45 12 17 17 17 259 0 276 -8 8 -59 12 -163
12 -100 0 -145 4 -135 10 20 13 487 13 495 0 4 -6 -23 -10 -72 -10 l-79 0 1
-170 0 -170 80 0 c55 0 75 -3 65 -10 -8 -5 -10 -10 -4 -10 24 0 64 42 74 78
15 54 12 197 -4 236 -7 18 -26 42 -41 54 -27 21 -37 22 -264 22 -213 0 -239
-2 -267 -19z m311 -161 l0 -135 -72 -3 c-40 -2 -73 -7 -73 -12 0 -4 10 -6 23
-2 19 5 20 3 9 -10 -9 -11 -10 -18 -2 -23 24 -15 6 -25 -45 -25 -53 0 -72 11
-39 24 13 5 14 9 4 21 -10 12 -10 15 3 15 8 0 17 -9 20 -20 5 -21 27 -28 27
-9 0 5 -4 7 -10 4 -6 -4 -10 12 -10 40 0 28 4 44 10 40 6 -3 10 -12 10 -19 0
-17 109 -4 121 15 5 8 9 53 9 101 0 117 -1 118 -145 118 -140 0 -145 -4 -145
-120 0 -100 13 -120 81 -120 27 0 49 -4 49 -10 0 -14 -123 -13 -138 2 -17 17
-17 239 0 256 9 9 54 12 163 10 l150 -3 0 -135z m-322 -137 c5 -7 26 -13 49
-13 34 0 38 -2 29 -14 -8 -10 -9 -16 -1 -21 15 -9 12 -25 -5 -25 -29 0 -75 30
-90 60 -11 20 -15 60 -15 134 0 152 14 163 20 16 3 -69 9 -131 13 -137z m582
117 c0 -82 -4 -123 -12 -132 -10 -10 -13 17 -13 132 0 115 2 141 13 131 8 -8
12 -49 12 -131z m-297 118 c16 -16 16 -180 0 -196 -19 -19 -95 -15 -107 6 -10
16 -12 16 -25 0 -20 -26 -102 -25 -116 1 -17 32 -13 167 6 185 20 20 223 23
242 4z"/>
<path d="M3950 2035 c-15 -18 -5 -35 21 -35 12 0 19 7 19 19 0 24 -25 34 -40
16z m30 -16 c0 -5 -7 -9 -15 -9 -15 0 -20 12 -9 23 8 8 24 -1 24 -14z"/>
<path d="M3280 2087 c-37 -18 -55 -61 -40 -96 12 -29 46 -51 79 -51 25 0 71
38 70 58 0 12 -3 11 -9 -5 -14 -34 -19 -28 -13 16 4 32 2 41 -18 55 -13 9 -19
16 -14 16 18 0 34 -15 44 -40 9 -23 10 -23 10 -4 2 42 -65 73 -109 51z m29
-16 c11 -7 9 -11 -8 -20 -11 -7 -21 -22 -22 -34 -1 -21 -1 -21 -9 3 l-8 25 -1
-26 c-1 -32 20 -52 45 -43 16 5 17 4 4 -6 -12 -9 -8 -11 20 -6 25 4 31 3 20
-4 -24 -16 -52 -12 -77 12 -27 25 -29 54 -7 86 17 24 22 26 43 13z m31 -50 c0
-27 -19 -36 -37 -18 -18 18 -9 37 18 37 12 0 19 -7 19 -19z"/>
<path d="M3275 2059 c-11 -17 1 -21 15 -4 8 9 8 15 2 15 -6 0 -14 -5 -17 -11z"/>
<path d="M4739 3611 l-29 -29 0 -181 0 -181 28 -31 c64 -72 172 -21 172 82 0
19 5 29 15 29 10 0 15 -10 15 -30 l0 -30 148 0 c169 0 214 13 249 71 44 73 37
142 -19 196 -45 44 -101 55 -249 51 l-124 -3 -3 -27 c-5 -39 -32 -37 -32 2 0
38 -24 86 -49 100 -39 20 -91 12 -122 -19z m135 -12 c26 -30 26 -33 26 -196 0
-186 -2 -192 -70 -192 -78 0 -90 31 -90 230 0 182 2 188 72 189 28 0 42 -7 62
-31z m-110 -376 c23 -20 38 -24 73 -21 52 4 56 -8 8 -28 -30 -12 -39 -12 -69
0 -19 8 -39 23 -45 34 -7 13 -10 85 -9 194 l2 173 5 -163 6 -164 29 -25z m216
191 l0 -125 153 3 c83 2 161 8 172 13 18 8 19 7 5 -10 -30 -36 -74 -45 -220
-45 l-140 0 0 143 c0 79 3 147 6 150 18 18 24 -15 24 -129z m300 111 c48 -28
84 -100 74 -150 -11 -60 -56 -75 -226 -75 l-138 0 0 126 0 126 128 -3 c105 -3
133 -7 162 -24z m-340 -125 c0 -73 -3 -90 -15 -90 -12 0 -15 17 -15 90 0 73 3
90 15 90 12 0 15 -17 15 -90z"/>
<path d="M4771 3421 c-21 -39 20 -82 60 -61 15 9 19 19 17 43 -3 28 -7 32 -35
35 -23 2 -34 -2 -42 -17z m67 -17 c4 -25 -19 -47 -41 -38 -22 8 -30 34 -16 51
17 20 53 12 57 -13z"/>
<path d="M6680 3536 l0 -94 58 -5 c31 -3 113 -5 182 -4 88 1 107 3 65 6 l-60
6 -3 68 -3 68 77 -3 78 -3 -3 -65 c-1 -36 -8 -69 -14 -73 -8 -6 -5 -7 6 -3 10
3 27 6 38 6 17 0 19 8 19 95 l0 95 -220 0 -220 0 0 -94z m430 74 c0 -6 -77
-10 -210 -10 -133 0 -210 4 -210 10 0 6 77 10 210 10 133 0 210 -4 210 -10z
m-413 -127 c-2 -21 -4 -4 -4 37 0 41 2 58 4 38 2 -21 2 -55 0 -75z m213 43 c0
-36 -4 -68 -10 -71 -6 -4 -10 15 -10 49 0 30 -3 61 -6 70 -4 11 -1 16 10 16
13 0 16 -12 16 -64z m200 -1 c0 -37 -4 -65 -10 -65 -11 0 -14 113 -3 123 12
13 13 7 13 -58z m-232 -9 c4 -70 -2 -76 -75 -76 -79 0 -83 4 -83 69 0 32 3 61
7 65 4 4 39 5 78 4 l70 -3 3 -59z"/>
<path d="M7164 3278 c-53 -17 -125 -80 -157 -137 -23 -41 -31 -69 -34 -125 -3
-39 0 -82 5 -96 7 -18 8 -6 5 46 -10 142 60 254 192 304 l25 10 0 -109 c0
-104 -1 -109 -20 -104 -18 5 -20 14 -20 79 0 41 -3 74 -8 74 -4 0 -25 -14 -46
-32 -114 -94 -114 -292 0 -386 21 -18 42 -32 46 -32 5 0 8 34 8 75 0 58 3 75
14 75 8 0 17 6 19 13 3 6 6 -41 6 -105 l1 -118 -25 10 c-71 27 -123 71 -164
140 -11 19 -21 30 -21 24 0 -20 58 -101 86 -121 34 -24 80 -48 112 -57 l22 -7
0 295 c0 163 -3 296 -7 295 -5 -1 -22 -6 -39 -11z m-14 -165 c0 -83 -2 -89
-24 -99 -13 -6 -30 -8 -37 -3 -16 10 -29 2 -29 -17 0 -10 8 -14 23 -13 12 2
29 -1 37 -6 12 -7 13 -6 3 7 -16 19 -7 28 29 28 30 0 38 -17 13 -26 -12 -5
-15 -26 -15 -100 0 -52 -4 -94 -8 -94 -17 0 -76 66 -93 105 -24 53 -24 147 0
200 18 41 75 105 92 105 5 0 9 -39 9 -87z m50 -114 c0 -22 -4 -38 -8 -35 -6 4
-7 26 -3 69 1 4 3 7 6 7 3 0 5 -18 5 -41z"/>
<path d="M4687 3073 c-4 -3 -7 -120 -7 -260 l0 -253 109 0 110 0 2 28 c1 15 1
68 1 117 0 50 1 99 1 110 4 77 1 233 -5 248 -6 14 -21 17 -106 17 -54 0 -102
-3 -105 -7z m33 -259 c0 -210 -2 -244 -15 -244 -13 0 -15 34 -15 243 0 134 3
247 6 250 20 19 24 -27 24 -249z m165 246 c4 -6 -23 -10 -74 -10 -47 0 -81 4
-81 10 0 6 31 10 74 10 41 0 78 -4 81 -10z m10 -125 l0 -90 -77 -3 -78 -3 0
89 c0 49 3 92 7 96 4 4 39 5 78 4 l70 -3 0 -90z m-10 -115 c4 -6 -20 -10 -64
-10 -38 0 -72 -4 -75 -8 -2 -4 24 -6 60 -4 85 6 94 -2 94 -88 0 -100 0 -100
-81 -100 -47 0 -71 4 -74 13 -2 6 -5 56 -8 110 l-4 97 73 0 c40 0 76 -4 79
-10z m0 -240 c4 -6 -23 -10 -74 -10 -47 0 -81 4 -81 10 0 6 31 10 74 10 41 0
78 -4 81 -10z"/>
<path d="M5918 2859 c-105 -55 -101 -222 6 -273 51 -24 531 -24 582 0 49 23
77 68 81 128 5 65 -19 113 -73 143 -38 22 -48 23 -299 22 -239 0 -263 -1 -297
-20z m582 -7 c102 -51 106 -192 8 -252 -31 -19 -51 -20 -293 -20 -242 0 -262
1 -293 20 -98 60 -94 201 8 252 31 16 67 18 285 18 218 0 254 -2 285 -18z"/>
<path d="M4708 2469 c-17 -9 -18 -35 -18 -307 0 -219 3 -301 12 -310 17 -17
549 -17 566 0 9 9 12 91 12 310 0 284 -1 298 -19 308 -26 13 -530 13 -553 -1z
m551 -13 c8 -9 11 -99 9 -307 l-3 -294 -280 0 -280 0 -3 294 c-2 208 1 298 9
307 9 11 64 14 274 14 210 0 265 -3 274 -14z"/>
<path d="M5350 2145 l0 -305 930 0 930 0 0 305 0 305 -930 0 -930 0 0 -305z
m1648 123 c-1 -95 -3 -145 -5 -110 -4 66 -19 86 -48 62 -13 -11 -15 -1 -15 73
0 81 -2 87 -26 106 -25 20 -38 21 -198 19 l-171 -2 178 -6 c217 -6 207 1 207
-142 0 -91 -1 -98 -20 -98 -18 0 -20 8 -22 98 l-3 97 -155 0 -155 1 153 -3
152 -4 0 -93 c0 -85 -2 -94 -20 -99 -19 -5 -20 0 -20 74 l0 79 -142 -2 -143
-2 138 -3 137 -4 0 -164 0 -164 -357 6 c-197 3 -356 3 -353 1 3 -3 166 -8 363
-11 l357 -6 0 83 c0 79 1 84 20 79 18 -5 20 -14 20 -104 l0 -99 -382 4 -383 5
375 -10 c206 -5 381 -7 388 -4 8 3 12 34 12 105 0 93 1 100 20 100 19 0 20 -7
20 -105 0 -159 42 -146 -442 -139 -222 4 -401 5 -398 2 3 -3 184 -8 403 -12
l398 -6 25 25 c22 22 24 32 24 111 0 78 2 85 16 73 12 -10 20 -10 35 -1 18 12
19 8 19 -108 l0 -120 -820 0 -820 0 0 295 0 295 820 0 820 0 -2 -172z m201
100 l-1 -73 -15 38 c-10 24 -22 37 -35 37 -26 0 -30 -18 -14 -65 14 -39 38
-56 51 -36 3 6 0 8 -8 5 -20 -7 -33 16 -16 27 10 6 11 9 2 9 -7 0 -13 6 -13
13 1 6 12 -1 25 -18 24 -29 24 -32 25 -242 l0 -213 -95 0 -95 0 0 205 c0 113
3 205 6 205 3 0 12 -7 20 -15 40 -40 109 9 86 60 -15 32 -57 43 -81 21 -10 -9
-21 -16 -24 -16 -4 0 -7 29 -7 65 l0 65 95 0 95 0 -1 -72z m-35 -17 c3 -5 -1
-12 -10 -15 -22 -9 -24 -8 -24 9 0 16 25 21 34 6z m-59 -41 c37 -41 -24 -97
-63 -58 -18 18 -15 55 6 67 25 15 37 13 57 -9z m-155 -124 c0 -3 -4 -8 -10
-11 -5 -3 -10 -1 -10 4 0 6 5 11 10 11 6 0 10 -2 10 -4z m20 -36 c0 -6 -27
-10 -60 -10 -33 0 -60 4 -60 10 0 6 27 10 60 10 33 0 60 -4 60 -10z m-25 -30
c3 -5 1 -10 -4 -10 -6 0 -11 5 -11 10 0 6 2 10 4 10 3 0 8 -4 11 -10z"/>
<path d="M6142 2403 c70 -2 187 -2 260 0 73 1 16 3 -127 3 -143 0 -203 -2
-133 -3z"/>
<path d="M5619 2386 c-59 -21 -105 -54 -131 -93 -75 -113 -59 -246 41 -336 64
-58 114 -67 340 -65 l196 2 -215 6 c-165 4 -223 9 -250 21 -154 70 -197 260
-87 386 61 69 89 77 307 84 l195 5 -180 2 c-125 1 -191 -3 -216 -12z"/>
<path d="M6142 2353 c70 -2 187 -2 260 0 73 1 16 3 -127 3 -143 0 -203 -2
-133 -3z"/>
<path d="M5615 2331 c-139 -65 -166 -238 -52 -338 54 -47 90 -53 312 -51 l200
2 -215 6 c-192 4 -219 7 -255 26 -108 56 -137 201 -58 295 49 58 70 63 278 70
l190 5 -180 2 c-157 1 -185 -1 -220 -17z"/>
<path d="M6143 2303 c76 -2 198 -2 270 0 73 1 11 3 -138 3 -148 0 -208 -2
-132 -3z"/>
<path d="M5635 2286 c-37 -16 -82 -67 -91 -102 -15 -59 12 -126 70 -168 26
-20 41 -21 249 -22 l222 0 -215 5 c-179 5 -220 9 -247 24 -90 49 -95 179 -10
241 25 19 47 22 210 27 l182 5 -170 2 c-122 1 -179 -3 -200 -12z"/>
<path d="M6722 2148 c2 -15 10 -23 23 -23 13 0 21 8 23 23 3 18 -1 22 -23 22
-22 0 -26 -4 -23 -22z m38 -3 c0 -8 -7 -15 -15 -15 -8 0 -15 7 -15 15 0 8 7
15 15 15 8 0 15 -7 15 -15z"/>
<path d="M7053 2404 c-8 -22 10 -49 32 -49 10 0 22 7 28 16 15 24 1 49 -28 49
-15 0 -28 -7 -32 -16z m55 -17 c4 -20 -25 -34 -40 -19 -15 15 -1 44 19 40 10
-2 19 -11 21 -21z"/>
<path d="M7072 2389 c2 -6 8 -10 13 -10 5 0 11 4 13 10 2 6 -4 11 -13 11 -9 0
-15 -5 -13 -11z"/>
<path d="M7130 2195 c-18 -22 -1 -50 31 -50 20 0 24 5 24 30 0 23 -5 31 -21
33 -11 2 -27 -4 -34 -13z m46 -22 c3 -17 -1 -23 -15 -23 -24 0 -35 15 -27 36
9 22 38 13 42 -13z"/>
<path d="M7145 2181 c-6 -11 13 -26 22 -17 4 3 0 6 -8 6 -11 0 -11 2 1 10 9 6
10 10 3 10 -6 0 -14 -4 -18 -9z"/>
<path d="M7121 2086 c-8 -9 -11 -48 -9 -111 2 -80 6 -100 21 -109 12 -8 22 -8
35 0 14 9 18 29 20 109 3 101 -4 125 -38 125 -10 0 -23 -6 -29 -14z m48 -10
c8 -9 11 -47 9 -107 -3 -83 -5 -94 -22 -97 -29 -6 -36 15 -36 109 0 98 18 133
49 95z"/>
<path d="M7054 2295 c-7 -18 3 -35 21 -35 21 0 28 19 15 35 -16 19 -29 19 -36
0z m28 -10 c0 -5 -5 -11 -11 -13 -6 -2 -11 4 -11 13 0 9 5 15 11 13 6 -2 11
-8 11 -13z"/>
</g>
</svg>
