<?xml version="1.0" encoding="utf-8"?>
<!-- Generator: Adobe Illustrator 23.0.2, SVG Export Plug-In . SVG Version: 6.00 Build 0)  -->
<svg xmlns="http://www.w3.org/2000/svg" xmlns:xlink="http://www.w3.org/1999/xlink" version="1.1" x="0px" y="0px" viewBox="0 0 800 800" enable-background="new 0 0 800 800" xml:space="preserve">
<g id="bg">
	<path fill="#FEFCF9" d="M104.7,106.3v104.6H90.8v394.9H304v127.6H705V120.5c0-15.2-12.3-27.5-27.5-27.5H310.8v13.3H104.7z"/>
</g>
<g id="Слой_1">
	<rect x="682.8" y="667.7" fill="#2B2A29" stroke="#2B2A29" stroke-miterlimit="10" width="30.4" height="74"/>
	<rect x="682.8" y="317.4" fill="#2B2A29" stroke="#2B2A29" stroke-miterlimit="10" width="30.4" height="167.2"/>
	<rect x="682.8" y="152.9" fill="#2B2A29" stroke="#2B2A29" stroke-miterlimit="10" width="30.4" height="44"/>
	<rect x="100.8" y="92.9" fill="#2B2A29" stroke="#2B2A29" stroke-miterlimit="10" width="31" height="31"/>
	<rect x="313.4" y="92.9" fill="#2B2A29" stroke="#2B2A29" stroke-miterlimit="10" width="114.6" height="31"/>
	<rect x="550.6" y="92.9" fill="#2B2A29" stroke="#2B2A29" stroke-miterlimit="10" width="36.8" height="31"/>
	<path fill="#2B2A29" stroke="#2B2A29" stroke-miterlimit="10" d="M713.3,152.9v-17.6c0-23.4-19-42.4-42.4-42.4h-83.5v31h84   c6.3,0,11.5,5.1,11.5,11.5v17.5H713.3z"/>
	<rect x="293.6" y="725.3" fill="#2B2A29" stroke="#2B2A29" stroke-miterlimit="10" width="389.2" height="16.3"/>
	<path fill="#2B2A29" stroke="#2B2A29" stroke-miterlimit="10" d="M480,707.3v-30.9h-29.6v30.9H480z M462.9,690.5h-8.7v-10.9h8.7   V690.5z M462.9,702.9h-8.7v-8.7h8.7V702.9z M477.6,702.9h-9.4v-22.7h9.4V702.9z"/>
	<path fill="#2B2A29" stroke="#2B2A29" stroke-miterlimit="10" d="M450.4,647v29.5H480V647H450.4z M467.5,663h8.7v10.4h-8.7V663z    M467.5,651.2h8.7v8.3h-8.7V651.2z M452.8,651.2h9.4v21.7h-9.4V651.2z"/>
	<path fill="#2B2A29" stroke="#2B2A29" stroke-miterlimit="10" d="M130.5,458.7h-30.2v28.7h30.2V458.7z M114.1,475.4v8.4h-10.6v-8.4   H114.1z M126.2,475.4v8.4h-8.5v-8.4H126.2z M126.2,461.1v9.2H104v-9.2H126.2z"/>
	<rect x="476.2" y="707.3" fill="#2B2A29" stroke="#2B2A29" stroke-miterlimit="10" width="3.8" height="18"/>
	<rect x="444.8" y="547.8" fill="#2B2A29" stroke="#2B2A29" stroke-miterlimit="10" width="5.6" height="177.6"/>
	<rect x="293.6" y="593.2" fill="#2B2A29" stroke="#2B2A29" stroke-miterlimit="10" width="17.2" height="132.2"/>
	<rect x="414.2" y="593.2" fill="#2B2A29" stroke="#2B2A29" stroke-miterlimit="10" width="30.6" height="6.8"/>
	<rect x="310.8" y="593.2" fill="#2B2A29" stroke="#2B2A29" stroke-miterlimit="10" width="56.9" height="6.8"/>
	<rect x="425" y="341.2" fill="#2B2A29" stroke="#2B2A29" stroke-miterlimit="10" width="257.9" height="4.8"/>
	<rect x="444.8" y="346" fill="#2B2A29" stroke="#2B2A29" stroke-miterlimit="10" width="5.6" height="148.5"/>
	<rect x="313.4" y="123.9" fill="#2B2A29" stroke="#2B2A29" stroke-miterlimit="10" width="43.6" height="9.6"/>
	<rect x="330" y="133.5" fill="#2B2A29" stroke="#2B2A29" stroke-miterlimit="10" width="27.1" height="90.2"/>
	<rect x="253.9" y="207.1" fill="#2B2A29" stroke="#2B2A29" stroke-miterlimit="10" width="76.1" height="16.6"/>
	<rect x="249.1" y="196.6" fill="#2B2A29" stroke="#2B2A29" stroke-miterlimit="10" width="80.9" height="10.4"/>
	<rect x="351.7" y="223.7" fill="#2B2A29" stroke="#2B2A29" stroke-miterlimit="10" width="5.4" height="155.6"/>
	<rect x="357" y="341.2" fill="#2B2A29" stroke="#2B2A29" stroke-miterlimit="10" width="13" height="4.8"/>
	<rect x="351.7" y="433.4" fill="#2B2A29" stroke="#2B2A29" stroke-miterlimit="10" width="5.4" height="30.2"/>
	<rect x="188.2" y="458.7" fill="#2B2A29" stroke="#2B2A29" stroke-miterlimit="10" width="163.5" height="4.8"/>
	<rect x="83.7" y="593.2" fill="#2B2A29" stroke="#2B2A29" stroke-miterlimit="10" width="142.6" height="16.9"/>
	<rect x="226.3" y="605.8" fill="#2B2A29" stroke="#2B2A29" stroke-miterlimit="10" width="7.3" height="4.2"/>
	<rect x="287.1" y="605.8" fill="#2B2A29" stroke="#2B2A29" stroke-miterlimit="10" width="6.5" height="4.2"/>
	<rect x="219.8" y="463.5" fill="#2B2A29" stroke="#2B2A29" stroke-miterlimit="10" width="6.5" height="129.6"/>
	<rect x="130.5" y="458.7" fill="#2B2A29" stroke="#2B2A29" stroke-miterlimit="10" width="7.9" height="4.8"/>
	<rect x="83.7" y="223.7" fill="#2B2A29" stroke="#2B2A29" stroke-miterlimit="10" width="16.6" height="369.5"/>
	<rect x="83.7" y="207.1" fill="#2B2A29" stroke="#2B2A29" stroke-miterlimit="10" width="58.8" height="16.1"/>
	<rect x="83.7" y="196.6" fill="#2B2A29" stroke="#2B2A29" stroke-miterlimit="10" width="62.6" height="10.4"/>
	<rect x="100.8" y="123.9" fill="#2B2A29" stroke="#2B2A29" stroke-miterlimit="10" width="7.9" height="72.7"/>
	<polygon fill="#2B2A29" points="550.6,97.1 548.4,97.1 548.4,91.5 430.2,45.5 430.2,97.1 428.1,97.1 428.1,41.7 550.6,89.3  "/>
	<line fill="none" stroke="#2B2A29" stroke-width="1.5" stroke-miterlimit="10" x1="239" y1="636.6" x2="287.1" y2="610.1"/>
	<line fill="none" stroke="#2B2A29" stroke-width="1.5" stroke-miterlimit="10" x1="207.1" y1="232.7" x2="251.4" y2="207.1"/>
	<line fill="none" stroke="#2B2A29" stroke-width="1.5" stroke-miterlimit="10" x1="416.2" y1="315.6" x2="370" y2="341.2"/>
	<line fill="none" stroke="#2B2A29" stroke-width="1.5" stroke-miterlimit="10" x1="327.2" y1="388" x2="352.8" y2="433.4"/>
	<line fill="none" stroke="#2B2A29" stroke-width="1.5" stroke-miterlimit="10" x1="476.2" y1="539.1" x2="447.6" y2="494.5"/>
	<line fill="none" stroke="#2B2A29" stroke-width="1.5" stroke-miterlimit="10" x1="372.5" y1="570.6" x2="414.2" y2="594.3"/>
	<line fill="none" stroke="#2B2A29" stroke-width="1.5" stroke-miterlimit="10" x1="180.6" y1="435.9" x2="138.3" y2="461.1"/>
	<rect x="428.1" y="97.1" fill="#FEFCF9" stroke="#2B2A29" stroke-miterlimit="10" width="122.5" height="9.1"/>
	<rect x="428.1" y="106.3" fill="#FEFCF9" stroke="#2B2A29" stroke-miterlimit="10" width="122.5" height="5.3"/>
	<rect x="428.1" y="111.5" fill="#FEFCF9" stroke="#2B2A29" stroke-miterlimit="10" width="122.5" height="12.4"/>
	
		<rect x="644.6" y="252.5" transform="matrix(-1.836970e-16 1 -1 -1.836970e-16 962.0839 -448.0106)" fill="#FEFCF9" stroke="#2B2A29" stroke-miterlimit="10" width="120.8" height="9.1"/>
	
		<rect x="637.5" y="254.4" transform="matrix(-1.836970e-16 1 -1 -1.836970e-16 954.8973 -440.824)" fill="#FEFCF9" stroke="#2B2A29" stroke-miterlimit="10" width="120.8" height="5.3"/>
	
		<rect x="628.6" y="250.8" transform="matrix(-1.836970e-16 1 -1 -1.836970e-16 946.0668 -431.9935)" fill="#FEFCF9" stroke="#2B2A29" stroke-miterlimit="10" width="120.8" height="12.4"/>
	
		<rect x="613.5" y="571.6" transform="matrix(-1.836970e-16 1 -1 -1.836970e-16 1281.2042 -128.8898)" fill="#FEFCF9" stroke="#2B2A29" stroke-miterlimit="10" width="183" height="9.1"/>
	
		<rect x="606.4" y="573.5" transform="matrix(-1.836970e-16 1 -1 -1.836970e-16 1274.0177 -121.7032)" fill="#FEFCF9" stroke="#2B2A29" stroke-miterlimit="10" width="183" height="5.3"/>
	
		<rect x="597.5" y="570" transform="matrix(-1.836970e-16 1 -1 -1.836970e-16 1265.1871 -112.8727)" fill="#FEFCF9" stroke="#2B2A29" stroke-miterlimit="10" width="183" height="12.4"/>
	<rect x="131.8" y="106.3" fill="#FEFCF9" stroke="#2B2A29" stroke-miterlimit="10" width="181.7" height="5.3"/>
	<rect x="142.5" y="207.1" fill="#FEFCF9" stroke="#2B2A29" stroke-miterlimit="10" width="55.4" height="5"/>
	<rect x="146.2" y="196.6" fill="#FEFCF9" stroke="#2B2A29" stroke-miterlimit="10" width="46.2" height="10.4"/>
	<rect x="142.5" y="212" fill="#FEFCF9" stroke="#2B2A29" stroke-miterlimit="10" width="50" height="11.1"/>
	<rect x="319.1" y="463.5" fill="#2B2A29" stroke="#2B2A29" stroke-miterlimit="10" width="43.9" height="43.9"/>
</g>
<g id="furniture">
	<g>
		<path opacity="0.5" fill="none" stroke="#2B2A29" stroke-miterlimit="10" enable-background="new    " d="M137.3,493.1h-35v33.8    h35V493.1z"/>
		<path opacity="0.5" fill="none" stroke="#2B2A29" stroke-miterlimit="10" enable-background="new    " d="M119.8,515.9    c3.2,0,5.9-2.6,5.9-5.9c0-3.2-2.6-5.9-5.9-5.9s-5.9,2.6-5.9,5.9C113.9,513.3,116.5,515.9,119.8,515.9z"/>
		<path opacity="0.5" fill="none" stroke="#2B2A29" stroke-miterlimit="10" enable-background="new    " d="M116.1,497.9l-1.6,9.6"/>
		<path opacity="0.5" fill="none" stroke="#2B2A29" stroke-miterlimit="10" enable-background="new    " d="M132.3,506.7l-9.7-1.8"/>
		<path opacity="0.5" fill="none" stroke="#2B2A29" stroke-miterlimit="10" enable-background="new    " d="M123.4,523l2.2-12.3"/>
		<path opacity="0.5" fill="none" stroke="#2B2A29" stroke-miterlimit="10" enable-background="new    " d="M107.4,514l12.1,1.9"/>
	</g>
	<g>
		
			<path opacity="0.5" fill="none" stroke="#2B2A29" stroke-linecap="round" stroke-linejoin="round" enable-background="new    " d="    M335.8,716.3v7.5h3.2v-7.5H335.8z"/>
		<path opacity="0.5" fill="none" stroke="#2B2A29" stroke-miterlimit="10" enable-background="new    " d="M312.5,610.6v114.2h49.7    V610.6H312.5z"/>
		<path opacity="0.5" fill="none" stroke="#2B2A29" stroke-miterlimit="10" enable-background="new    " d="M357.9,721    c-0.5,0.5-1.1,0.7-1.8,0.7h-37.5c-0.7,0-1.3-0.3-1.8-0.7c-0.5-0.5-0.7-1.1-0.7-1.8v-99.3c0-1.5,0.6-2.9,1.7-4    c1.1-1.1,2.5-1.7,4-1.7H353c1.5,0,2.9,0.6,4,1.7c1.1,1.1,1.7,2.5,1.7,4v99.3C358.6,719.9,358.4,720.6,357.9,721z"/>
		<path opacity="0.5" fill="none" stroke="#2B2A29" stroke-miterlimit="10" enable-background="new    " d="M338.6,708.4    c0.3,0.3,0.5,0.8,0.5,1.2c0,0.3-0.1,0.7-0.3,1c-0.2,0.3-0.5,0.5-0.8,0.6c-0.3,0.1-0.7,0.2-1,0.1c-0.3-0.1-0.6-0.2-0.9-0.5    c-0.2-0.2-0.4-0.6-0.5-0.9c-0.1-0.3,0-0.7,0.1-1c0.1-0.3,0.4-0.6,0.6-0.8c0.3-0.2,0.6-0.3,1-0.3    C337.8,707.9,338.3,708,338.6,708.4z"/>
	</g>
	<g>
		<path opacity="0.5" fill="none" stroke="#2B2A29" stroke-miterlimit="10" enable-background="new    " d="M418.1,644.9    c-0.7-0.7-1.2-1.7-1.2-2.8V615c0-1.1,0.4-2.1,1.2-2.8c0.7-0.7,1.8-1.2,2.8-1.2H442v35h-21.1C419.9,646,418.9,645.6,418.1,644.9z"/>
		<path opacity="0.5" fill="none" stroke="#2B2A29" stroke-miterlimit="10" enable-background="new    " d="M423.8,643.1    c-0.8,0-1.5-0.3-2.1-0.9c-0.6-0.5-0.9-1.3-0.9-2.1V617c0-0.4,0.1-0.8,0.2-1.2c0.1-0.4,0.4-0.7,0.6-1c0.3-0.3,0.6-0.5,1-0.7    c0.4-0.2,0.8-0.2,1.2-0.2h12.3c0.2,0,0.4,0,0.6,0.1c0.2,0.1,0.3,0.2,0.5,0.3c0.1,0.1,0.2,0.3,0.3,0.5c0.1,0.2,0.1,0.4,0.1,0.6    v26.1c0,0.2,0,0.4-0.1,0.6c-0.1,0.2-0.2,0.3-0.3,0.5c-0.1,0.1-0.3,0.2-0.5,0.3c-0.2,0.1-0.4,0.1-0.6,0.1H423.8L423.8,643.1z"/>
		<path opacity="0.5" fill="none" stroke="#2B2A29" stroke-miterlimit="10" enable-background="new    " d="M429.9,628.2    c0-0.1,0.1-0.2,0.2-0.3c0.1-0.1,0.2-0.2,0.3-0.2c0.1-0.1,0.3-0.1,0.4-0.1c0.2,0,0.4,0.1,0.6,0.2c0.2,0.1,0.3,0.3,0.4,0.5    c0.1,0.2,0.1,0.4,0.1,0.6c0,0.2-0.1,0.4-0.3,0.5c-0.1,0.1-0.3,0.2-0.5,0.3c-0.2,0-0.4,0-0.6-0.1c-0.2-0.1-0.3-0.2-0.5-0.4    c-0.1-0.2-0.2-0.4-0.2-0.6C429.9,628.4,429.9,628.3,429.9,628.2z"/>
		
			<path opacity="0.5" fill="none" stroke="#2B2A29" stroke-linecap="round" stroke-linejoin="round" enable-background="new    " d="    M433,630h7.6v-2.8H433V630z"/>
	</g>
	<g>
		<path opacity="0.5" fill="none" stroke="#2B2A29" stroke-miterlimit="10" enable-background="new    " d="M399.1,715.5    c0-0.2,0-0.4,0.1-0.7c0.1-0.2,0.2-0.4,0.3-0.6c0.1-0.2,0.3-0.3,0.5-0.4c0.2-0.1,0.4-0.1,0.7-0.1h21.4c0.2,0,0.4,0,0.6,0.1    c0.2,0.1,0.4,0.2,0.5,0.4c0.1,0.2,0.3,0.4,0.3,0.6c0.1,0.2,0.1,0.4,0,0.7l-1,5.9c-0.1,0.4-0.2,0.7-0.5,0.9s-0.6,0.4-1,0.4h-19.6    c-0.4,0-0.7-0.1-1-0.4c-0.3-0.2-0.5-0.6-0.5-0.9L399.1,715.5L399.1,715.5z"/>
		<path opacity="0.5" fill="none" stroke="#2B2A29" stroke-miterlimit="10" enable-background="new    " d="M411.4,686.2    c5.4,0,9.8,4.6,9.8,10.4l-1.3,17.2h-17.1l-1.2-17.2C401.6,690.8,406,686.2,411.4,686.2z"/>
		<path opacity="0.5" fill="none" stroke="#2B2A29" stroke-miterlimit="10" enable-background="new    " d="M401.6,697.2    c-0.1-1.3,0.2-2.6,0.6-3.9c0.5-1.2,1.2-2.4,2.1-3.3s2-1.7,3.2-2.2c1.2-0.5,2.5-0.8,3.9-0.8c1.3,0,2.6,0.3,3.9,0.8    c1.2,0.5,2.3,1.3,3.2,2.2c0.9,1,1.6,2.1,2.1,3.3c0.5,1.2,0.7,2.6,0.6,3.9l-3.6,16.5H405L401.6,697.2L401.6,697.2z"/>
		<path opacity="0.5" fill="none" stroke="#2B2A29" stroke-miterlimit="10" enable-background="new    " d="M412.1,718.5    c0.2,0.2,0.3,0.4,0.3,0.7c0,0.2-0.1,0.4-0.2,0.6c-0.1,0.2-0.3,0.3-0.5,0.4c-0.2,0.1-0.4,0.1-0.6,0.1c-0.2,0-0.4-0.1-0.5-0.3    c-0.1-0.1-0.2-0.3-0.3-0.5c0-0.2,0-0.4,0.1-0.6s0.2-0.3,0.4-0.5c0.2-0.1,0.4-0.2,0.6-0.2C411.6,718.2,411.9,718.3,412.1,718.5z"/>
	</g>
	<g>
		<path opacity="0.5" fill="none" stroke="#2B2A29" stroke-miterlimit="10" enable-background="new    " d="M196,470.9h21.1v35H196    c-1.1,0-2.1-0.4-2.8-1.2c-0.7-0.7-1.2-1.8-1.2-2.8v-27.1c0-1,0.4-2,1.2-2.8C193.9,471.4,194.9,470.9,196,470.9z"/>
		<path opacity="0.5" fill="none" stroke="#2B2A29" stroke-miterlimit="10" enable-background="new    " d="M198.9,473.9h12.3    c0.2,0,0.4,0,0.6,0.1c0.2,0.1,0.3,0.2,0.5,0.3s0.2,0.3,0.3,0.5c0.1,0.2,0.1,0.4,0.1,0.6v26.1c0,0.2,0,0.4-0.1,0.6    c-0.1,0.2-0.2,0.3-0.3,0.5c-0.1,0.1-0.3,0.2-0.5,0.3c-0.2,0.1-0.4,0.1-0.6,0.1h-12.3c-0.4,0-0.8-0.1-1.2-0.2    c-0.4-0.2-0.7-0.4-1-0.7c-0.3-0.3-0.5-0.6-0.6-1c-0.1-0.4-0.2-0.8-0.2-1.2v-23.1c0-0.8,0.3-1.5,0.9-2.1    C197.3,474.2,198.1,473.9,198.9,473.9L198.9,473.9z"/>
		<path opacity="0.5" fill="none" stroke="#2B2A29" stroke-miterlimit="10" enable-background="new    " d="M204.9,488.4    c0-0.2,0.1-0.4,0.2-0.6c0.1-0.2,0.3-0.3,0.5-0.4c0.2-0.1,0.4-0.1,0.6-0.1c0.2,0,0.4,0.1,0.5,0.3c0.1,0.1,0.2,0.3,0.3,0.5    c0,0.2,0,0.4-0.1,0.6c-0.1,0.2-0.2,0.3-0.4,0.5s-0.4,0.2-0.6,0.2c-0.1,0-0.3,0-0.4-0.1c-0.1-0.1-0.2-0.1-0.3-0.2    c-0.1-0.1-0.2-0.2-0.2-0.3C205,488.7,204.9,488.6,204.9,488.4z"/>
		
			<path opacity="0.5" fill="none" stroke="#2B2A29" stroke-linecap="round" stroke-linejoin="round" enable-background="new    " d="    M208.1,489.9h7.6V487h-7.6V489.9z"/>
	</g>
	<g>
		<path opacity="0.5" fill="none" stroke="#2B2A29" stroke-miterlimit="10" enable-background="new    " d="M200.1,584l-0.8,5.9    c-0.1,0.4-0.2,0.7-0.5,0.9c-0.3,0.2-0.6,0.4-1,0.4h-19.6c-0.4,0-0.7-0.1-1-0.4c-0.3-0.2-0.5-0.6-0.5-0.9l-1-5.9c0-0.2,0-0.4,0-0.7    s0.2-0.4,0.3-0.6c0.1-0.2,0.3-0.3,0.5-0.4c0.2-0.1,0.4-0.1,0.6-0.1h21.4c0.2,0,0.4,0,0.7,0.1c0.2,0.1,0.4,0.2,0.5,0.4    c0.1,0.2,0.3,0.4,0.3,0.6C200.1,583.5,200.1,583.7,200.1,584L200.1,584z"/>
		<path opacity="0.5" fill="none" stroke="#2B2A29" stroke-miterlimit="10" enable-background="new    " d="M197.7,565l-1.2,17.2    h-17.1l-1.3-17.2c0-5.7,4.4-10.4,9.8-10.4S197.7,559.3,197.7,565z"/>
		<path opacity="0.5" fill="none" stroke="#2B2A29" stroke-miterlimit="10" enable-background="new    " d="M197.7,565.7l-3.5,16.5    h-12.5l-3.6-16.5c-0.1-1.3,0.2-2.6,0.6-3.9c0.5-1.2,1.2-2.4,2.1-3.3c0.9-1,2-1.7,3.2-2.2s2.5-0.8,3.9-0.8c1.3,0,2.6,0.3,3.9,0.8    c1.2,0.5,2.3,1.3,3.2,2.2c0.9,1,1.6,2.1,2.1,3.3C197.5,563.1,197.7,564.4,197.7,565.7L197.7,565.7z"/>
		<path opacity="0.5" fill="none" stroke="#2B2A29" stroke-miterlimit="10" enable-background="new    " d="M187.9,586.7    c0.2,0,0.4,0.1,0.6,0.2c0.2,0.1,0.3,0.3,0.4,0.5c0.1,0.2,0.1,0.4,0.1,0.6c0,0.2-0.1,0.4-0.3,0.5c-0.1,0.1-0.3,0.2-0.5,0.3    c-0.2,0-0.4,0-0.6-0.1c-0.2-0.1-0.3-0.2-0.5-0.4c-0.1-0.2-0.2-0.4-0.2-0.6c0-0.3,0.1-0.5,0.3-0.7    C187.3,586.8,187.6,586.7,187.9,586.7z"/>
	</g>
	<g>
		<path opacity="0.5" fill="none" stroke="#2B2A29" enable-background="new    " d="M155.7,590.7h-52.2v-52.2h26.1l26.1,26.1V590.7z    "/>
		<path opacity="0.5" fill="none" stroke="#2B2A29" enable-background="new    " d="M152.3,590.7h-48.8v-48.8h24.4l24.4,24.4V590.7z    "/>
		<circle opacity="0.5" fill="none" stroke="#2B2A29" enable-background="new    " cx="111.9" cy="582.2" r="3.4"/>
	</g>
	<g>
		<path opacity="0.5" fill="none" stroke="#2B2A29" stroke-miterlimit="10" enable-background="new    " d="M666,709l-9.5-9.7"/>
		<path opacity="0.5" fill="none" stroke="#2B2A29" stroke-miterlimit="10" enable-background="new    " d="M656.4,709l9.5-9.7"/>
		<path opacity="0.5" fill="none" stroke="#2B2A29" stroke-miterlimit="10" enable-background="new    " d="M661,710.9v-13.4"/>
		<path opacity="0.5" fill="none" stroke="#2B2A29" stroke-miterlimit="10" enable-background="new    " d="M654.4,704l13.4,0.2"/>
		<path opacity="0.5" fill="none" stroke="#2B2A29" stroke-miterlimit="10" enable-background="new    " d="M682.9,684.4v39.8    l-42.1,0v-39.8L682.9,684.4z"/>
	</g>
	<path opacity="0.5" fill="none" stroke="#2B2A29" stroke-miterlimit="10" enable-background="new    " d="M642.1,684.5v39.8   l-162.1,0v-39.8L642.1,684.5z"/>
	<g>
		<path opacity="0.5" fill="none" stroke="#2B2A29" stroke-miterlimit="10" enable-background="new    " d="M559.8,687.6V721H523    v-33.4H559.8z"/>
		<path opacity="0.5" fill="none" stroke="#2B2A29" stroke-miterlimit="10" enable-background="new    " d="M556,691v23.6l-29.5,0    V691H556z"/>
	</g>
	<g>
		<path opacity="0.5" fill="none" stroke="#2B2A29" stroke-miterlimit="10" enable-background="new    " d="M635.7,720.9h-38.5    v-33.8h38.5V720.9z"/>
		<path opacity="0.5" fill="none" stroke="#2B2A29" stroke-miterlimit="10" enable-background="new    " d="M600.5,696.4    c0-2.6,2.1-4.8,4.8-4.8c2.6,0,4.8,2.1,4.8,4.8c0,2.6-2.1,4.8-4.8,4.8C602.6,701.2,600.5,699,600.5,696.4z"/>
		<path opacity="0.5" fill="none" stroke="#2B2A29" stroke-miterlimit="10" enable-background="new    " d="M621.2,705    c-3.3-2.1-4.3-6.4-2.2-9.7c2.1-3.3,6.4-4.3,9.7-2.2c3.3,2.1,4.3,6.4,2.2,9.7C628.9,706,624.5,707.1,621.2,705z"/>
		<path opacity="0.5" fill="none" stroke="#2B2A29" stroke-miterlimit="10" enable-background="new    " d="M625.3,718.5    c-2.6-0.5-4.3-3-3.8-5.6c0.5-2.6,3-4.3,5.6-3.8c2.6,0.5,4.3,3,3.8,5.6C630.4,717.3,627.9,719,625.3,718.5z"/>
		<path opacity="0.5" fill="none" stroke="#2B2A29" stroke-miterlimit="10" enable-background="new    " d="M600.5,711.8    c0,1.6,0.7,3.2,1.8,4.4c1.2,1.2,2.7,1.8,4.4,1.8c1.2,0,2.4-0.4,3.4-1c1-0.7,1.8-1.6,2.3-2.8c0.5-1.1,0.6-2.4,0.4-3.6    c-0.2-1.2-0.8-2.3-1.7-3.2c-0.9-0.9-2-1.5-3.2-1.7c-1.2-0.2-2.4-0.1-3.6,0.4c-1.1,0.5-2.1,1.3-2.8,2.3    C600.8,709.4,600.5,710.6,600.5,711.8L600.5,711.8z"/>
	</g>
	<g>
		<path opacity="0.5" fill="none" stroke="#2B2A29" stroke-miterlimit="10" enable-background="new    " d="M309.4,351.4h41.2V225.8    h-41.2V351.4z"/>
		<path opacity="0.5" fill="none" stroke="#2B2A29" stroke-miterlimit="10" enable-background="new    " d="M330,340.6V232.9"/>
		<path opacity="0.5" fill="none" stroke="#2B2A29" stroke-miterlimit="10" enable-background="new    " d="M342.1,238.9l-26.9,10.2    "/>
		<path opacity="0.5" fill="none" stroke="#2B2A29" stroke-miterlimit="10" enable-background="new    " d="M315.3,259.8l26.9,5.4"/>
		<path opacity="0.5" fill="none" stroke="#2B2A29" stroke-miterlimit="10" enable-background="new    " d="M342.1,274h-26.9"/>
		<path opacity="0.5" fill="none" stroke="#2B2A29" stroke-miterlimit="10" enable-background="new    " d="M315.3,280.8l26.9,6"/>
		<path opacity="0.5" fill="none" stroke="#2B2A29" stroke-miterlimit="10" enable-background="new    " d="M342.1,252.4h-26.9"/>
		<path opacity="0.5" fill="none" stroke="#2B2A29" stroke-miterlimit="10" enable-background="new    " d="M315.3,301.4l26.9-1.5"/>
		<path opacity="0.5" fill="none" stroke="#2B2A29" stroke-miterlimit="10" enable-background="new    " d="M342.1,311.5l-26.9-4"/>
		<path opacity="0.5" fill="none" stroke="#2B2A29" stroke-miterlimit="10" enable-background="new    " d="M315.3,316.1l26.9-0.7"/>
		<path opacity="0.5" fill="none" stroke="#2B2A29" stroke-miterlimit="10" enable-background="new    " d="M342.1,322.8l-26.9,8.4"/>
		<path opacity="0.5" fill="none" stroke="#2B2A29" stroke-miterlimit="10" enable-background="new    " d="M315.3,335.6l26.9,3.5"/>
		<path opacity="0.5" fill="none" stroke="#2B2A29" stroke-miterlimit="10" enable-background="new    " d="M315.3,292.3l26.9-1.3"/>
	</g>
	<g>
		<path opacity="0.5" fill="none" stroke="#2B2A29" stroke-miterlimit="10" enable-background="new    " d="M358.6,252.4h41.2V126.7    h-41.2V252.4z"/>
		<path opacity="0.5" fill="none" stroke="#2B2A29" stroke-miterlimit="10" enable-background="new    " d="M379.3,241.6V133.9"/>
		<path opacity="0.5" fill="none" stroke="#2B2A29" stroke-miterlimit="10" enable-background="new    " d="M391.4,139.9l-26.9,10.2    "/>
		<path opacity="0.5" fill="none" stroke="#2B2A29" stroke-miterlimit="10" enable-background="new    " d="M364.5,160.8l26.9,5.4"/>
		<path opacity="0.5" fill="none" stroke="#2B2A29" stroke-miterlimit="10" enable-background="new    " d="M391.4,174.9h-26.9"/>
		<path opacity="0.5" fill="none" stroke="#2B2A29" stroke-miterlimit="10" enable-background="new    " d="M364.5,181.7l26.9,6"/>
		<path opacity="0.5" fill="none" stroke="#2B2A29" stroke-miterlimit="10" enable-background="new    " d="M391.4,153.3h-26.9"/>
		<path opacity="0.5" fill="none" stroke="#2B2A29" stroke-miterlimit="10" enable-background="new    " d="M364.5,202.4l26.9-1.5"/>
		<path opacity="0.5" fill="none" stroke="#2B2A29" stroke-miterlimit="10" enable-background="new    " d="M391.4,212.5l-26.9-4"/>
		<path opacity="0.5" fill="none" stroke="#2B2A29" stroke-miterlimit="10" enable-background="new    " d="M364.5,217.1l26.9-0.7"/>
		<path opacity="0.5" fill="none" stroke="#2B2A29" stroke-miterlimit="10" enable-background="new    " d="M391.4,223.8l-26.9,8.4"/>
		<path opacity="0.5" fill="none" stroke="#2B2A29" stroke-miterlimit="10" enable-background="new    " d="M364.5,236.6l26.9,3.5"/>
		<path opacity="0.5" fill="none" stroke="#2B2A29" stroke-miterlimit="10" enable-background="new    " d="M364.5,193.3l26.9-1.3"/>
	</g>
	<g>
		
			<path opacity="0.5" fill="none" stroke="#2B2A29" stroke-linecap="round" stroke-linejoin="round" enable-background="new    " d="    M242.5,402.1V274.7H102.6v127.4H242.5z"/>
		
			<path opacity="0.5" fill="none" stroke="#2B2A29" stroke-linecap="round" stroke-linejoin="round" enable-background="new    " d="    M126.4,441.6v-37.4h-23.8v37.4H126.4z"/>
		
			<path opacity="0.5" fill="none" stroke="#2B2A29" stroke-linecap="round" stroke-linejoin="round" enable-background="new    " d="    M128,435.2v-24.4h-1.6v24.4H128z"/>
		
			<path opacity="0.5" fill="none" stroke="#2B2A29" stroke-linecap="round" stroke-linejoin="round" enable-background="new    " d="    M126.4,272.5v-37.4h-23.8v37.4H126.4z"/>
		
			<path opacity="0.5" fill="none" stroke="#2B2A29" stroke-linecap="round" stroke-linejoin="round" enable-background="new    " d="    M128,266.1v-24.4h-1.6v24.4H128z"/>
		
			<path opacity="0.5" fill="none" stroke="#2B2A29" stroke-linecap="round" stroke-linejoin="round" enable-background="new    " d="    M238.9,398.8V278H109l0,120.9H238.9z"/>
		
			<path opacity="0.5" fill="none" stroke="#2B2A29" stroke-linecap="round" stroke-linejoin="round" enable-background="new    " d="    M153.3,398.8l-20.9-18v-85.5l20.9-17.3h85.6v120.8H153.3z"/>
		
			<path opacity="0.5" fill="none" stroke="#2B2A29" stroke-linecap="round" stroke-linejoin="round" enable-background="new    " d="    M132.5,331.1h-16.3v-44.4h20.5v5.2"/>
		
			<path opacity="0.5" fill="none" stroke="#2B2A29" stroke-linecap="round" stroke-linejoin="round" enable-background="new    " d="    M136.6,384.4v5.8h-20.5v-44.4h16.3"/>
		
			<path opacity="0.5" fill="none" stroke="#2B2A29" stroke-linecap="round" stroke-linejoin="round" enable-background="new    " d="    M152.7,380.9l0.6,18l-20.9-18L152.7,380.9z"/>
		
			<path opacity="0.5" fill="none" stroke="#2B2A29" stroke-linecap="round" stroke-linejoin="round" enable-background="new    " d="    M152.7,295.6l0.6-18l-20.9,18L152.7,295.6z"/>
	</g>
	<g>
		
			<path opacity="0.5" fill="none" stroke="#2B2A29" stroke-linecap="round" stroke-linejoin="round" enable-background="new    " d="    M617.6,201H490.2v139.9h127.4V201z"/>
		
			<path opacity="0.5" fill="none" stroke="#2B2A29" stroke-linecap="round" stroke-linejoin="round" enable-background="new    " d="    M657.1,317.1h-37.4v23.8h37.4V317.1z"/>
		
			<path opacity="0.5" fill="none" stroke="#2B2A29" stroke-linecap="round" stroke-linejoin="round" enable-background="new    " d="    M650.7,315.5h-24.4v1.6h24.4V315.5z"/>
		
			<path opacity="0.5" fill="none" stroke="#2B2A29" stroke-linecap="round" stroke-linejoin="round" enable-background="new    " d="    M488,317.1h-37.4v23.8H488V317.1z"/>
		
			<path opacity="0.5" fill="none" stroke="#2B2A29" stroke-linecap="round" stroke-linejoin="round" enable-background="new    " d="    M481.6,315.5h-24.4v1.6h24.4V315.5z"/>
		
			<path opacity="0.5" fill="none" stroke="#2B2A29" stroke-linecap="round" stroke-linejoin="round" enable-background="new    " d="    M614.3,204.5H493.5v129.9h120.9V204.5z"/>
		
			<path opacity="0.5" fill="none" stroke="#2B2A29" stroke-linecap="round" stroke-linejoin="round" enable-background="new    " d="    M614.3,290.1l-18,20.9h-85.5l-17.3-20.9v-85.6h120.8V290.1z"/>
		
			<path opacity="0.5" fill="none" stroke="#2B2A29" stroke-linecap="round" stroke-linejoin="round" enable-background="new    " d="    M546.6,311v16.3h-44.4v-20.5h5.2"/>
		
			<path opacity="0.5" fill="none" stroke="#2B2A29" stroke-linecap="round" stroke-linejoin="round" enable-background="new    " d="    M599.9,306.8h5.8v20.5h-44.4V311"/>
		
			<path opacity="0.5" fill="none" stroke="#2B2A29" stroke-linecap="round" stroke-linejoin="round" enable-background="new    " d="    M596.4,290.7l18-0.6l-18,20.9L596.4,290.7z"/>
		
			<path opacity="0.5" fill="none" stroke="#2B2A29" stroke-linecap="round" stroke-linejoin="round" enable-background="new    " d="    M511.1,290.7l-18-0.6l18,20.9L511.1,290.7z"/>
	</g>
	<g>
		<path opacity="0.5" fill="none" stroke="#2B2A29" stroke-miterlimit="10" enable-background="new    " d="M319.1,507.1v-41.2h-92    v41.2H319.1z"/>
		<path opacity="0.5" fill="none" stroke="#2B2A29" stroke-miterlimit="10" enable-background="new    " d="M309.1,486.5h-76.5"/>
		<path opacity="0.5" fill="none" stroke="#2B2A29" stroke-miterlimit="10" enable-background="new    " d="M239.9,474.3l12.6,26.9"/>
		<path opacity="0.5" fill="none" stroke="#2B2A29" stroke-miterlimit="10" enable-background="new    " d="M265.6,501.2l6.7-26.9"/>
		<path opacity="0.5" fill="none" stroke="#2B2A29" stroke-miterlimit="10" enable-background="new    " d="M283,474.3v26.9"/>
		<path opacity="0.5" fill="none" stroke="#2B2A29" stroke-miterlimit="10" enable-background="new    " d="M291.3,501.2l7.4-26.9"/>
		<path opacity="0.5" fill="none" stroke="#2B2A29" stroke-miterlimit="10" enable-background="new    " d="M256.5,474.3v26.9"/>
		<path opacity="0.5" fill="none" stroke="#2B2A29" stroke-miterlimit="10" enable-background="new    " d="M305.6,501.2l-1.6-26.9"/>
	</g>
	<g>
		<path opacity="0.5" fill="none" stroke="#2B2A29" stroke-miterlimit="10" enable-background="new    " d="M577.4,605.2H675v-58.1    h-97.6V605.2z"/>
		<path opacity="0.5" fill="none" stroke="#2B2A29" stroke-miterlimit="10" enable-background="new    " d="M637.7,616.4    c-2.6-2.8-4-6.5-4-10.3v-0.8h29.6v0.8c0.1,3.9-1.4,7.6-4.1,10.4"/>
		<path opacity="0.5" fill="none" stroke="#2B2A29" stroke-miterlimit="10" enable-background="new    " d="M637.1,623.7h22.7    c1.9,0,3.4-1.5,3.4-3.4v-0.5c0-1.9-1.5-3.4-3.4-3.4h-22.7c-1.9,0-3.4,1.5-3.4,3.4v0.5C633.7,622.2,635.2,623.7,637.1,623.7z"/>
		<path opacity="0.5" fill="none" stroke="#2B2A29" stroke-miterlimit="10" enable-background="new    " d="M593.2,616.4    c-2.6-2.8-4-6.5-4-10.3v-0.8h29.6v0.8c0.1,3.9-1.4,7.6-4.1,10.4"/>
		<path opacity="0.5" fill="none" stroke="#2B2A29" stroke-miterlimit="10" enable-background="new    " d="M592.6,623.7h22.7    c1.9,0,3.4-1.5,3.4-3.4v-0.5c0-1.9-1.5-3.4-3.4-3.4h-22.7c-1.9,0-3.4,1.5-3.4,3.4v0.5C589.2,622.2,590.7,623.7,592.6,623.7z"/>
		<path opacity="0.5" fill="none" stroke="#2B2A29" stroke-miterlimit="10" enable-background="new    " d="M614.8,535.9    c2.6,2.8,4,6.5,4,10.3v0.8h-29.6v-0.8c0-3.9,1.4-7.6,4.1-10.4"/>
		<path opacity="0.5" fill="none" stroke="#2B2A29" stroke-miterlimit="10" enable-background="new    " d="M615.3,528.6h-22.7    c-1.9,0-3.4,1.5-3.4,3.4v0.5c0,1.9,1.5,3.4,3.4,3.4h22.7c1.9,0,3.4-1.5,3.4-3.4v-0.5C618.8,530.2,617.2,528.6,615.3,528.6z"/>
		<path opacity="0.5" fill="none" stroke="#2B2A29" stroke-miterlimit="10" enable-background="new    " d="M659.3,535.9    c2.6,2.8,4,6.5,4,10.3v0.8h-29.6v-0.8c0-3.9,1.4-7.6,4.1-10.4"/>
		<path opacity="0.5" fill="none" stroke="#2B2A29" stroke-miterlimit="10" enable-background="new    " d="M659.8,528.6h-22.7    c-1.9,0-3.4,1.5-3.4,3.4v0.5c0,1.9,1.5,3.4,3.4,3.4h22.7c1.9,0,3.4-1.5,3.4-3.4v-0.5C663.3,530.2,661.7,528.6,659.8,528.6z"/>
	</g>
	<g>
		<path opacity="0.5" fill="none" stroke="#2B2A29" stroke-miterlimit="10" enable-background="new    " d="M666.5,443.3h2.8V379    h-2.8V443.3z"/>
		<path opacity="0.5" fill="none" stroke="#2B2A29" stroke-miterlimit="10" enable-background="new    " d="M669.2,395.4l2.8,1.6    v28.4l-2.8,1.6V395.4z"/>
		<path opacity="0.5" fill="none" stroke="#2B2A29" stroke-miterlimit="10" enable-background="new    " d="M657.1,455.2h23.8v-84.6    h-23.8V455.2z"/>
	</g>
	<g opacity="0.5">
		<path fill="none" stroke="#2B2A29" d="M451.3,418.7c0-3.3,2.6-5.9,5.9-5.9h7.4c1.6,0,3,1.3,3,3v57.6c0,1.6-1.3,3-3,3h-7.4    c-3.3,0-5.9-2.6-5.9-5.9V418.7z"/>
		<path fill="none" stroke="#2B2A29" d="M473.4,476.4c-3.3,0-5.9-2.6-5.9-5.9V469c0-1.6,1.3-3,3-3h38.4c1.6,0,3,1.3,3,3v1.5    c0,3.3-2.6,5.9-5.9,5.9H473.4z"/>
		<path fill="none" stroke="#2B2A29" d="M505.9,349.3c3.3,0,5.9,2.6,5.9,5.9v1.5c0,1.6-1.3,3-3,3h-38.4c-1.6,0-3-1.3-3-3v-1.5    c0-3.3,2.6-5.9,5.9-5.9H505.9z"/>
		<path fill="none" stroke="#2B2A29" d="M467.5,415.8c0-1.6,1.3-3,3-3H500c6.5,0,11.8,5.3,11.8,11.8v29.5c0,6.5-5.3,11.8-11.8,11.8    h-29.5c-1.6,0-3-1.3-3-3V415.8z"/>
		<path fill="none" stroke="#2B2A29" d="M451.3,355.2c0-3.3,2.6-5.9,5.9-5.9h7.4c1.6,0,3,1.3,3,3v57.6c0,1.6-1.3,3-3,3h-7.4    c-3.3,0-5.9-2.6-5.9-5.9V355.2z"/>
		<path fill="none" stroke="#2B2A29" d="M467.5,362.6c0-1.6,1.3-3,3-3H500c6.5,0,11.8,5.3,11.8,11.8V401c0,6.5-5.3,11.8-11.8,11.8    h-29.5c-1.6,0-3-1.3-3-3V362.6z"/>
	</g>
</g>
<g id="text">
	<g>
		<path fill="#AD794B" d="M487.8,573.3h-2.2v4.5h-1V568h1v4.4h2.2l3.3-4.4h1.1l-3.6,4.8l3.8,5h-1.2L487.8,573.3z"/>
		<path fill="#AD794B" d="M500,570.5l-3.7,8.2c-0.3,0.7-0.6,1.2-1,1.5c-0.4,0.3-0.9,0.4-1.4,0.4c-0.4,0-0.7-0.1-1-0.2    s-0.6-0.3-0.8-0.5l0.5-0.7c0.4,0.4,0.8,0.6,1.3,0.6c0.3,0,0.6-0.1,0.9-0.3c0.2-0.2,0.5-0.5,0.7-1l0.3-0.7l-3.3-7.4h1l2.8,6.3    l2.8-6.3H500z"/>
		<path fill="#AD794B" d="M505.8,577.8l-2.3-3.1l-2.4,3.1h-1.1l2.9-3.8l-2.8-3.6h1.1l2.2,2.9l2.2-2.9h1.1l-2.8,3.6l2.9,3.8H505.8z"/>
		<path fill="#AD794B" d="M508.5,570.5h1v3.3h4.6v-3.3h1v7.4h-1v-3.2h-4.6v3.2h-1V570.5z"/>
		<path fill="#AD794B" d="M523.6,570.5v7.4h-0.9v-2.4h-2.3h-0.3l-1.7,2.4h-1.1l1.8-2.6c-0.6-0.2-1-0.4-1.3-0.8    c-0.3-0.4-0.5-0.9-0.5-1.5c0-0.8,0.3-1.4,0.8-1.9c0.6-0.4,1.3-0.6,2.3-0.6H523.6z M520.5,574.7h2.2v-3.3h-2.2    c-1.4,0-2.2,0.6-2.2,1.7C518.4,574.1,519.1,574.7,520.5,574.7z"/>
		<path fill="#AD794B" d="M525.9,573.6h3.7v0.9h-3.7V573.6z"/>
		<path fill="#AD794B" d="M489.5,588.2h-4.2v6.5h-1v-7.4h5.2V588.2z"/>
		<path fill="#AD794B" d="M491.7,594.2c-0.6-0.3-1-0.8-1.3-1.3c-0.3-0.6-0.5-1.2-0.5-1.9s0.2-1.4,0.5-1.9c0.3-0.6,0.8-1,1.3-1.3    c0.6-0.3,1.2-0.5,1.9-0.5c0.7,0,1.3,0.2,1.9,0.5c0.6,0.3,1,0.8,1.3,1.3s0.5,1.2,0.5,1.9s-0.2,1.4-0.5,1.9s-0.8,1-1.3,1.3    s-1.2,0.5-1.9,0.5C492.9,594.7,492.3,594.5,491.7,594.2z M495,593.5c0.4-0.2,0.7-0.6,1-1c0.2-0.4,0.3-0.9,0.3-1.5    c0-0.6-0.1-1.1-0.3-1.5s-0.6-0.8-1-1c-0.4-0.2-0.9-0.4-1.4-0.4c-0.5,0-1,0.1-1.4,0.4c-0.4,0.2-0.7,0.6-1,1    c-0.2,0.4-0.4,0.9-0.4,1.5c0,0.6,0.1,1.1,0.4,1.5c0.2,0.4,0.6,0.8,1,1s0.9,0.4,1.4,0.4C494.2,593.8,494.6,593.7,495,593.5z"/>
		<path fill="#AD794B" d="M500.6,594.2c-0.6-0.3-1-0.8-1.4-1.3c-0.3-0.6-0.5-1.2-0.5-1.9s0.2-1.4,0.5-1.9c0.3-0.6,0.8-1,1.4-1.3    c0.6-0.3,1.2-0.5,2-0.5c0.6,0,1.2,0.1,1.7,0.4c0.5,0.2,0.9,0.6,1.2,1.1l-0.7,0.5c-0.2-0.4-0.6-0.6-0.9-0.8    c-0.4-0.2-0.8-0.3-1.2-0.3c-0.5,0-1,0.1-1.4,0.4c-0.4,0.2-0.8,0.6-1,1c-0.2,0.4-0.4,0.9-0.4,1.5c0,0.6,0.1,1.1,0.4,1.5    c0.2,0.4,0.6,0.8,1,1s0.9,0.4,1.4,0.4c0.4,0,0.8-0.1,1.2-0.3c0.4-0.2,0.7-0.4,0.9-0.8l0.7,0.5c-0.3,0.5-0.7,0.8-1.2,1.1    c-0.5,0.2-1.1,0.4-1.7,0.4C501.8,594.7,501.2,594.5,500.6,594.2z"/>
		<path fill="#AD794B" d="M512.4,588.2h-2.8v6.5h-1v-6.5h-2.8v-0.9h6.6V588.2z"/>
		<path fill="#AD794B" d="M513.9,587.3h1v5.9l4.9-5.9h0.9v7.4h-1v-5.9l-4.9,5.9h-0.9V587.3z"/>
		<path fill="#AD794B" d="M523.5,587.3h1v3.3h4.6v-3.3h1v7.4h-1v-3.2h-4.6v3.2h-1V587.3z"/>
		<path fill="#AD794B" d="M537.7,587.9c0.5,0.5,0.8,1.2,0.8,2.1v4.6h-1v-1.1c-0.2,0.4-0.6,0.7-1,0.9c-0.4,0.2-1,0.3-1.5,0.3    c-0.8,0-1.5-0.2-2-0.6c-0.5-0.4-0.7-0.9-0.7-1.6c0-0.6,0.2-1.1,0.7-1.5c0.5-0.4,1.2-0.6,2.2-0.6h2.3V590c0-0.6-0.2-1.1-0.5-1.4    c-0.4-0.3-0.9-0.5-1.6-0.5c-0.5,0-0.9,0.1-1.3,0.2c-0.4,0.2-0.8,0.4-1.1,0.6l-0.4-0.7c0.4-0.3,0.8-0.6,1.3-0.7s1.1-0.3,1.7-0.3    C536.4,587.2,537.2,587.5,537.7,587.9z M536.6,593.5c0.4-0.3,0.7-0.6,0.9-1.1v-1.2h-2.3c-1.3,0-1.9,0.4-1.9,1.3    c0,0.4,0.2,0.8,0.5,1c0.3,0.2,0.8,0.4,1.4,0.4C535.7,593.9,536.2,593.8,536.6,593.5z"/>
		<path fill="#AD794B" d="M546.8,587.3v7.4h-0.9v-2.4h-2.3h-0.3l-1.7,2.4h-1.1l1.8-2.6c-0.6-0.2-1-0.4-1.3-0.8    c-0.3-0.4-0.5-0.9-0.5-1.5c0-0.8,0.3-1.4,0.8-1.9c0.6-0.4,1.3-0.6,2.3-0.6H546.8z M543.6,591.5h2.2v-3.3h-2.2    c-1.4,0-2.2,0.6-2.2,1.7C541.5,590.9,542.2,591.5,543.6,591.5z"/>
		<path fill="#AD794B" d="M486.9,601.6v9.8H485v-8.3H483v-1.5H486.9z"/>
		<path fill="#AD794B" d="M496.4,607.2c0.3,0.4,0.4,0.9,0.4,1.4c0,0.6-0.2,1.1-0.5,1.6c-0.3,0.4-0.8,0.8-1.4,1s-1.3,0.4-2.1,0.4    s-1.5-0.1-2.1-0.4c-0.6-0.2-1.1-0.6-1.4-1c-0.3-0.4-0.5-1-0.5-1.6c0-0.5,0.1-1,0.4-1.4s0.7-0.7,1.2-0.9c-0.4-0.2-0.7-0.5-0.9-0.8    s-0.3-0.8-0.3-1.2c0-0.6,0.2-1,0.5-1.4c0.3-0.4,0.7-0.7,1.3-1c0.5-0.2,1.2-0.3,1.9-0.3c0.7,0,1.4,0.1,1.9,0.3c0.6,0.2,1,0.5,1.3,1    c0.3,0.4,0.5,0.9,0.5,1.4c0,0.5-0.1,0.9-0.3,1.2c-0.2,0.3-0.5,0.6-0.9,0.9C495.7,606.5,496.1,606.8,496.4,607.2z M494.3,609.7    c0.4-0.3,0.6-0.7,0.6-1.2c0-0.5-0.2-0.9-0.6-1.1c-0.4-0.3-0.9-0.4-1.6-0.4s-1.2,0.1-1.6,0.4c-0.4,0.3-0.6,0.7-0.6,1.1    c0,0.5,0.2,0.9,0.6,1.2s0.9,0.4,1.6,0.4S494,610,494.3,609.7z M491.4,603.3c-0.3,0.2-0.5,0.6-0.5,1c0,0.4,0.2,0.8,0.5,1    c0.3,0.2,0.8,0.4,1.4,0.4c0.6,0,1-0.1,1.4-0.4s0.5-0.6,0.5-1c0-0.4-0.2-0.8-0.5-1c-0.3-0.2-0.8-0.4-1.4-0.4S491.7,603,491.4,603.3    z"/>
		<path fill="#AD794B" d="M500,609.5c0.2,0.2,0.3,0.5,0.3,0.8c0,0.1,0,0.3-0.1,0.5s-0.1,0.4-0.3,0.7l-0.7,2h-1.1l0.6-2.1    c-0.2-0.1-0.4-0.2-0.5-0.4c-0.1-0.2-0.2-0.4-0.2-0.6c0-0.3,0.1-0.6,0.3-0.8c0.2-0.2,0.5-0.3,0.8-0.3    C499.5,609.2,499.8,609.3,500,609.5z"/>
		<path fill="#AD794B" d="M507.6,606.2c0.7,0.5,1,1.3,1,2.2c0,0.6-0.1,1.1-0.4,1.6c-0.3,0.5-0.7,0.9-1.3,1.1    c-0.6,0.3-1.3,0.4-2.1,0.4c-0.7,0-1.4-0.1-2-0.3c-0.7-0.2-1.2-0.5-1.7-0.8l0.8-1.4c0.4,0.3,0.8,0.5,1.3,0.7s1,0.3,1.6,0.3    c0.6,0,1.2-0.1,1.5-0.4c0.4-0.3,0.6-0.6,0.6-1.1c0-0.5-0.2-0.9-0.6-1.1c-0.4-0.3-1.1-0.4-2-0.4h-2.4l0.5-5.3h5.8v1.5h-4.2    l-0.2,2.3h0.9C505.9,605.4,507,605.7,507.6,606.2z"/>
		<path fill="#AD794B" d="M515.8,606.6c0.5,0.5,0.7,1.1,0.7,1.9c0,0.6-0.1,1.1-0.4,1.6s-0.7,0.8-1.3,1.1c-0.6,0.3-1.3,0.4-2.1,0.4    c-0.7,0-1.4-0.1-2-0.3c-0.6-0.2-1.2-0.5-1.7-0.8l0.8-1.4c0.4,0.3,0.8,0.5,1.3,0.7s1,0.3,1.6,0.3c0.6,0,1.2-0.1,1.5-0.4    c0.4-0.3,0.6-0.6,0.6-1.1s-0.2-0.8-0.5-1.1c-0.3-0.3-0.9-0.4-1.6-0.4h-0.9v-1.2l2.2-2.6h-4.5v-1.5h6.7v1.2l-2.4,2.8    C514.7,605.8,515.4,606.1,515.8,606.6z"/>
	</g>
	<g>
		<path fill="#AD794B" d="M243.3,426.4c-0.8-0.4-1.4-1-1.8-1.8c-0.4-0.8-0.7-1.6-0.7-2.6c0-0.9,0.2-1.8,0.7-2.6s1.1-1.4,1.8-1.8    c0.8-0.4,1.7-0.6,2.6-0.6c0.7,0,1.4,0.1,2,0.4c0.6,0.2,1.1,0.6,1.6,1.1l-0.7,0.7c-0.8-0.8-1.7-1.2-2.9-1.2c-0.8,0-1.5,0.2-2.1,0.5    c-0.6,0.4-1.1,0.8-1.5,1.5c-0.4,0.6-0.5,1.3-0.5,2.1c0,0.8,0.2,1.5,0.5,2.1s0.9,1.1,1.5,1.5s1.3,0.5,2.1,0.5    c1.2,0,2.1-0.4,2.9-1.2l0.7,0.7c-0.4,0.5-1,0.8-1.6,1.1s-1.3,0.4-2,0.4C244.9,427,244,426.8,243.3,426.4z"/>
		<path fill="#AD794B" d="M258,419.6v7.4h-1v-6.5h-4.6v6.5h-1v-7.4H258z"/>
		<path fill="#AD794B" d="M265.6,420.2c0.5,0.5,0.8,1.2,0.8,2.1v4.6h-1v-1.1c-0.2,0.4-0.6,0.7-1,0.9c-0.4,0.2-1,0.3-1.5,0.3    c-0.8,0-1.5-0.2-2-0.6c-0.5-0.4-0.7-0.9-0.7-1.6c0-0.6,0.2-1.1,0.7-1.5s1.2-0.6,2.2-0.6h2.3v-0.4c0-0.6-0.2-1.1-0.5-1.4    c-0.4-0.3-0.9-0.5-1.6-0.5c-0.5,0-0.9,0.1-1.3,0.2s-0.8,0.4-1.1,0.6l-0.4-0.7c0.4-0.3,0.8-0.6,1.3-0.7c0.5-0.2,1.1-0.3,1.7-0.3    C264.3,419.5,265,419.8,265.6,420.2z M264.4,425.8c0.4-0.3,0.7-0.6,0.9-1.1v-1.2H263c-1.3,0-1.9,0.4-1.9,1.3c0,0.4,0.2,0.8,0.5,1    s0.8,0.4,1.4,0.4C263.6,426.2,264,426.1,264.4,425.8z"/>
		<path fill="#AD794B" d="M275,419.6v7.4h-1v-6.5h-3.5l-0.1,1.8c-0.1,1.5-0.3,2.7-0.5,3.5c-0.3,0.8-0.8,1.2-1.5,1.2    c-0.2,0-0.4,0-0.7-0.1l0.1-0.9c0.2,0,0.3,0.1,0.4,0.1c0.4,0,0.7-0.2,0.9-0.5c0.2-0.4,0.3-0.8,0.4-1.3s0.1-1.2,0.2-2.1l0.1-2.6H275    z"/>
		<path fill="#AD794B" d="M283.1,422.8c0.5,0.4,0.7,1,0.7,1.7c0,0.8-0.3,1.4-0.8,1.8s-1.3,0.6-2.2,0.6l-3,0v-7.4h1v2.6l2.2,0    C281.9,422.2,282.6,422.4,283.1,422.8z M282.3,425.8c0.4-0.3,0.5-0.7,0.5-1.3c0-0.5-0.2-0.9-0.5-1.2c-0.3-0.3-0.9-0.4-1.6-0.4    l-1.9,0v3.3l1.9,0C281.4,426.2,281.9,426.1,282.3,425.8z"/>
		<path fill="#AD794B" d="M285.7,419.6h1v3.3h4.6v-3.3h1v7.4h-1v-3.2h-4.6v3.2h-1V419.6z"/>
		<path fill="#AD794B" d="M300.8,419.6v7.4h-0.9v-2.4h-2.3h-0.3l-1.7,2.4h-1.1l1.8-2.6c-0.6-0.2-1-0.4-1.3-0.8    c-0.3-0.4-0.5-0.9-0.5-1.5c0-0.8,0.3-1.4,0.8-1.9c0.6-0.4,1.3-0.6,2.3-0.6H300.8z M297.7,423.8h2.2v-3.3h-2.2    c-1.4,0-2.2,0.6-2.2,1.7C295.6,423.2,296.3,423.8,297.7,423.8z"/>
		<path fill="#AD794B" d="M243.9,433.9v9.8h-1.8v-8.3h-2.1v-1.5H243.9z"/>
		<path fill="#AD794B" d="M253,442.2v1.5h-7.2v-1.2l3.9-3.7c0.4-0.4,0.7-0.8,0.9-1.1c0.2-0.3,0.2-0.6,0.2-0.9c0-0.5-0.2-0.8-0.5-1    s-0.8-0.4-1.4-0.4c-1,0-1.8,0.3-2.3,1l-1.3-1c0.4-0.5,0.9-0.9,1.5-1.2c0.6-0.3,1.4-0.4,2.2-0.4c1.1,0,1.9,0.3,2.5,0.8s1,1.2,1,2.1    c0,0.5-0.1,1-0.3,1.5s-0.7,1-1.3,1.6l-2.6,2.5H253z"/>
		<path fill="#AD794B" d="M256.1,441.8c0.2,0.2,0.3,0.5,0.3,0.8c0,0.1,0,0.3-0.1,0.5c0,0.2-0.1,0.4-0.3,0.7l-0.7,2h-1.1l0.6-2.1    c-0.2-0.1-0.4-0.2-0.5-0.4c-0.1-0.2-0.2-0.4-0.2-0.6c0-0.3,0.1-0.6,0.3-0.8c0.2-0.2,0.5-0.3,0.8-0.3    C255.6,441.5,255.9,441.6,256.1,441.8z"/>
		<path fill="#AD794B" d="M264.8,433.9v1.2l-3.8,8.6H259l3.7-8.3h-3.9v1.7h-1.7v-3.2H264.8z"/>
		<path fill="#AD794B" d="M271.8,438.5c0.7,0.5,1,1.3,1,2.2c0,0.6-0.1,1.1-0.4,1.6c-0.3,0.5-0.7,0.9-1.3,1.1s-1.3,0.4-2.1,0.4    c-0.7,0-1.4-0.1-2-0.3c-0.7-0.2-1.2-0.5-1.7-0.8l0.8-1.4c0.4,0.3,0.8,0.5,1.3,0.7c0.5,0.2,1,0.3,1.6,0.3c0.6,0,1.2-0.1,1.5-0.4    c0.4-0.3,0.6-0.6,0.6-1.1c0-0.5-0.2-0.9-0.6-1.1c-0.4-0.3-1.1-0.4-2-0.4h-2.4l0.5-5.3h5.8v1.5H268l-0.2,2.3h0.9    C270.1,437.7,271.1,438,271.8,438.5z"/>
	</g>
	<g>
		<path fill="#AD794B" d="M559.3,159.7c-0.8-0.4-1.4-1-1.8-1.8c-0.4-0.8-0.7-1.6-0.7-2.6s0.2-1.8,0.7-2.6s1.1-1.4,1.8-1.8    c0.8-0.4,1.7-0.6,2.6-0.6c0.7,0,1.4,0.1,2,0.4s1.1,0.6,1.6,1.1l-0.7,0.7c-0.8-0.8-1.7-1.2-2.9-1.2c-0.8,0-1.5,0.2-2.1,0.5    c-0.6,0.4-1.1,0.8-1.5,1.5c-0.4,0.6-0.5,1.3-0.5,2.1s0.2,1.5,0.5,2.1c0.4,0.6,0.9,1.1,1.5,1.5c0.6,0.4,1.3,0.5,2.1,0.5    c1.2,0,2.1-0.4,2.9-1.2l0.7,0.7c-0.4,0.5-1,0.8-1.6,1.1c-0.6,0.2-1.3,0.4-2,0.4C561,160.4,560.1,160.1,559.3,159.7z"/>
		<path fill="#AD794B" d="M574,152.9v7.4h-1v-6.5h-4.6v6.5h-1v-7.4H574z"/>
		<path fill="#AD794B" d="M581.6,153.6c0.5,0.5,0.8,1.2,0.8,2.1v4.6h-1v-1.1c-0.2,0.4-0.6,0.7-1,0.9c-0.4,0.2-1,0.3-1.5,0.3    c-0.8,0-1.5-0.2-2-0.6c-0.5-0.4-0.7-0.9-0.7-1.6c0-0.6,0.2-1.1,0.7-1.5c0.5-0.4,1.2-0.6,2.2-0.6h2.3v-0.4c0-0.6-0.2-1.1-0.5-1.4    c-0.4-0.3-0.9-0.5-1.6-0.5c-0.5,0-0.9,0.1-1.3,0.2c-0.4,0.2-0.8,0.4-1.1,0.6l-0.4-0.7c0.4-0.3,0.8-0.6,1.3-0.7    c0.5-0.2,1.1-0.3,1.7-0.3C580.4,152.9,581.1,153.1,581.6,153.6z M580.5,159.2c0.4-0.3,0.7-0.6,0.9-1.1v-1.2h-2.3    c-1.3,0-1.9,0.4-1.9,1.3c0,0.4,0.2,0.8,0.5,1c0.3,0.2,0.8,0.4,1.4,0.4C579.6,159.6,580.1,159.4,580.5,159.2z"/>
		<path fill="#AD794B" d="M591,152.9v7.4h-1v-6.5h-3.5l-0.1,1.8c-0.1,1.5-0.3,2.7-0.5,3.5c-0.3,0.8-0.8,1.2-1.5,1.2    c-0.2,0-0.4,0-0.7-0.1l0.1-0.9c0.2,0,0.3,0.1,0.4,0.1c0.4,0,0.7-0.2,0.9-0.5c0.2-0.4,0.3-0.8,0.4-1.3c0.1-0.5,0.1-1.2,0.2-2.1    l0.1-2.6H591z"/>
		<path fill="#AD794B" d="M599.1,156.1c0.5,0.4,0.7,1,0.7,1.7c0,0.8-0.3,1.4-0.8,1.8c-0.5,0.4-1.3,0.6-2.2,0.6l-3,0v-7.4h1v2.6    l2.2,0C598,155.5,598.7,155.7,599.1,156.1z M598.3,159.1c0.3-0.3,0.5-0.7,0.5-1.3c0-0.5-0.2-0.9-0.5-1.2s-0.9-0.4-1.6-0.4l-1.9,0    v3.3l1.9,0C597.5,159.5,598,159.4,598.3,159.1z"/>
		<path fill="#AD794B" d="M601.8,152.9h1v3.3h4.6v-3.3h1v7.4h-1V157h-4.6v3.2h-1V152.9z"/>
		<path fill="#AD794B" d="M616.9,152.9v7.4H616v-2.4h-2.3h-0.3l-1.7,2.4h-1.1l1.8-2.6c-0.6-0.2-1-0.4-1.3-0.8    c-0.3-0.4-0.5-0.9-0.5-1.5c0-0.8,0.3-1.4,0.8-1.9c0.6-0.4,1.3-0.6,2.3-0.6H616.9z M613.7,157.1h2.2v-3.3h-2.2    c-1.4,0-2.2,0.6-2.2,1.7C611.6,156.6,612.3,157.1,613.7,157.1z"/>
		<path fill="#AD794B" d="M560,167.3v9.8h-1.8v-8.3h-2.1v-1.5H560z"/>
		<path fill="#AD794B" d="M568.1,171.9c0.7,0.5,1,1.3,1,2.2c0,0.6-0.1,1.1-0.4,1.6c-0.3,0.5-0.7,0.9-1.3,1.1    c-0.6,0.3-1.3,0.4-2.1,0.4c-0.7,0-1.4-0.1-2-0.3s-1.2-0.5-1.7-0.8l0.8-1.4c0.4,0.3,0.8,0.5,1.3,0.7c0.5,0.2,1,0.3,1.6,0.3    c0.6,0,1.2-0.1,1.5-0.4c0.4-0.3,0.6-0.6,0.6-1.1c0-0.5-0.2-0.9-0.6-1.1c-0.4-0.3-1.1-0.4-2-0.4h-2.4l0.5-5.3h5.8v1.5h-4.2    l-0.2,2.3h0.9C566.4,171.1,567.4,171.3,568.1,171.9z"/>
		<path fill="#AD794B" d="M572,175.2c0.2,0.2,0.3,0.5,0.3,0.8c0,0.1,0,0.3-0.1,0.5c0,0.2-0.1,0.4-0.3,0.7l-0.7,2h-1.1l0.6-2.1    c-0.2-0.1-0.4-0.2-0.5-0.4c-0.1-0.2-0.2-0.4-0.2-0.6c0-0.3,0.1-0.6,0.3-0.8s0.5-0.3,0.8-0.3C571.6,174.8,571.8,175,572,175.2z"/>
		<path fill="#AD794B" d="M580.8,175.5v1.5h-7.2v-1.2l3.9-3.7c0.4-0.4,0.7-0.8,0.9-1.1c0.2-0.3,0.2-0.6,0.2-0.9    c0-0.5-0.2-0.8-0.5-1.1c-0.3-0.2-0.8-0.4-1.4-0.4c-1,0-1.8,0.3-2.3,1l-1.3-1c0.4-0.5,0.9-0.9,1.5-1.2c0.6-0.3,1.4-0.4,2.2-0.4    c1.1,0,1.9,0.3,2.5,0.8s1,1.2,1,2.1c0,0.5-0.1,1-0.3,1.5s-0.7,1-1.3,1.6l-2.6,2.5H580.8z"/>
		<path fill="#AD794B" d="M590.3,174.8h-1.7v2.2h-1.8v-2.2h-5.4v-1.3l4.8-6.3h1.9l-4.5,6h3.2v-2h1.7v2h1.7V174.8z"/>
	</g>
	<g>
		<path fill="#AD794B" d="M146,140.3v9.8h-1v-8.9h-4.7l-0.1,3.3c0,1.4-0.2,2.4-0.3,3.3c-0.2,0.8-0.4,1.4-0.8,1.8    c-0.4,0.4-0.8,0.6-1.4,0.6c-0.3,0-0.5,0-0.8-0.1l0.1-0.9c0.2,0,0.3,0.1,0.5,0.1c0.4,0,0.7-0.2,1-0.5c0.3-0.3,0.5-0.8,0.6-1.5    c0.1-0.7,0.2-1.6,0.3-2.7l0.1-4.2H146z"/>
		<path fill="#AD794B" d="M150.2,149.7c-0.6-0.3-1-0.8-1.3-1.3s-0.5-1.2-0.5-1.9c0-0.7,0.2-1.4,0.5-1.9s0.8-1,1.3-1.3    c0.6-0.3,1.2-0.5,1.9-0.5c0.7,0,1.3,0.2,1.9,0.5c0.6,0.3,1,0.8,1.3,1.3c0.3,0.6,0.5,1.2,0.5,1.9c0,0.7-0.2,1.4-0.5,1.9    c-0.3,0.6-0.8,1-1.3,1.3c-0.6,0.3-1.2,0.5-1.9,0.5C151.4,150.2,150.7,150,150.2,149.7z M153.5,148.9c0.4-0.2,0.7-0.6,1-1    c0.2-0.4,0.4-0.9,0.4-1.5s-0.1-1.1-0.4-1.5c-0.2-0.4-0.6-0.8-1-1c-0.4-0.2-0.9-0.4-1.4-0.4c-0.5,0-1,0.1-1.4,0.4    c-0.4,0.2-0.7,0.6-1,1c-0.2,0.4-0.4,0.9-0.4,1.5s0.1,1.1,0.4,1.5c0.2,0.4,0.6,0.8,1,1c0.4,0.2,0.9,0.4,1.4,0.4    C152.6,149.3,153.1,149.2,153.5,148.9z"/>
		<path fill="#AD794B" d="M165.1,149.2v2.6h-0.9v-1.8h-6.6v1.8h-0.9v-2.6h0.4c0.5,0,0.8-0.4,1-1.1c0.2-0.7,0.3-1.7,0.4-2.9l0.1-2.5    h5.4v6.5H165.1z M159,147.8c-0.1,0.7-0.4,1.1-0.7,1.4h4.6v-5.6h-3.5l-0.1,1.6C159.3,146.3,159.2,147.2,159,147.8z"/>
		<path fill="#AD794B" d="M173.5,146.8h-1.6v3.3h-1v-3.3h-1.6l-2.3,3.3h-1.2l2.6-3.8l-2.4-3.6h1.1l2.2,3.2h1.6v-3.2h1v3.2h1.6    l2.2-3.2h1.1l-2.4,3.6l2.6,3.8h-1.2L173.5,146.8z"/>
		<path fill="#AD794B" d="M178.6,142.7h1v5.9l4.9-5.9h0.9v7.4h-1v-5.9l-4.9,5.9h-0.9V142.7z"/>
		<path fill="#AD794B" d="M193.9,142.7v7.4h-0.9v-2.4h-2.3h-0.3l-1.7,2.4h-1.1l1.8-2.6c-0.6-0.2-1-0.4-1.3-0.8    c-0.3-0.4-0.5-0.9-0.5-1.5c0-0.8,0.3-1.4,0.8-1.9c0.6-0.4,1.3-0.6,2.3-0.6H193.9z M190.7,146.9h2.2v-3.3h-2.2    c-1.4,0-2.2,0.6-2.2,1.7C188.6,146.4,189.3,146.9,190.7,146.9z"/>
		<path fill="#AD794B" d="M143.5,162.1c0.5,0.5,0.7,1.1,0.7,1.9c0,0.6-0.1,1.1-0.4,1.6c-0.3,0.5-0.7,0.8-1.3,1.1    c-0.6,0.3-1.3,0.4-2.1,0.4c-0.7,0-1.4-0.1-2-0.3c-0.6-0.2-1.2-0.5-1.7-0.8l0.8-1.4c0.4,0.3,0.8,0.5,1.3,0.7c0.5,0.2,1,0.3,1.6,0.3    c0.6,0,1.2-0.1,1.5-0.4c0.4-0.3,0.6-0.6,0.6-1.1c0-0.5-0.2-0.8-0.5-1.1c-0.3-0.3-0.9-0.4-1.6-0.4h-0.9v-1.2l2.2-2.6h-4.5v-1.5h6.7    v1.2l-2.4,2.8C142.3,161.3,143,161.6,143.5,162.1z"/>
		<path fill="#AD794B" d="M147.3,165c0.2,0.2,0.3,0.5,0.3,0.8c0,0.1,0,0.3-0.1,0.5c0,0.2-0.1,0.4-0.3,0.7l-0.7,2h-1.1l0.6-2.1    c-0.2-0.1-0.4-0.2-0.5-0.4c-0.1-0.2-0.2-0.4-0.2-0.6c0-0.3,0.1-0.6,0.3-0.8c0.2-0.2,0.5-0.3,0.8-0.3    C146.8,164.7,147.1,164.8,147.3,165z"/>
		<path fill="#AD794B" d="M157.5,164.7h-1.7v2.2H154v-2.2h-5.4v-1.3l4.8-6.3h1.9l-4.5,6h3.2v-2h1.7v2h1.7V164.7z"/>
		<path fill="#AD794B" d="M164.3,161.7c0.7,0.5,1,1.3,1,2.2c0,0.6-0.1,1.1-0.4,1.6c-0.3,0.5-0.7,0.9-1.3,1.1    c-0.6,0.3-1.3,0.4-2.1,0.4c-0.7,0-1.4-0.1-2-0.3s-1.2-0.5-1.7-0.8l0.8-1.4c0.4,0.3,0.8,0.5,1.3,0.7c0.5,0.2,1,0.3,1.6,0.3    c0.6,0,1.2-0.1,1.5-0.4c0.4-0.3,0.6-0.6,0.6-1.1c0-0.5-0.2-0.9-0.6-1.1c-0.4-0.3-1.1-0.4-2-0.4h-2.4l0.5-5.3h5.8v1.5h-4.2    l-0.2,2.3h0.9C162.6,160.9,163.7,161.2,164.3,161.7z"/>
	</g>
	<g>
		<path fill="#AD794B" d="M292,538h-2.2v4.5h-1v-9.8h1v4.4h2.2l3.3-4.4h1.1l-3.6,4.8l3.8,5h-1.2L292,538z"/>
		<path fill="#AD794B" d="M299.1,542c-0.6-0.3-1-0.8-1.3-1.3s-0.5-1.2-0.5-1.9s0.2-1.4,0.5-1.9s0.8-1,1.3-1.3    c0.6-0.3,1.2-0.5,1.9-0.5c0.7,0,1.3,0.2,1.9,0.5c0.6,0.3,1,0.8,1.3,1.3c0.3,0.6,0.5,1.2,0.5,1.9s-0.2,1.4-0.5,1.9    c-0.3,0.6-0.8,1-1.3,1.3c-0.6,0.3-1.2,0.5-1.9,0.5C300.3,542.5,299.7,542.4,299.1,542z M302.4,541.3c0.4-0.2,0.7-0.6,1-1    c0.2-0.4,0.4-0.9,0.4-1.5c0-0.6-0.1-1.1-0.4-1.5s-0.6-0.8-1-1c-0.4-0.2-0.9-0.4-1.4-0.4c-0.5,0-1,0.1-1.4,0.4    c-0.4,0.2-0.7,0.6-1,1c-0.2,0.4-0.4,0.9-0.4,1.5c0,0.6,0.1,1.1,0.4,1.5c0.2,0.4,0.6,0.8,1,1c0.4,0.2,0.9,0.4,1.4,0.4    C301.5,541.6,302,541.5,302.4,541.3z"/>
		<path fill="#AD794B" d="M312.5,535.5c0.6,0.3,1,0.8,1.3,1.3s0.5,1.2,0.5,1.9c0,0.7-0.2,1.4-0.5,2s-0.8,1-1.3,1.3    c-0.6,0.3-1.2,0.5-1.9,0.5c-0.6,0-1.1-0.1-1.6-0.4c-0.5-0.2-0.9-0.6-1.2-1.1v4.1h-1v-10.1h1v1.5c0.3-0.5,0.7-0.9,1.2-1.1    c0.5-0.3,1-0.4,1.7-0.4C311.4,535,312,535.2,312.5,535.5z M312,541.3c0.4-0.2,0.7-0.6,1-1c0.2-0.4,0.4-0.9,0.4-1.5    c0-0.6-0.1-1.1-0.4-1.5c-0.2-0.4-0.6-0.8-1-1c-0.4-0.2-0.9-0.4-1.4-0.4c-0.5,0-1,0.1-1.4,0.4c-0.4,0.2-0.7,0.6-1,1    c-0.2,0.4-0.4,0.9-0.4,1.5c0,0.6,0.1,1.1,0.4,1.5c0.2,0.4,0.6,0.8,1,1c0.4,0.2,0.9,0.4,1.4,0.4C311.1,541.6,311.6,541.5,312,541.3    z"/>
		<path fill="#AD794B" d="M316.5,535.1h1v5.9l4.9-5.9h0.9v7.4h-1v-5.9l-4.9,5.9h-0.9V535.1z"/>
		<path fill="#AD794B" d="M333.3,541.6v2.6h-0.9v-1.8h-6.6v1.8h-0.9v-2.6h0.4c0.5,0,0.8-0.4,1-1.1c0.2-0.7,0.3-1.7,0.4-2.9l0.1-2.5    h5.4v6.5H333.3z M327.3,540.2c-0.1,0.7-0.4,1.1-0.7,1.4h4.6V536h-3.5l-0.1,1.6C327.5,538.6,327.4,539.5,327.3,540.2z"/>
		<path fill="#AD794B" d="M336.3,542c-0.6-0.3-1-0.8-1.3-1.3c-0.3-0.6-0.5-1.2-0.5-1.9s0.2-1.4,0.5-1.9c0.3-0.6,0.8-1,1.3-1.3    c0.6-0.3,1.2-0.5,1.9-0.5c0.7,0,1.3,0.2,1.9,0.5c0.6,0.3,1,0.8,1.3,1.3s0.5,1.2,0.5,1.9s-0.2,1.4-0.5,1.9s-0.8,1-1.3,1.3    s-1.2,0.5-1.9,0.5C337.5,542.5,336.9,542.4,336.3,542z M339.7,541.3c0.4-0.2,0.7-0.6,1-1c0.2-0.4,0.3-0.9,0.3-1.5    c0-0.6-0.1-1.1-0.3-1.5s-0.6-0.8-1-1c-0.4-0.2-0.9-0.4-1.4-0.4c-0.5,0-1,0.1-1.4,0.4c-0.4,0.2-0.7,0.6-1,1    c-0.2,0.4-0.4,0.9-0.4,1.5c0,0.6,0.1,1.1,0.4,1.5c0.2,0.4,0.6,0.8,1,1s0.9,0.4,1.4,0.4C338.8,541.6,339.3,541.5,339.7,541.3z"/>
		<path fill="#AD794B" d="M349.8,535.5c0.6,0.3,1,0.8,1.3,1.3c0.3,0.6,0.5,1.2,0.5,1.9c0,0.7-0.2,1.4-0.5,2c-0.3,0.6-0.8,1-1.3,1.3    c-0.6,0.3-1.2,0.5-1.9,0.5c-0.6,0-1.1-0.1-1.6-0.4s-0.9-0.6-1.2-1.1v4.1h-1v-10.1h1v1.5c0.3-0.5,0.7-0.9,1.2-1.1    c0.5-0.3,1-0.4,1.7-0.4C348.6,535,349.2,535.2,349.8,535.5z M349.2,541.3c0.4-0.2,0.7-0.6,1-1c0.2-0.4,0.4-0.9,0.4-1.5    c0-0.6-0.1-1.1-0.4-1.5c-0.2-0.4-0.6-0.8-1-1c-0.4-0.2-0.9-0.4-1.4-0.4c-0.5,0-1,0.1-1.4,0.4c-0.4,0.2-0.7,0.6-1,1    c-0.2,0.4-0.4,0.9-0.4,1.5c0,0.6,0.1,1.1,0.4,1.5c0.2,0.4,0.6,0.8,1,1c0.4,0.2,0.9,0.4,1.4,0.4    C348.4,541.6,348.8,541.5,349.2,541.3z"/>
		<path fill="#AD794B" d="M295.2,549.4v1.2l-3.8,8.6h-1.9l3.7-8.3h-3.9v1.7h-1.7v-3.2H295.2z"/>
		<path fill="#AD794B" d="M297.5,557.3c0.2,0.2,0.3,0.5,0.3,0.8c0,0.1,0,0.3-0.1,0.5s-0.1,0.4-0.3,0.7l-0.7,2h-1.1l0.6-2.1    c-0.2-0.1-0.4-0.2-0.5-0.4c-0.1-0.2-0.2-0.4-0.2-0.6c0-0.3,0.1-0.6,0.3-0.8c0.2-0.2,0.5-0.3,0.8-0.3    C297,557,297.3,557.1,297.5,557.3z"/>
		<path fill="#AD794B" d="M306.2,549.4v1.2l-3.8,8.6h-1.9l3.7-8.3h-3.9v1.7h-1.7v-3.2H306.2z"/>
		<path fill="#AD794B" d="M314.7,549.4v1.2l-3.8,8.6h-1.9l3.7-8.3h-3.9v1.7h-1.7v-3.2H314.7z"/>
	</g>
	<g>
		<path fill="#AD794B" d="M152.4,513.4c-0.8-0.4-1.4-1-1.8-1.8s-0.7-1.6-0.7-2.6c0-0.9,0.2-1.8,0.7-2.6s1.1-1.4,1.8-1.8    c0.8-0.4,1.7-0.6,2.6-0.6c0.7,0,1.4,0.1,2,0.4c0.6,0.2,1.1,0.6,1.6,1.1l-0.7,0.7c-0.8-0.8-1.7-1.2-2.9-1.2c-0.8,0-1.5,0.2-2.1,0.5    s-1.1,0.8-1.5,1.5c-0.4,0.6-0.5,1.3-0.5,2.1c0,0.8,0.2,1.5,0.5,2.1s0.9,1.1,1.5,1.5s1.3,0.5,2.1,0.5c1.2,0,2.1-0.4,2.9-1.2    l0.7,0.7c-0.4,0.5-1,0.8-1.6,1.1s-1.3,0.4-2,0.4C154.1,514.1,153.2,513.8,152.4,513.4z"/>
		<path fill="#AD794B" d="M163.4,502.2h0.9l-4.6,13.2h-0.9L163.4,502.2z"/>
		<path fill="#AD794B" d="M171.1,506.6l-3.7,8.2c-0.3,0.7-0.6,1.2-1,1.5c-0.4,0.3-0.9,0.4-1.4,0.4c-0.4,0-0.7-0.1-1-0.2    s-0.6-0.3-0.8-0.5l0.5-0.7c0.4,0.4,0.8,0.6,1.3,0.6c0.3,0,0.6-0.1,0.9-0.3c0.2-0.2,0.5-0.5,0.7-1l0.3-0.7l-3.3-7.4h1l2.8,6.3    l2.8-6.3H171.1z"/>
		<path fill="#AD794B" d="M156,526c0.5,0.5,0.7,1.1,0.7,1.9c0,0.6-0.1,1.1-0.4,1.6c-0.3,0.5-0.7,0.8-1.3,1.1    c-0.6,0.3-1.3,0.4-2.1,0.4c-0.7,0-1.4-0.1-2-0.3c-0.6-0.2-1.2-0.5-1.7-0.8l0.8-1.4c0.4,0.3,0.8,0.5,1.3,0.7s1,0.3,1.6,0.3    c0.6,0,1.2-0.1,1.5-0.4c0.4-0.3,0.6-0.6,0.6-1.1s-0.2-0.8-0.5-1.1c-0.3-0.3-0.9-0.4-1.6-0.4h-0.9v-1.2l2.2-2.6h-4.5V521h6.7v1.2    l-2.4,2.8C154.8,525.1,155.5,525.4,156,526z"/>
		<path fill="#AD794B" d="M159.8,528.9c0.2,0.2,0.3,0.5,0.3,0.8c0,0.1,0,0.3-0.1,0.5s-0.1,0.4-0.3,0.7l-0.7,2h-1.1l0.6-2.1    c-0.2-0.1-0.4-0.2-0.5-0.4c-0.1-0.2-0.2-0.4-0.2-0.6c0-0.3,0.1-0.6,0.3-0.8c0.2-0.2,0.5-0.3,0.8-0.3    C159.3,528.6,159.6,528.7,159.8,528.9z"/>
		<path fill="#AD794B" d="M164.5,521v9.8h-1.8v-8.3h-2.1V521H164.5z"/>
		<path fill="#AD794B" d="M168.4,530.3c-0.6-0.4-1.1-1-1.5-1.7c-0.4-0.8-0.5-1.7-0.5-2.7c0-1,0.2-1.9,0.5-2.7    c0.4-0.8,0.8-1.3,1.5-1.7s1.3-0.6,2.1-0.6c0.8,0,1.5,0.2,2.1,0.6s1.1,1,1.5,1.7c0.4,0.8,0.5,1.7,0.5,2.7c0,1-0.2,1.9-0.5,2.7    c-0.4,0.8-0.8,1.3-1.5,1.7s-1.3,0.6-2.1,0.6C169.7,530.9,169,530.7,168.4,530.3z M172.2,528.5c0.4-0.6,0.6-1.4,0.6-2.6    c0-1.1-0.2-2-0.6-2.6c-0.4-0.6-1-0.9-1.7-0.9c-0.7,0-1.2,0.3-1.6,0.9c-0.4,0.6-0.6,1.4-0.6,2.6c0,1.1,0.2,2,0.6,2.6    c0.4,0.6,1,0.9,1.6,0.9C171.2,529.3,171.8,529,172.2,528.5z"/>
	</g>
	<g>
		<path fill="#AD794B" d="M371.1,650.6c-0.8-0.4-1.4-1-1.8-1.8s-0.7-1.6-0.7-2.6c0-0.9,0.2-1.8,0.7-2.6s1.1-1.4,1.8-1.8    c0.8-0.4,1.7-0.6,2.6-0.6c0.7,0,1.4,0.1,2,0.4c0.6,0.2,1.1,0.6,1.6,1.1l-0.7,0.7c-0.8-0.8-1.7-1.2-2.9-1.2c-0.8,0-1.5,0.2-2.1,0.5    s-1.1,0.8-1.5,1.5c-0.4,0.6-0.5,1.3-0.5,2.1c0,0.8,0.2,1.5,0.5,2.1s0.9,1.1,1.5,1.5s1.3,0.5,2.1,0.5c1.2,0,2.1-0.4,2.9-1.2    l0.7,0.7c-0.4,0.5-1,0.8-1.6,1.1s-1.3,0.4-2,0.4C372.7,651.2,371.8,651,371.1,650.6z"/>
		<path fill="#AD794B" d="M382,639.4h0.9l-4.6,13.2h-0.9L382,639.4z"/>
		<path fill="#AD794B" d="M389.7,643.8L386,652c-0.3,0.7-0.6,1.2-1,1.5c-0.4,0.3-0.9,0.4-1.4,0.4c-0.4,0-0.7-0.1-1-0.2    s-0.6-0.3-0.8-0.5l0.5-0.7c0.4,0.4,0.8,0.6,1.3,0.6c0.3,0,0.6-0.1,0.9-0.3c0.2-0.2,0.5-0.5,0.7-1l0.3-0.7l-3.3-7.4h1l2.8,6.3    l2.8-6.3H389.7z"/>
		<path fill="#AD794B" d="M374.6,663.1c0.5,0.5,0.7,1.1,0.7,1.9c0,0.6-0.1,1.1-0.4,1.6s-0.7,0.8-1.3,1.1c-0.6,0.3-1.3,0.4-2.1,0.4    c-0.7,0-1.4-0.1-2-0.3c-0.6-0.2-1.2-0.5-1.7-0.8l0.8-1.4c0.4,0.3,0.8,0.5,1.3,0.7s1,0.3,1.6,0.3c0.6,0,1.2-0.1,1.5-0.4    c0.4-0.3,0.6-0.6,0.6-1.1s-0.2-0.8-0.5-1.1c-0.3-0.3-0.9-0.4-1.6-0.4h-0.9v-1.2l2.2-2.6h-4.5v-1.5h6.7v1.2l-2.4,2.8    C373.4,662.3,374.1,662.6,374.6,663.1z"/>
		<path fill="#AD794B" d="M378.4,666.1c0.2,0.2,0.3,0.5,0.3,0.8c0,0.1,0,0.3-0.1,0.5s-0.1,0.4-0.3,0.7l-0.7,2h-1.1l0.6-2.1    c-0.2-0.1-0.4-0.2-0.5-0.4c-0.1-0.2-0.2-0.4-0.2-0.6c0-0.3,0.1-0.6,0.3-0.8c0.2-0.2,0.5-0.3,0.8-0.3    C377.9,665.7,378.2,665.8,378.4,666.1z"/>
		<path fill="#AD794B" d="M386.1,662.8c0.7,0.5,1,1.3,1,2.2c0,0.6-0.1,1.1-0.4,1.6c-0.3,0.5-0.7,0.9-1.3,1.1    c-0.6,0.3-1.3,0.4-2.1,0.4c-0.7,0-1.4-0.1-2-0.3c-0.7-0.2-1.2-0.5-1.7-0.8l0.8-1.4c0.4,0.3,0.8,0.5,1.3,0.7s1,0.3,1.6,0.3    c0.6,0,1.2-0.1,1.5-0.4c0.4-0.3,0.6-0.6,0.6-1.1c0-0.5-0.2-0.9-0.6-1.1c-0.4-0.3-1.1-0.4-2-0.4h-2.4l0.5-5.3h5.8v1.5h-4.2    l-0.2,2.3h0.9C384.4,662,385.4,662.2,386.1,662.8z"/>
		<path fill="#AD794B" d="M396.8,665.7h-1.7v2.2h-1.8v-2.2H388v-1.3l4.8-6.3h1.9l-4.5,6h3.2v-2h1.7v2h1.7V665.7z"/>
	</g>
	<rect x="546.1" y="403.1" fill="#AD794B" width="72.8" height="66.1"/>
	<g>
		<path fill="#FEFCF9" d="M565.4,428.4v1.3h-10v-1l5.9-5.8c0.7-0.7,1.2-1.4,1.5-1.9c0.3-0.5,0.4-1.1,0.4-1.6c0-0.8-0.3-1.5-0.9-2    c-0.6-0.5-1.4-0.7-2.5-0.7c-1.7,0-3,0.5-3.9,1.6l-1-0.9c0.6-0.6,1.3-1.1,2.1-1.5c0.9-0.4,1.8-0.5,2.9-0.5c1.4,0,2.6,0.3,3.4,1    s1.3,1.6,1.3,2.8c0,0.7-0.2,1.4-0.5,2.1s-0.9,1.5-1.8,2.3l-4.8,4.7H565.4z"/>
		<path fill="#FEFCF9" d="M572.9,423.1L570,426v3.7h-1.5v-14.2h1.5v8.6l8.3-8.6h1.7l-6.1,6.4l6.6,7.8h-1.8L572.9,423.1z"/>
		<path fill="#FEFCF9" d="M590.2,423.2h-3.8v3.7h-1.3v-3.7h-3.8v-1.2h3.8v-3.7h1.3v3.7h3.8V423.2z"/>
		<path fill="#FEFCF9" d="M564.5,445.8c0.7,0.4,1.3,0.9,1.7,1.5c0.4,0.7,0.6,1.4,0.6,2.3c0,0.9-0.2,1.7-0.7,2.4    c-0.5,0.7-1.1,1.2-1.9,1.6c-0.8,0.4-1.7,0.6-2.6,0.6c-1.9,0-3.5-0.6-4.5-1.8c-1.1-1.2-1.6-3-1.6-5.2c0-1.6,0.3-3,0.9-4.1    c0.6-1.1,1.4-2,2.4-2.6c1-0.6,2.3-0.9,3.6-0.9c0.7,0,1.4,0.1,2.1,0.2c0.6,0.2,1.2,0.4,1.7,0.7l-1,2c-0.7-0.5-1.6-0.7-2.7-0.7    c-1.4,0-2.4,0.4-3.2,1.3c-0.8,0.8-1.2,2-1.2,3.6v0c0.4-0.5,1-0.9,1.6-1.1c0.6-0.3,1.4-0.4,2.2-0.4    C562.9,445.3,563.8,445.5,564.5,445.8z M563.6,451.5c0.5-0.4,0.8-1,0.8-1.8c0-0.7-0.3-1.3-0.8-1.8s-1.2-0.6-2.1-0.6    c-0.9,0-1.5,0.2-2.1,0.7c-0.5,0.5-0.8,1-0.8,1.7c0,0.7,0.3,1.3,0.8,1.7c0.5,0.5,1.2,0.7,2.2,0.7C562.4,452.2,563,452,563.6,451.5z    "/>
		<path fill="#FEFCF9" d="M578.5,451.8v2.2h-10.5v-1.8l5.6-5.4c0.6-0.6,1.1-1.1,1.3-1.6c0.2-0.5,0.3-0.9,0.3-1.3    c0-0.7-0.2-1.2-0.7-1.5s-1.1-0.5-2-0.5c-1.4,0-2.6,0.5-3.3,1.5l-1.8-1.4c0.6-0.7,1.3-1.3,2.2-1.7c0.9-0.4,2-0.6,3.2-0.6    c1.5,0,2.8,0.4,3.7,1.1c0.9,0.7,1.4,1.7,1.4,3c0,0.8-0.2,1.5-0.5,2.2c-0.3,0.7-0.9,1.4-1.9,2.3l-3.8,3.6H578.5z"/>
		<path fill="#FEFCF9" d="M583,451.3c0.3,0.3,0.5,0.7,0.5,1.2c0,0.2,0,0.4-0.1,0.7c-0.1,0.2-0.2,0.6-0.4,1.1l-1,2.9h-1.6l0.8-3.1    c-0.3-0.1-0.5-0.3-0.7-0.6c-0.2-0.3-0.3-0.6-0.3-0.9c0-0.5,0.2-0.9,0.5-1.2c0.3-0.3,0.7-0.5,1.2-0.5    C582.3,450.8,582.7,451,583,451.3z"/>
		<path fill="#FEFCF9" d="M593.9,445.8c0.7,0.4,1.3,0.9,1.7,1.5c0.4,0.7,0.6,1.4,0.6,2.3c0,0.9-0.2,1.7-0.7,2.4    c-0.5,0.7-1.1,1.2-1.9,1.6c-0.8,0.4-1.7,0.6-2.6,0.6c-1.9,0-3.5-0.6-4.5-1.8c-1.1-1.2-1.6-3-1.6-5.2c0-1.6,0.3-3,0.9-4.1    c0.6-1.1,1.4-2,2.4-2.6c1-0.6,2.3-0.9,3.6-0.9c0.7,0,1.4,0.1,2.1,0.2c0.6,0.2,1.2,0.4,1.7,0.7l-1,2c-0.7-0.5-1.6-0.7-2.7-0.7    c-1.4,0-2.4,0.4-3.2,1.3c-0.8,0.8-1.2,2-1.2,3.6v0c0.4-0.5,1-0.9,1.6-1.1c0.6-0.3,1.4-0.4,2.2-0.4    C592.3,445.3,593.2,445.5,593.9,445.8z M593,451.5c0.5-0.4,0.8-1,0.8-1.8c0-0.7-0.3-1.3-0.8-1.8s-1.2-0.6-2.1-0.6    c-0.9,0-1.5,0.2-2.1,0.7c-0.5,0.5-0.8,1-0.8,1.7c0,0.7,0.3,1.3,0.8,1.7c0.5,0.5,1.2,0.7,2.2,0.7C591.8,452.2,592.5,452,593,451.5z    "/>
		<path fill="#FEFCF9" d="M606.6,445.8c0.7,0.4,1.3,0.9,1.7,1.5c0.4,0.7,0.6,1.4,0.6,2.3c0,0.9-0.2,1.7-0.7,2.4    c-0.5,0.7-1.1,1.2-1.9,1.6c-0.8,0.4-1.7,0.6-2.6,0.6c-1.9,0-3.5-0.6-4.5-1.8c-1.1-1.2-1.6-3-1.6-5.2c0-1.6,0.3-3,0.9-4.1    c0.6-1.1,1.4-2,2.4-2.6c1-0.6,2.3-0.9,3.6-0.9c0.7,0,1.4,0.1,2.1,0.2c0.6,0.2,1.2,0.4,1.7,0.7l-1,2c-0.7-0.5-1.6-0.7-2.7-0.7    c-1.4,0-2.4,0.4-3.2,1.3c-0.8,0.8-1.2,2-1.2,3.6v0c0.4-0.5,1-0.9,1.6-1.1c0.6-0.3,1.4-0.4,2.2-0.4    C605.1,445.3,605.9,445.5,606.6,445.8z M605.7,451.5c0.5-0.4,0.8-1,0.8-1.8c0-0.7-0.3-1.3-0.8-1.8s-1.2-0.6-2.1-0.6    c-0.9,0-1.5,0.2-2.1,0.7c-0.5,0.5-0.8,1-0.8,1.7c0,0.7,0.3,1.3,0.8,1.7c0.5,0.5,1.2,0.7,2.2,0.7    C604.5,452.2,605.2,452,605.7,451.5z"/>
	</g>
</g>

</svg>
