<?xml version="1.0" encoding="utf-8"?>
<!-- Generator: Adobe Illustrator 23.0.2, SVG Export Plug-In . SVG Version: 6.00 Build 0)  -->
<svg version="1.1" xmlns="http://www.w3.org/2000/svg" xmlns:xlink="http://www.w3.org/1999/xlink" x="0px" y="0px"
	 viewBox="0 0 800 653" enable-background="new 0 0 800 653" xml:space="preserve">
<g id="Слой_4">
	<polygon fill="#FFFFFF" points="691.9,11.6 691.9,106.9 789.4,106.9 789.4,518 292.7,518 292.7,628.4 139,628.4 139,574.4 
		25.2,574.4 25.2,11.6 	"/>
</g>
<g id="plan">
	<rect x="128.9" y="565.4" fill="#40352D" width="20.2" height="72.6"/>
	<rect x="277.2" y="505" fill="#40352D" width="20.2" height="123.4"/>
	
		<rect x="513.8" y="276.2" transform="matrix(-1.836970e-16 1 -1 -1.836970e-16 1039.0497 -8.8068)" fill="#40352D" width="20.2" height="477.9"/>
	<rect x="123.1" y="565.4" fill="#40352D" width="24.8" height="18"/>
	<rect x="143" y="618.7" fill="#40352D" width="154.4" height="19.3"/>
	<rect x="25.2" y="565.4" fill="#40352D" width="34.5" height="18"/>
	
		<rect x="215.5" y="447.7" transform="matrix(6.123234e-17 -1 1 6.123234e-17 -170.4859 733.5093)" fill="#40352D" width="132" height="8.6"/>
	
		<rect x="409.1" y="447.7" transform="matrix(6.123234e-17 -1 1 6.123234e-17 23.09 927.0852)" fill="#40352D" width="132" height="8.6"/>
	<rect x="283" y="499.3" fill="#40352D" width="190.3" height="8.6"/>
	<rect x="278.9" y="386" fill="#40352D" width="67.9" height="8.6"/>
	<rect x="402.9" y="386" fill="#40352D" width="17.7" height="8.6"/>
	
		<rect x="547.4" y="375" transform="matrix(-1.836970e-16 1 -1 -1.836970e-16 934.2414 -175.564)" fill="#40352D" width="15" height="8.6"/>
	
		<rect x="547.4" y="304.4" transform="matrix(-1.836970e-16 1 -1 -1.836970e-16 863.6312 -246.1741)" fill="#40352D" width="15" height="8.6"/>
	<rect x="411.1" y="378" fill="#40352D" width="148.1" height="8.6"/>
	<rect x="545.3" y="300.1" fill="#40352D" width="215.7" height="8.6"/>
	<rect x="401.5" y="300.1" fill="#40352D" width="89.4" height="8.6"/>
	<rect x="258.7" y="300.1" fill="#40352D" width="87.2" height="8.6"/>
	
		<rect x="138.8" y="162.4" transform="matrix(-1.836970e-16 1 -1 -1.836970e-16 435.533 -102.1671)" fill="#40352D" width="260.1" height="8.6"/>
	<rect x="229.6" y="317.9" fill="#40352D" width="13" height="8.6"/>
	<rect x="168.2" y="317.9" fill="#40352D" width="14.4" height="8.6"/>
	
		<rect x="154.3" y="339.1" transform="matrix(-1.836970e-16 1 -1 -1.836970e-16 515.8918 170.9908)" fill="#40352D" width="36.3" height="8.6"/>
	
		<rect x="152.8" y="432.7" transform="matrix(-1.836970e-16 1 -1 -1.836970e-16 609.4852 264.5842)" fill="#40352D" width="39.3" height="8.6"/>
	
		<rect x="37.1" y="447.7" transform="matrix(-1 -1.224647e-16 1.224647e-16 -1 206.5419 903.9952)" fill="#40352D" width="132.4" height="8.6"/>
	
		<rect x="37.1" y="328.4" transform="matrix(-1 -1.224647e-16 1.224647e-16 -1 121.4122 665.2879)" fill="#40352D" width="47.2" height="8.6"/>
	
		<rect x="126.6" y="336.1" transform="matrix(-1 -1.224647e-16 1.224647e-16 -1 296.0539 680.746)" fill="#40352D" width="42.9" height="8.6"/>
	<rect x="241.2" y="294.5" fill="#40352D" width="31.9" height="31.9"/>
	
		<rect x="384.9" y="203.9" transform="matrix(-1.836970e-16 1 -1 -1.836970e-16 688.2419 -271.8762)" fill="#40352D" width="190.4" height="8.6"/>
	<g>
		
			<rect x="265.4" y="456" transform="matrix(-1.836970e-16 1 -1 -1.836970e-16 744.1416 171.0588)" fill="#40352D" width="42.2" height="3.1"/>
		
			<rect x="277.8" y="456" transform="matrix(-1.836970e-16 1 -1 -1.836970e-16 756.4926 158.7079)" fill="#40352D" width="42.2" height="3.1"/>
		
			<rect x="285.8" y="436.5" transform="matrix(-1 -1.224647e-16 1.224647e-16 -1 585.3561 876.0891)" fill="#40352D" width="13.7" height="3.1"/>
		
			<rect x="285.8" y="447.4" transform="matrix(-1 -1.224647e-16 1.224647e-16 -1 585.3561 897.9945)" fill="#40352D" width="13.7" height="3.1"/>
		
			<rect x="285.8" y="465.6" transform="matrix(-1 -1.224647e-16 1.224647e-16 -1 585.3561 934.3483)" fill="#40352D" width="13.7" height="3.1"/>
		
			<rect x="285.8" y="475.6" transform="matrix(-1 -1.224647e-16 1.224647e-16 -1 585.3561 954.3118)" fill="#40352D" width="13.7" height="3.1"/>
	</g>
	<g>
		
			<rect x="265.4" y="414.2" transform="matrix(-1.836970e-16 1 -1 -1.836970e-16 702.2532 129.1704)" fill="#40352D" width="42.2" height="3.1"/>
		
			<rect x="277.8" y="414.2" transform="matrix(-1.836970e-16 1 -1 -1.836970e-16 714.6042 116.8195)" fill="#40352D" width="42.2" height="3.1"/>
		
			<rect x="285.8" y="394.6" transform="matrix(-1 -1.224647e-16 1.224647e-16 -1 585.3561 792.3124)" fill="#40352D" width="13.7" height="3.1"/>
		
			<rect x="285.8" y="405.6" transform="matrix(-1 -1.224647e-16 1.224647e-16 -1 585.3561 814.2178)" fill="#40352D" width="13.7" height="3.1"/>
		
			<rect x="285.8" y="423.7" transform="matrix(-1 -1.224647e-16 1.224647e-16 -1 585.3561 850.5715)" fill="#40352D" width="13.7" height="3.1"/>
		
			<rect x="285.8" y="433.7" transform="matrix(-1 -1.224647e-16 1.224647e-16 -1 585.3561 870.535)" fill="#40352D" width="13.7" height="3.1"/>
	</g>
	<g>
		
			<rect x="43.7" y="432.8" transform="matrix(-1 -1.224647e-16 1.224647e-16 -1 129.5361 868.7484)" fill="#40352D" width="42.2" height="3.1"/>
		
			<rect x="43.7" y="445.2" transform="matrix(-1 -1.224647e-16 1.224647e-16 -1 129.5361 893.4503)" fill="#40352D" width="42.2" height="3.1"/>
		
			<rect x="77.5" y="439" transform="matrix(6.123234e-17 -1 1 6.123234e-17 -356.1871 524.8346)" fill="#40352D" width="13.7" height="3.1"/>
		
			<rect x="66.5" y="439" transform="matrix(6.123234e-17 -1 1 6.123234e-17 -367.1398 513.8818)" fill="#40352D" width="13.7" height="3.1"/>
		
			<rect x="48.4" y="439" transform="matrix(6.123234e-17 -1 1 6.123234e-17 -385.3167 495.705)" fill="#40352D" width="13.7" height="3.1"/>
		
			<rect x="38.4" y="439" transform="matrix(6.123234e-17 -1 1 6.123234e-17 -395.2984 485.7232)" fill="#40352D" width="13.7" height="3.1"/>
	</g>
	<g>
		
			<rect x="85.1" y="432.8" transform="matrix(-1 -1.224647e-16 1.224647e-16 -1 212.3418 868.6707)" fill="#40352D" width="42.2" height="3.1"/>
		
			<rect x="85.1" y="445.1" transform="matrix(-1 -1.224647e-16 1.224647e-16 -1 212.3418 893.3726)" fill="#40352D" width="42.2" height="3.1"/>
		
			<rect x="118.9" y="438.9" transform="matrix(6.123234e-17 -1 1 6.123234e-17 -314.7454 566.1986)" fill="#40352D" width="13.7" height="3.1"/>
		
			<rect x="107.9" y="438.9" transform="matrix(6.123234e-17 -1 1 6.123234e-17 -325.6981 555.2459)" fill="#40352D" width="13.7" height="3.1"/>
		
			<rect x="89.8" y="438.9" transform="matrix(6.123234e-17 -1 1 6.123234e-17 -343.875 537.069)" fill="#40352D" width="13.7" height="3.1"/>
		
			<rect x="79.8" y="438.9" transform="matrix(6.123234e-17 -1 1 6.123234e-17 -353.8567 527.0873)" fill="#40352D" width="13.7" height="3.1"/>
	</g>
	<g>
		
			<rect x="84.4" y="342.7" transform="matrix(-1 -1.224647e-16 1.224647e-16 -1 210.9825 688.5527)" fill="#40352D" width="42.2" height="3.1"/>
		
			<rect x="84.4" y="355.1" transform="matrix(-1 -1.224647e-16 1.224647e-16 -1 210.9825 713.2546)" fill="#40352D" width="42.2" height="3.1"/>
		
			<rect x="118.2" y="348.9" transform="matrix(6.123234e-17 -1 1 6.123234e-17 -225.3661 475.4599)" fill="#40352D" width="13.7" height="3.1"/>
		
			<rect x="107.3" y="348.9" transform="matrix(6.123234e-17 -1 1 6.123234e-17 -236.3188 464.5072)" fill="#40352D" width="13.7" height="3.1"/>
		
			<rect x="89.1" y="348.9" transform="matrix(6.123234e-17 -1 1 6.123234e-17 -254.4957 446.3303)" fill="#40352D" width="13.7" height="3.1"/>
		
			<rect x="79.1" y="348.9" transform="matrix(6.123234e-17 -1 1 6.123234e-17 -264.4774 436.3486)" fill="#40352D" width="13.7" height="3.1"/>
	</g>
	<g>
		
			<rect x="84.4" y="328.4" transform="matrix(-1 -1.224647e-16 1.224647e-16 -1 210.9825 659.8115)" fill="#40352D" width="42.2" height="3.1"/>
		
			<rect x="84.4" y="340.7" transform="matrix(-1 -1.224647e-16 1.224647e-16 -1 210.9825 684.5134)" fill="#40352D" width="42.2" height="3.1"/>
		
			<rect x="118.2" y="334.5" transform="matrix(6.123234e-17 -1 1 6.123234e-17 -210.9955 461.0893)" fill="#40352D" width="13.7" height="3.1"/>
		
			<rect x="107.3" y="334.5" transform="matrix(6.123234e-17 -1 1 6.123234e-17 -221.9482 450.1366)" fill="#40352D" width="13.7" height="3.1"/>
		
			<rect x="89.1" y="334.5" transform="matrix(6.123234e-17 -1 1 6.123234e-17 -240.1251 431.9597)" fill="#40352D" width="13.7" height="3.1"/>
		
			<rect x="79.1" y="334.5" transform="matrix(6.123234e-17 -1 1 6.123234e-17 -250.1068 421.978)" fill="#40352D" width="13.7" height="3.1"/>
	</g>
	<g>
		
			<rect x="125" y="342.7" transform="matrix(-1 -1.224647e-16 1.224647e-16 -1 293.2058 688.475)" fill="#40352D" width="43.1" height="3.1"/>
		
			<rect x="125" y="355" transform="matrix(-1 -1.224647e-16 1.224647e-16 -1 293.2058 713.1769)" fill="#40352D" width="43.1" height="3.1"/>
		
			<rect x="159.7" y="348.8" transform="matrix(6.123234e-17 -1 1 6.123234e-17 -183.8019 516.9464)" fill="#40352D" width="13.7" height="3.2"/>
		
			<rect x="148.6" y="348.8" transform="matrix(6.123234e-17 -1 1 6.123234e-17 -194.9863 505.762)" fill="#40352D" width="13.7" height="3.2"/>
		
			<rect x="130" y="348.8" transform="matrix(6.123234e-17 -1 1 6.123234e-17 -213.5477 487.2006)" fill="#40352D" width="13.7" height="3.2"/>
		
			<rect x="119.8" y="348.8" transform="matrix(6.123234e-17 -1 1 6.123234e-17 -223.7406 477.0077)" fill="#40352D" width="13.7" height="3.2"/>
	</g>
	<rect x="759" y="466.1" fill="#40352D" width="30.5" height="59.1"/>
	<rect x="759" y="279" fill="#40352D" width="30.5" height="72.7"/>
	<rect x="759" y="96.7" fill="#40352D" width="30.5" height="68.5"/>
	<rect x="475.8" y="31.5" fill="#40352D" width="30.5" height="79.8"/>
	<rect x="9.4" y="9.1" fill="#40352D" width="111.4" height="29.1"/>
	<rect x="9.4" y="33" fill="#40352D" width="34.7" height="152.3"/>
	<rect x="14" y="163.9" fill="#40352D" width="30.1" height="292.8"/>
	<rect x="14" y="454.1" fill="#40352D" width="22.7" height="67.2"/>
	<rect x="20.2" y="516.2" fill="#40352D" width="16.5" height="67.2"/>
	<rect x="208.3" y="9.1" fill="#40352D" width="115.2" height="29.1"/>
	<rect x="437" y="9.1" fill="#40352D" width="69.2" height="29.1"/>
	<rect x="475.8" y="96.7" fill="#40352D" width="75.8" height="29.1"/>
	<rect x="609.4" y="96.7" fill="#40352D" width="180.1" height="29.1"/>
	<rect x="702.4" y="522.7" fill="#40352D" width="87" height="10.6"/>
	
		<rect x="726.4" y="404.5" transform="matrix(-2.083716e-08 1 -1 -2.083716e-08 1192.5129 -374.7219)" fill="none" stroke="#40352D" stroke-miterlimit="10" width="114.4" height="8.8"/>
	
		<rect x="774.2" y="351.6" transform="matrix(-2.083664e-08 1 -1 -2.083664e-08 1130.8147 -422.5544)" fill="none" stroke="#40352D" stroke-miterlimit="10" width="4.9" height="5"/>
	
		<rect x="774.2" y="461.1" transform="matrix(-2.083664e-08 1 -1 -2.083664e-08 1240.3455 -313.0236)" fill="none" stroke="#40352D" stroke-miterlimit="10" width="4.9" height="5"/>
	
		<rect x="710" y="402" transform="matrix(-2.083700e-08 1 -1 -2.083700e-08 1176.1305 -358.3394)" fill="none" stroke="#40352D" stroke-miterlimit="10" width="114.4" height="13.9"/>
	
		<rect x="726.8" y="217.7" transform="matrix(-2.096525e-08 1 -1 -2.096525e-08 1005.7339 -561.5009)" fill="none" stroke="#40352D" stroke-miterlimit="10" width="113.7" height="8.8"/>
	
		<rect x="774.3" y="165.2" transform="matrix(-2.096511e-08 1 -1 -2.096511e-08 944.3703 -608.9988)" fill="none" stroke="#40352D" stroke-miterlimit="10" width="4.9" height="5"/>
	
		<rect x="774.3" y="274" transform="matrix(-2.096474e-08 1 -1 -2.096474e-08 1053.2319 -500.1372)" fill="none" stroke="#40352D" stroke-miterlimit="10" width="4.9" height="5"/>
	
		<rect x="710.4" y="215.2" transform="matrix(-2.096509e-08 1 -1 -2.096509e-08 989.3514 -545.1183)" fill="none" stroke="#40352D" stroke-miterlimit="10" width="113.7" height="13.9"/>
	<rect x="323.5" y="10.6" fill="none" stroke="#40352D" stroke-miterlimit="10" width="113.5" height="8.4"/>
	<rect x="323.5" y="19" fill="none" stroke="#40352D" stroke-miterlimit="10" width="4.8" height="4.8"/>
	<rect x="432.1" y="19" fill="none" stroke="#40352D" stroke-miterlimit="10" width="4.8" height="4.8"/>
	<rect x="323.5" y="23.7" fill="none" stroke="#40352D" stroke-miterlimit="10" width="113.5" height="13.1"/>
	<rect x="120.9" y="10.6" fill="none" stroke="#40352D" stroke-miterlimit="10" width="87.4" height="8.4"/>
	<rect x="120.9" y="19" fill="none" stroke="#40352D" stroke-miterlimit="10" width="3.7" height="4.8"/>
	<rect x="204.6" y="19" fill="none" stroke="#40352D" stroke-miterlimit="10" width="3.7" height="4.8"/>
	<rect x="120.9" y="23.7" fill="none" stroke="#40352D" stroke-miterlimit="10" width="87.4" height="13.1"/>
	
		<rect x="503.4" y="11.6" transform="matrix(-1 8.049425e-07 -8.049425e-07 -1 1195.2789 30.9271)" fill="none" stroke="#40352D" stroke-miterlimit="10" width="188.4" height="7.7"/>
	
		<rect x="645.5" y="50.3" transform="matrix(8.214350e-07 1 -1 8.214350e-07 742.1931 -633.8323)" fill="none" stroke="#40352D" stroke-miterlimit="10" width="85.1" height="7.7"/>
	
		<rect x="684.8" y="89.6" transform="matrix(1.184510e-06 1 -1 1.184510e-06 781.4984 -594.5269)" fill="none" stroke="#40352D" stroke-miterlimit="10" width="6.5" height="7.7"/>
	
		<rect x="684.8" y="50.3" transform="matrix(1.184510e-06 1 -1 1.184510e-06 742.1929 -633.8324)" fill="none" stroke="#40352D" stroke-miterlimit="10" width="6.5" height="7.7"/>
	
		<rect x="503.4" y="11.6" transform="matrix(1.124332e-06 1 -1 1.124332e-06 522.7293 -491.8022)" fill="none" stroke="#40352D" stroke-miterlimit="10" width="7.7" height="7.7"/>
	
		<rect x="569" y="12" transform="matrix(1.094062e-06 1 -1 1.094062e-06 588.3415 -557.4146)" fill="none" stroke="#40352D" stroke-miterlimit="10" width="7.7" height="7"/>
	
		<rect x="633.1" y="12" transform="matrix(1.094063e-06 1 -1 1.094063e-06 652.4409 -621.5142)" fill="none" stroke="#40352D" stroke-miterlimit="10" width="7.7" height="7"/>
	<line fill="none" stroke="#40352D" stroke-miterlimit="10" x1="125.7" y1="581" x2="64.3" y2="612.6"/>
	<line fill="none" stroke="#40352D" stroke-miterlimit="10" x1="205.1" y1="366.4" x2="175.4" y2="419.3"/>
	<line fill="none" stroke="#40352D" stroke-miterlimit="10" x1="231.5" y1="320.2" x2="178.6" y2="289.5"/>
	<line fill="none" stroke="#40352D" stroke-miterlimit="10" x1="403.7" y1="302.6" x2="350.2" y2="270.5"/>
	<line fill="none" stroke="#40352D" stroke-miterlimit="10" x1="541.6" y1="270.5" x2="489.4" y2="302.6"/>
	<line fill="none" stroke="#40352D" stroke-miterlimit="10" x1="556.9" y1="314.1" x2="588.9" y2="368"/>
	<line fill="none" stroke="#40352D" stroke-miterlimit="10" x1="344.6" y1="388.3" x2="398.2" y2="358"/>
	<line fill="none" stroke="#40352D" stroke-miterlimit="10" x1="557.9" y1="141.4" x2="611.2" y2="111.3"/>
</g>
<g id="furniture">
	<g id="bed2_1_" opacity="0.5">
		<path id="Vector_1_" fill="none" stroke="#40352D" d="M273.6,42.7V155c0,2.5,1.3,4.5,2.9,4.5h56.3c1.6,0,2.9-2,2.9-4.5V42.7
			c0-2.5-1.3-4.5-2.9-4.5h-56.3C274.9,38.1,273.6,40.2,273.6,42.7z"/>
		<path id="Vector_2_1_" fill="none" stroke="#40352D" d="M273.6,70v6.1h62.2V70H273.6z"/>
		<path id="Vector_3_1_" fill="none" stroke="#40352D" d="M335,76.6l-55,14.8c0-2.8-0.4-5.7-1.2-8.4c-1.2-3.4-5.3-6.4-5.3-6.4"/>
		<path id="Vector_4_1_" fill="none" stroke="#40352D" d="M322.7,43.6c0,0-1,7.5-1,10.1c0,2.5,1,10.1,1,10.1c0,0.3-0.1,0.5-0.3,0.7
			s-0.5,0.3-0.7,0.3c0,0-12.6-1-16.8-1c-3.9,0-15.6,1-15.6,1c-0.3,0-0.5-0.1-0.7-0.3s-0.3-0.5-0.3-0.7c0,0,1-7.5,1-10.1
			c0-2.5-1-10.1-1-10.1c0-0.3,0.1-0.5,0.3-0.7s0.5-0.3,0.7-0.3c0,0,11.7,1,15.6,1c4.2,0,16.8-1,16.8-1c0.3,0,0.5,0.1,0.7,0.3
			C322.6,43.1,322.7,43.4,322.7,43.6z"/>
	</g>
	<g id="tv_1_" opacity="0.5">
		<path id="Vector_8_1_" fill="none" stroke="#40352D" d="M747.2,142.8v-16.7l-112,0v16.7L747.2,142.8z"/>
		<path id="Vector_9_1_" fill="none" stroke="#40352D" d="M725.4,133.1v-2.5l-67.6,0v2.5H725.4z"/>
		<path id="Vector_10_1_" fill="none" stroke="#40352D" d="M663.3,128.9l-1.9,1.7h60.5l-1.9-1.7H663.3z"/>
	</g>
	<g id="bed_1_" opacity="0.5">
		<g id="Tumba_2_1_">
			<path id="Vector_11_1_" fill="none" stroke="#40352D" d="M759.5,505v-31.7h-31.8V505H759.5z"/>
			<path id="Vector_12_1_" fill="none" stroke="#40352D" d="M734,489.1c0,5.3,4.3,9.6,9.6,9.6c5.3,0,9.6-4.3,9.6-9.6
				c0-5.3-4.3-9.6-9.6-9.6C738.3,479.6,734,483.8,734,489.1z"/>
			<path id="Vector_13_1_" fill="none" stroke="#40352D" d="M740.7,489.1c0,1.6,1.3,2.9,2.9,2.9c1.6,0,2.9-1.3,2.9-2.9
				c0-1.6-1.3-2.9-2.9-2.9C742,486.2,740.7,487.5,740.7,489.1z"/>
		</g>
		<g id="Tumba_3_1_">
			<path id="Vector_14_1_" fill="none" stroke="#40352D" d="M607.1,505v-31.7h-31.8V505H607.1z"/>
			<path id="Vector_15_1_" fill="none" stroke="#40352D" d="M581.6,489.1c0,5.3,4.3,9.6,9.6,9.6c5.3,0,9.6-4.3,9.6-9.6
				c0-5.3-4.3-9.6-9.6-9.6C585.9,479.6,581.6,483.8,581.6,489.1z"/>
			<path id="Vector_16_1_" fill="none" stroke="#40352D" d="M588.3,489.1c0,1.6,1.3,2.9,2.9,2.9s2.9-1.3,2.9-2.9
				c0-1.6-1.3-2.9-2.9-2.9S588.3,487.5,588.3,489.1z"/>
		</g>
		<g id="bed_2_1_">
			<path id="Vector_17_1_" fill="none" stroke="#40352D" d="M723.4,499.8l0-127.7c0-2.9-2.3-5.2-5.2-5.2h-99c-2.9,0-5.2,2.3-5.2,5.2
				l0,127.7c0,2.9,2.3,5.2,5.2,5.2l99,0C721.1,505,723.4,502.6,723.4,499.8z"/>
			<path id="Vector_18_1_" fill="none" stroke="#40352D" d="M723.4,473.3v-6.4H614v6.4L723.4,473.3z"/>
			<path id="Vector_19_1_" fill="none" stroke="#40352D" d="M614,466.8l102.9-14.7c0,2.8,0.4,5.7,1.2,8.4c1.2,3.4,5.3,6.3,5.3,6.3"
				/>
			<path id="Vector_20_1_" fill="none" stroke="#40352D" d="M672.9,499.7c0,0,1-7.5,1-10c0-2.5-1-10-1-10c0-0.3,0.1-0.5,0.3-0.7
				c0.2-0.2,0.5-0.3,0.7-0.3c0,0,12.6,1,16.8,1c3.9,0,15.5-1,15.5-1c0.3,0,0.5,0.1,0.7,0.3c0.2,0.2,0.3,0.5,0.3,0.7c0,0-1,7.5-1,10
				c0,2.5,1,10,1,10c0,0.3-0.1,0.5-0.3,0.7c-0.2,0.2-0.5,0.3-0.7,0.3c0,0-11.7-1-15.5-1c-4.1,0-16.8,1-16.8,1
				c-0.3,0-0.5-0.1-0.7-0.3C673,500.3,672.9,500,672.9,499.7z"/>
			<path id="Vector_21_1_" fill="none" stroke="#40352D" d="M626.3,499.7c0,0,1-7.5,1-10c0-2.5-1-10-1-10c0-0.3,0.1-0.5,0.3-0.7
				c0.2-0.2,0.5-0.3,0.7-0.3c0,0,12.6,1,16.8,1c3.9,0,15.5-1,15.5-1c0.3,0,0.5,0.1,0.7,0.3c0.2,0.2,0.3,0.5,0.3,0.7c0,0-1,7.5-1,10
				c0,2.5,1,10,1,10c0,0.3-0.1,0.5-0.3,0.7c-0.2,0.2-0.5,0.3-0.7,0.3c0,0-11.7-1-15.5-1c-4.1,0-16.8,1-16.8,1
				c-0.3,0-0.5-0.1-0.7-0.3C626.4,500.3,626.3,500,626.3,499.7z"/>
		</g>
	</g>
	<g id="Washer_1_" opacity="0.5">
		<path id="Vector_22_1_" fill="none" stroke="#40352D" d="M304,460.1v38.7h38.7l0-38.7L304,460.1z"/>
		<path id="Vector_23_1_" fill="none" stroke="#40352D" d="M319.5,460.1v2.4c0,1.6-1.3,2.9-2.9,2.9l-5.2,0c-1.6,0-2.9-1.3-2.9-2.9
			v-2.4"/>
		<path id="Vector_24_1_" fill="none" stroke="#40352D" d="M323.4,467.1c-6.8,0-12.4,5.6-12.4,12.4c0,6.8,5.6,12.4,12.4,12.4
			s12.4-5.6,12.4-12.4C335.8,472.6,330.2,467.1,323.4,467.1z"/>
		<path id="Vector_25_1_" fill="none" stroke="#40352D" d="M323.4,468.5c-6,0-10.9,4.9-10.9,10.9c0,6,4.9,10.9,10.9,10.9
			c6,0,10.9-4.9,10.9-10.9S329.4,468.5,323.4,468.5z"/>
		<path id="Vector_26_1_" fill="none" stroke="#40352D" d="M337.4,463.3c-1,0-1.8,0.8-1.8,1.8c0,1,0.8,1.8,1.8,1.8
			c1,0,1.8-0.8,1.8-1.8C339.2,464.1,338.4,463.3,337.4,463.3z"/>
	</g>
	<g id="bath_1_" opacity="0.5">
		<path id="Vector_27_1_" fill="none" stroke="#40352D" d="M471.3,394.1h-45.8v105.4h45.8V394.1z"/>
		<path id="Vector_28_1_" fill="none" stroke="#40352D" d="M446.5,483.6h-14.4c-1.2,0-2.1-0.9-2.1-2.1v-70.4
			c0-5.8,4.7-10.5,10.5-10.5h15.8c5.8,0,10.5,4.7,10.5,10.5l0,70.4c0,1.2-0.9,2.1-2.1,2.1h-14.3"/>
		<path id="Vector_29_1_" fill="none" stroke="#40352D" d="M448.4,473c1,0,1.9-0.8,1.9-1.9c0-1-0.8-1.9-1.9-1.9
			c-1,0-1.9,0.8-1.9,1.9C446.5,472.2,447.3,473,448.4,473z"/>
		<path id="Vector_30_1_" fill="none" stroke="#40352D" d="M459.6,492.2c1.5,0,2.7-1.2,2.7-2.7c0-1.5-1.2-2.7-2.7-2.7
			c-1.5,0-2.7,1.2-2.7,2.7C456.9,491,458.1,492.2,459.6,492.2z"/>
		<path id="Vector_31_1_" fill="none" stroke="#40352D" d="M450,476.6h-3.3v9.2h3.3V476.6z"/>
		<path id="Vector_32_1_" fill="none" stroke="#40352D" d="M456.9,489h-6.6v1.6h6.6V489z"/>
		<path id="Vector_33_1_" fill="none" stroke="#40352D" d="M446.4,485.2h-8.3v3.7h19.2"/>
	</g>
	<g id="toilet_2_" opacity="0.5">
		<path id="Vector_34_2_" fill="none" stroke="#40352D" d="M373.4,489.6v7c0,1-0.8,1.8-1.8,1.8h-20.2c-1,0-1.8-0.8-1.8-1.8v-7
			c0-1,0.8-1.8,1.8-1.8h20.2C372.6,487.8,373.4,488.6,373.4,489.6z"/>
		<path id="Vector_35_2_" fill="none" stroke="#40352D" d="M374,476.1l-2.4,9h-20.1l-2.3-8.7c-1.5-5.6-0.6-11.5,2.5-16.4l2.9-4.6
			c1.6-2.5,4.3-4,7.2-4c3,0,5.8,1.6,7.4,4.2l2.7,4.5C374.6,465,375.4,470.7,374,476.1z"/>
		<path id="Vector_36_2_" fill="none" stroke="#40352D" d="M361.6,493.8c0.8,0,1.5-0.7,1.5-1.5s-0.7-1.5-1.5-1.5
			c-0.9,0-1.5,0.7-1.5,1.5S360.7,493.8,361.6,493.8z"/>
		<path id="Vector_37_2_" fill="none" stroke="#40352D" d="M351.5,485.1v2.7"/>
		<path id="Vector_38_2_" fill="none" stroke="#40352D" d="M371.6,485.1v2.7"/>
	</g>
	<g id="sink_2_" opacity="0.5">
		<path id="Vector_39_2_" fill="none" stroke="#40352D" d="M384.3,473.7h32c1.5,0,2.7,1.2,2.7,2.6v20.2c0,1.5-1.2,2.6-2.7,2.6h-32
			c-1.5,0-2.7-1.2-2.7-2.6v-20.2C381.6,474.9,382.8,473.7,384.3,473.7z"/>
		<path id="Vector_40_2_" fill="none" stroke="#40352D" d="M400,487.9h0.5c0.5,0,0.9,0.4,0.9,0.9v8.1c0,0.5-0.4,0.9-0.9,0.9H400
			c-0.5,0-0.9-0.4-0.9-0.9v-8.1C399.1,488.3,399.5,487.9,400,487.9z"/>
		<path id="Vector_41_2_" fill="none" stroke="#40352D" d="M399.2,491.7c-6.3-0.4-11.2-3.7-11.2-7.8c0-4.3,5.5-7.8,12.3-7.8
			c6.8,0,12.3,3.5,12.3,7.8c0,4-4.8,7.3-10.9,7.8"/>
		<path id="Vector_42_2_" fill="none" stroke="#40352D" d="M400.3,485.6c1,0,1.8-0.8,1.8-1.8c0-1-0.8-1.8-1.8-1.8
			c-1,0-1.8,0.8-1.8,1.8C398.5,484.9,399.3,485.6,400.3,485.6z"/>
		<path id="Vector_43_2_" fill="none" stroke="#40352D" d="M418.9,494.1h-17.5"/>
		<path id="Vector_44_2_" fill="none" stroke="#40352D" d="M399.1,494.1h-17.5"/>
	</g>
	<g id="toilet_1_" opacity="0.5">
		<path id="Vector_34_1_" fill="none" stroke="#40352D" d="M52.5,404.8h-7c-1,0-1.8-0.8-1.8-1.8v-20.2c0-1,0.8-1.8,1.8-1.8h7
			c1,0,1.8,0.8,1.8,1.8v20.2C54.2,404.1,53.4,404.8,52.5,404.8z"/>
		<path id="Vector_35_1_" fill="none" stroke="#40352D" d="M65.9,405.4l-9-2.4v-20.1l8.7-2.3c5.6-1.5,11.5-0.6,16.4,2.5l4.6,2.9
			c2.5,1.6,4,4.3,4,7.2c0,3-1.6,5.8-4.2,7.4l-4.5,2.7C77.1,406.1,71.3,406.9,65.9,405.4z"/>
		<path id="Vector_36_1_" fill="none" stroke="#40352D" d="M48.3,393c0,0.8,0.7,1.5,1.5,1.5c0.9,0,1.5-0.7,1.5-1.5
			c0-0.9-0.7-1.5-1.5-1.5C49,391.5,48.3,392.1,48.3,393z"/>
		<path id="Vector_37_1_" fill="none" stroke="#40352D" d="M56.9,383h-2.7"/>
		<path id="Vector_38_1_" fill="none" stroke="#40352D" d="M56.9,403h-2.7"/>
	</g>
	<g id="sink_1_" opacity="0.5">
		<path id="Vector_39_1_" fill="none" stroke="#40352D" d="M132.5,421.6l32,0c1.5,0,2.7,1.2,2.7,2.6l0,20.2c0,1.5-1.2,2.6-2.7,2.6
			h-32c-1.5,0-2.7-1.2-2.7-2.6l0-20.2C129.8,422.8,131,421.6,132.5,421.6z"/>
		<path id="Vector_40_1_" fill="none" stroke="#40352D" d="M148.2,435.8h0.5c0.5,0,0.9,0.4,0.9,0.9v8.1c0,0.5-0.4,0.9-0.9,0.9h-0.5
			c-0.5,0-0.9-0.4-0.9-0.9v-8.1C147.3,436.2,147.7,435.8,148.2,435.8z"/>
		<path id="Vector_41_1_" fill="none" stroke="#40352D" d="M147.4,439.6c-6.3-0.4-11.2-3.7-11.2-7.8c0-4.3,5.5-7.8,12.3-7.8
			c6.8,0,12.3,3.5,12.3,7.8c0,4-4.8,7.3-10.9,7.8"/>
		<path id="Vector_42_1_" fill="none" stroke="#40352D" d="M148.5,433.5c1,0,1.8-0.8,1.8-1.8c0-1-0.8-1.8-1.8-1.8
			c-1,0-1.8,0.8-1.8,1.8C146.7,432.7,147.5,433.5,148.5,433.5z"/>
		<path id="Vector_43_1_" fill="none" stroke="#40352D" d="M167.1,442l-17.5,0"/>
		<path id="Vector_44_1_" fill="none" stroke="#40352D" d="M147.3,442h-17.5"/>
	</g>
	<g id="kitchen_1_" opacity="0.5">
		<g id="Group_1_">
			<path id="Vector_45_1_" fill="none" stroke="#40352D" d="M87.2,277.4l-42.9,0l0-42.9l42.9,0L87.2,277.4z"/>
			<path id="Vector_46_1_" fill="none" stroke="#40352D" d="M67.3,265c0-2.4,2-4.4,4.4-4.4c2.4,0,4.4,2,4.4,4.4c0,2.4-2,4.4-4.4,4.4
				C69.3,269.4,67.3,267.4,67.3,265z"/>
			<path id="Vector_47_1_" fill="none" stroke="#40352D" d="M82,266.8c0-0.6,0.5-1.1,1.1-1.1c0.6,0,1.1,0.5,1.1,1.1
				c0,0.6-0.5,1.1-1.1,1.1C82.5,267.8,82,267.3,82,266.8z"/>
			<path id="Vector_48_1_" fill="none" stroke="#40352D" d="M82,261c0-0.6,0.5-1.1,1.1-1.1c0.6,0,1.1,0.5,1.1,1.1
				c0,0.6-0.5,1.1-1.1,1.1C82.5,262.1,82,261.6,82,261z"/>
			<path id="Vector_49_1_" fill="none" stroke="#40352D" d="M82,255.5c0-0.6,0.5-1.1,1.1-1.1c0.6,0,1.1,0.5,1.1,1.1
				c0,0.6-0.5,1.1-1.1,1.1C82.5,256.6,82,256.1,82,255.5z"/>
			<path id="Vector_50_1_" fill="none" stroke="#40352D" d="M64.4,246.9c0-4,3.3-7.3,7.3-7.3c4,0,7.3,3.3,7.3,7.3
				c0,4-3.3,7.3-7.3,7.3C67.7,254.2,64.4,250.9,64.4,246.9z"/>
			<path id="Vector_51_1_" fill="none" stroke="#40352D" d="M48.7,246.9c0-3.4,2.7-6.1,6.1-6.1c3.4,0,6.1,2.7,6.1,6.1
				s-2.7,6.1-6.1,6.1C51.4,253.1,48.7,250.3,48.7,246.9z"/>
			<path id="Vector_52_1_" fill="none" stroke="#40352D" d="M48.7,265c0-3.4,2.7-6.1,6.1-6.1c3.4,0,6.1,2.7,6.1,6.1
				c0,3.4-2.7,6.1-6.1,6.1C51.4,271.1,48.7,268.4,48.7,265z"/>
		</g>
		<path id="Vector_53_1_" fill="none" stroke="#40352D" d="M44.3,192.9l42.9,0l0,95.2"/>
		<path id="Vector_54_1_" fill="none" stroke="#40352D" d="M87.2,288l81.6,0l0,40.9"/>
		<g id="Group_2_1_">
			<path id="Vector_55_1_" fill="none" stroke="#40352D" d="M108.2,290.3l35.4,0c1.9,0,3.4,1.5,3.4,3.4l0,31.6
				c0,1.9-1.5,3.4-3.4,3.4l-35.4,0c-1.9,0-3.4-1.5-3.4-3.4l0-31.6C104.8,291.8,106.3,290.3,108.2,290.3z"/>
			<path id="Vector_56_1_" fill="none" stroke="#40352D" d="M119.3,326.3h-7.8c-2.3,0-4.2-1.9-4.2-4.2l0-25.2c0-2.3,1.9-4.2,4.2-4.2
				h20.1c2.3,0,4.2,1.9,4.2,4.2v25.2c0,2.3-1.9,4.2-4.2,4.2h-7.8"/>
			<path id="Vector_57_1_" fill="none" stroke="#40352D" d="M120.3,317h2.5c0.3,0,0.6,0.3,0.6,0.6l0,10.5c0,0.3-0.3,0.6-0.6,0.6
				h-2.5c-0.3,0-0.6-0.3-0.6-0.6l0-10.5C119.7,317.3,120,317,120.3,317z"/>
			<path id="Vector_58_1_" fill="none" stroke="#40352D" d="M138.2,320.3h6.3"/>
			<path id="Vector_59_1_" fill="none" stroke="#40352D" d="M138.2,316h6.3"/>
			<path id="Vector_60_1_" fill="none" stroke="#40352D" d="M138.2,311.7h6.3"/>
			<path id="Vector_61_1_" fill="none" stroke="#40352D" d="M138.2,307.3h6.3"/>
			<path id="Vector_62_1_" fill="none" stroke="#40352D" d="M138.2,303h6.3"/>
			<path id="Vector_63_1_" fill="none" stroke="#40352D" d="M138.2,298.7h6.3"/>
			<path id="Vector_64_1_" fill="none" stroke="#40352D" d="M119.6,309.2c0-0.9,0.7-1.6,1.6-1.6c0.9,0,1.6,0.7,1.6,1.6
				s-0.7,1.6-1.6,1.6C120.4,310.8,119.6,310.1,119.6,309.2z"/>
		</g>
		<g id="Group_3_1_">
			<path id="Vector_65_1_" fill="none" stroke="#40352D" d="M87.3,147.6l0,42.9l-42.9,0l0-42.9L87.3,147.6z"/>
			<path id="Vector_66_1_" fill="none" stroke="#40352D" d="M87.3,177.7h2.8l0,10.6h-2.8"/>
			<path id="Vector_67_1_" fill="none" stroke="#40352D" d="M65.9,176.9v7.4"/>
			<path id="Vector_68_1_" fill="none" stroke="#40352D" d="M62.2,180.6h7.4"/>
			<path id="Vector_69_1_" fill="none" stroke="#40352D" d="M63.3,178l5.2,5.2"/>
			<path id="Vector_70_1_" fill="none" stroke="#40352D" d="M63.3,183.2l5.2-5.2"/>
			<path id="Vector_71_1_" fill="none" stroke="#40352D" d="M65.9,165.3v7.4"/>
			<path id="Vector_72_1_" fill="none" stroke="#40352D" d="M62.2,169l7.4,0"/>
			<path id="Vector_73_1_" fill="none" stroke="#40352D" d="M63.3,166.4l5.2,5.2"/>
			<path id="Vector_74_1_" fill="none" stroke="#40352D" d="M63.3,171.6l5.2-5.2"/>
			<path id="Vector_75_1_" fill="none" stroke="#40352D" d="M65.9,153.8v7.4"/>
			<path id="Vector_76_1_" fill="none" stroke="#40352D" d="M62.2,157.5h7.4"/>
			<path id="Vector_77_1_" fill="none" stroke="#40352D" d="M63.3,154.9l5.2,5.2"/>
			<path id="Vector_78_1_" fill="none" stroke="#40352D" d="M63.3,160.1l5.2-5.2"/>
		</g>
	</g>
	<g id="table_1_" opacity="0.5">
		<path id="Vector_79_1_" fill="none" stroke="#40352D" d="M265.1,92.2H161.3v49.1h103.8V92.2z"/>
		<path id="Vector_80_1_" fill="none" stroke="#40352D" d="M176.4,81.7h29.8c1.3,0,2.4-1.1,2.4-2.4v-2.5c0-1.3-1.1-2.4-2.4-2.4
			h-29.8c-1.3,0-2.4,1.1-2.4,2.4v2.5C174,80.6,175.1,81.7,176.4,81.7z"/>
		<path id="Vector_81_1_" fill="none" stroke="#40352D" d="M208.6,92.2v-3.8c0-3.7-3.8-6.7-8.5-6.7h-17.5c-4.7,0-8.5,3-8.5,6.7v3.8"
			/>
		<path id="Vector_82_1_" fill="none" stroke="#40352D" d="M221.4,81.7h29.8c1.3,0,2.4-1.1,2.4-2.4v-2.5c0-1.3-1.1-2.4-2.4-2.4
			h-29.8c-1.3,0-2.4,1.1-2.4,2.4v2.5C219,80.6,220.1,81.7,221.4,81.7z"/>
		<path id="Vector_83_1_" fill="none" stroke="#40352D" d="M253.6,92.2v-3.8c0-3.7-3.8-6.7-8.5-6.7h-17.5c-4.7,0-8.5,3-8.5,6.7v3.8"
			/>
		<path id="Vector_84_1_" fill="none" stroke="#40352D" d="M176.4,151.2h29.8c1.3,0,2.4,1.1,2.4,2.4v2.5c0,1.3-1.1,2.4-2.4,2.4
			h-29.8c-1.3,0-2.4-1.1-2.4-2.4v-2.5C174,152.2,175.1,151.2,176.4,151.2z"/>
		<path id="Vector_85_1_" fill="none" stroke="#40352D" d="M208.6,140.7v3.8c0,3.7-3.8,6.7-8.5,6.7h-17.5c-4.7,0-8.5-3-8.5-6.7v-3.8
			"/>
		<path id="Vector_86_1_" fill="none" stroke="#40352D" d="M221.4,151.2h29.8c1.3,0,2.4,1.1,2.4,2.4v2.5c0,1.3-1.1,2.4-2.4,2.4
			h-29.8c-1.3,0-2.4-1.1-2.4-2.4v-2.5C219,152.2,220.1,151.2,221.4,151.2z"/>
		<path id="Vector_87_1_" fill="none" stroke="#40352D" d="M253.6,140.7v3.8c0,3.7-3.8,6.7-8.5,6.7h-17.5c-4.7,0-8.5-3-8.5-6.7v-3.8
			"/>
	</g>
	<g id="wardrobe_1_" opacity="0.5">
		<path id="Vector_88_1_" fill="none" stroke="#40352D" d="M277.1,570H148.9v47.8h128.2V570z"/>
		<path id="Vector_89_1_" fill="none" stroke="#40352D" d="M148.9,593.9h128.2"/>
		<path id="Vector_90_1_" fill="none" stroke="#40352D" d="M148.9,567.4H213"/>
		<path id="Vector_91_1_" fill="none" stroke="#40352D" d="M201.7,564.8h75.4"/>
		<path id="Vector_92_1_" fill="none" stroke="#40352D" d="M162.5,580.7v26.4"/>
		<path id="Vector_93_1_" fill="none" stroke="#40352D" d="M186.4,580.7v26.4"/>
		<path id="Vector_94_1_" fill="none" stroke="#40352D" d="M174.6,580.7l4,26.3"/>
		<path id="Vector_95_1_" fill="none" stroke="#40352D" d="M236.3,580.8l-5.1,26.2"/>
		<path id="Vector_96_1_" fill="none" stroke="#40352D" d="M247.3,580.7v26.4"/>
		<path id="Vector_97_1_" fill="none" stroke="#40352D" d="M222.7,580.7v26.4"/>
		<path id="Vector_98_1_" fill="none" stroke="#40352D" d="M265.2,580.9l-6.6,26"/>
		<path id="Vector_99_1_" fill="none" stroke="#40352D" d="M202.4,581.1l-9.5,25.6"/>
		<path id="Vector_100_1_" fill="none" stroke="#40352D" d="M210.4,580.7l3.4,26.3"/>
	</g>
	<g id="wardrobe_2_" opacity="0.5">
		<path id="Vector_88_2_" fill="none" stroke="#40352D" d="M532.2,240.6l0-115.1l-47.8,0l0,115.1L532.2,240.6z"/>
		<path id="Vector_89_2_" fill="none" stroke="#40352D" d="M508.3,125.5l0,115.1"/>
		<path id="Vector_90_2_" fill="none" stroke="#40352D" d="M534.8,125.5l0,57.5"/>
		<path id="Vector_91_2_" fill="none" stroke="#40352D" d="M537.4,172.9l0,67.7"/>
		<path id="Vector_92_2_" fill="none" stroke="#40352D" d="M521.5,137.7l-26.4,0"/>
		<path id="Vector_93_2_" fill="none" stroke="#40352D" d="M521.5,159.2l-26.4,0"/>
		<path id="Vector_94_2_" fill="none" stroke="#40352D" d="M521.4,148.6l-26.3,3.6"/>
		<path id="Vector_95_2_" fill="none" stroke="#40352D" d="M521.4,204l-26.2-4.6"/>
		<path id="Vector_96_2_" fill="none" stroke="#40352D" d="M521.5,213.8l-26.4,0"/>
		<path id="Vector_97_2_" fill="none" stroke="#40352D" d="M521.5,191.7l-26.4,0"/>
		<path id="Vector_98_2_" fill="none" stroke="#40352D" d="M521.3,229.9l-26-5.9"/>
		<path id="Vector_99_2_" fill="none" stroke="#40352D" d="M521.1,173.5l-25.6-8.5"/>
		<path id="Vector_100_2_" fill="none" stroke="#40352D" d="M521.4,180.7l-26.3,3"/>
	</g>
	<g id="wardrobe_3_" opacity="0.5">
		<path id="Vector_88_3_" fill="none" stroke="#40352D" d="M321.4,299.6l0-115.1l-47.8,0l0,115.1L321.4,299.6z"/>
		<path id="Vector_89_3_" fill="none" stroke="#40352D" d="M297.5,184.6l0,115.1"/>
		<path id="Vector_90_3_" fill="none" stroke="#40352D" d="M324,184.6l0,57.5"/>
		<path id="Vector_91_3_" fill="none" stroke="#40352D" d="M326.6,231.9l0,67.7"/>
		<path id="Vector_92_3_" fill="none" stroke="#40352D" d="M310.7,196.7l-26.4,0"/>
		<path id="Vector_93_3_" fill="none" stroke="#40352D" d="M310.7,218.2l-26.4,0"/>
		<path id="Vector_94_3_" fill="none" stroke="#40352D" d="M310.6,207.6l-26.3,3.6"/>
		<path id="Vector_95_3_" fill="none" stroke="#40352D" d="M310.6,263l-26.2-4.6"/>
		<path id="Vector_96_3_" fill="none" stroke="#40352D" d="M310.7,272.9l-26.4,0"/>
		<path id="Vector_97_3_" fill="none" stroke="#40352D" d="M310.7,250.8l-26.4,0"/>
		<path id="Vector_98_3_" fill="none" stroke="#40352D" d="M310.5,288.9l-26-5.9"/>
		<path id="Vector_99_3_" fill="none" stroke="#40352D" d="M310.3,232.5l-25.6-8.5"/>
		<path id="Vector_100_3_" fill="none" stroke="#40352D" d="M310.6,239.8l-26.3,3"/>
	</g>
	<g id="table2_1_" opacity="0.5">
		<path id="Vector_107_1_" fill="none" stroke="#40352D" d="M480.6,401.3v89.9h49.6v-89.9H480.6z"/>
		<path id="Vector_108_1_" fill="none" stroke="#40352D" d="M495.6,432.2l3.2,30l17.5-1.9l-3.2-30L495.6,432.2z"/>
		<path id="Vector_109_1_" fill="none" stroke="#40352D" d="M512.8,422.5v-0.4c0-1.4-1.1-2.5-2.5-2.5h-3c-1.4,0-2.5,1.1-2.5,2.5v0.4
			c0,1.4,1.1,2.5,2.5,2.5h3C511.7,425,512.8,423.9,512.8,422.5z"/>
		<path id="Vector_110_2_" fill="none" stroke="#40352D" d="M543.1,427.2v38.1c0,1.2,1,2.2,2.2,2.2h4.6c1.2,0,2.2-1,2.2-2.2v-38.1
			c0-1.2-1-2.2-2.2-2.2h-4.6C544.1,425,543.1,425.9,543.1,427.2z"/>
		<path id="Vector_111_2_" fill="none" stroke="#40352D" d="M530.2,467.5h4.7c4.5,0,8.2-4.7,8.2-10.5v-21.5c0-5.8-3.7-10.5-8.2-10.5
			h-4.7"/>
		<path id="Vector_112_1_" fill="none" stroke="#40352D" d="M506.2,422.3h1.2"/>
	</g>
	<g id="sofa2_1_" opacity="0.5">
		<path id="Vector_113_1_" fill="none" stroke="#40352D" d="M717.1,205.2c-2.4,0-4.3,2.1-4.3,4.6v3.9c0,2.6,1.9,4.6,4.3,4.6h27.2
			c2,0,3.6,1.6,3.6,3.6v59.8c0,2.6-2.1,4.6-4.6,4.6H647c-2.6,0-4.6-2.1-4.6-4.6v-24.7c0-2.6-2.1-4.6-4.6-4.6h-3.9
			c-2.6,0-4.6,2.1-4.6,4.6v29.4v1.4v7.1c0,2.6,2.1,4.6,4.6,4.6h122.7c2.6,0,4.6-2.1,4.6-4.6v-7.1v-1.4v-76.6c0-2.6-2.1-4.6-4.6-4.6
			L717.1,205.2z"/>
		<path id="Vector_114_1_" fill="none" stroke="#40352D" d="M715.8,252.4h29.1c1.7,0,3,1.3,3,3v28c0,1.7-1.3,3-3,3h-29.1
			c-1.7,0-3-1.3-3-3v-28C712.8,253.8,714.1,252.4,715.8,252.4z"/>
		<path id="Vector_115_1_" fill="none" stroke="#40352D" d="M715.8,218.4h29.1c1.7,0,3,1.3,3,3v28c0,1.7-1.3,3-3,3h-29.1
			c-1.7,0-3-1.3-3-3v-28C712.8,219.7,714.1,218.4,715.8,218.4z"/>
		<path id="Vector_116_1_" fill="none" stroke="#40352D" d="M680.6,252.4h29.1c1.7,0,3,1.3,3,3v28c0,1.7-1.3,3-3,3h-29.1
			c-1.7,0-3-1.3-3-3v-28C677.6,253.8,679,252.4,680.6,252.4z"/>
		<path id="Vector_117_1_" fill="none" stroke="#40352D" d="M645.5,252.4h29.1c1.7,0,3,1.3,3,3v28c0,1.7-1.3,3-3,3h-29.1
			c-1.7,0-3-1.3-3-3v-28C642.4,253.8,643.8,252.4,645.5,252.4z"/>
	</g>
	<g id="table4_1_" opacity="0.5">
		<path id="Vector_124_1_" fill="none" stroke="#40352D" d="M633.9,193.4v42.2h60.8v-42.2H633.9z"/>
		<path id="Vector_125_1_" fill="none" stroke="#40352D" d="M660.7,217.7l12.6,4.5l6.4-17.7l-12.6-4.5L660.7,217.7z"/>
		<path id="Vector_126_1_" fill="none" stroke="#40352D" d="M679.1,206.2l5.3,3.3l-9.9,16l-10.2-6.3"/>
		<path id="Vector_127_1_" fill="none" stroke="#40352D" d="M664.4,216.4l6.9,2.5l2.5-7l-6.9-2.5L664.4,216.4z"/>
		<path id="Vector_128_1_" fill="none" stroke="#40352D" d="M669.1,205l6.1,2.2"/>
		<path id="Vector_129_1_" fill="none" stroke="#40352D" d="M671.8,207.8l2.8,1"/>
	</g>
	<g opacity="0.5">
		<path id="Vector_288_1_" fill="none" stroke="#40352D" d="M477.3,37.7l-91,0v39h46.3c3.6,0,6.6,2.9,6.6,6.6V151
			c0,12.1,9.8,21.9,21.9,21.9h16.2V37.7z"/>
		<path id="Vector_110_3_" fill="none" stroke="#40352D" d="M426.6,125.9V87.8c0-1.2-1-2.2-2.2-2.2h-4.6c-1.2,0-2.2,1-2.2,2.2v38.1
			c0,1.2,1,2.2,2.2,2.2h4.6C425.6,128.1,426.6,127.1,426.6,125.9z"/>
		<path id="Vector_111_3_" fill="none" stroke="#40352D" d="M439.4,85.6h-4.7c-4.5,0-8.2,4.7-8.2,10.5v21.5c0,5.8,3.7,10.5,8.2,10.5
			h4.7"/>
	</g>
</g>
<g id="text">
	<g>
		<path fill="#40352D" d="M658.6,329.4h-0.8v3.5h-1v-3.5h-0.9l-2.2,3.5h-1.3l2.6-4.1l-2.4-3.7h1.2l2.1,3.4h0.9v-3.4h1v3.4h0.8
			l2.1-3.4h1.2l-2.4,3.7l2.6,4.1h-1.3L658.6,329.4z"/>
		<path fill="#40352D" d="M666.6,327.2h1v5.8h-1v-4.2L664,333h-1v-5.8h1v4.2L666.6,327.2z"/>
		<path fill="#40352D" d="M673.9,327.2v5.8h-1v-5h-2l-0.1,2.2c-0.1,1-0.2,1.7-0.5,2.1s-0.7,0.6-1.3,0.7h-0.4v-0.9l0.3,0
			c0.3,0,0.5-0.2,0.7-0.6c0.1-0.3,0.2-1,0.3-1.9l0.1-2.5H673.9z"/>
		<path fill="#40352D" d="M679.1,333c-0.1-0.1-0.1-0.3-0.1-0.6c-0.5,0.5-1,0.7-1.6,0.7c-0.6,0-1-0.2-1.4-0.5s-0.5-0.7-0.5-1.2
			c0-0.6,0.2-1.1,0.7-1.4c0.5-0.3,1.1-0.5,1.9-0.5h1V329c0-0.3-0.1-0.6-0.3-0.8c-0.2-0.2-0.5-0.3-0.9-0.3c-0.4,0-0.6,0.1-0.9,0.3
			s-0.4,0.4-0.4,0.6h-1c0-0.3,0.1-0.6,0.3-0.8c0.2-0.3,0.5-0.5,0.8-0.6c0.4-0.2,0.7-0.2,1.2-0.2c0.7,0,1.2,0.2,1.6,0.5
			c0.4,0.3,0.6,0.8,0.6,1.4v2.7c0,0.5,0.1,1,0.2,1.3v0.1H679.1z M677.4,332.2c0.3,0,0.6-0.1,0.9-0.2c0.3-0.2,0.5-0.4,0.6-0.6v-1.2
			h-0.8c-1.2,0-1.8,0.4-1.8,1.1c0,0.3,0.1,0.6,0.3,0.7S677.1,332.2,677.4,332.2z"/>
		<path fill="#40352D" d="M685.9,327.2v5.8h-1v-2.2h-1.5L682,333H681l1.5-2.4c-0.4-0.1-0.7-0.3-0.9-0.6s-0.3-0.6-0.3-1
			c0-0.5,0.2-1,0.6-1.3s0.9-0.5,1.6-0.5H685.9z M682.3,329c0,0.3,0.1,0.5,0.3,0.7c0.2,0.2,0.4,0.3,0.8,0.3h1.6V328h-1.4
			c-0.4,0-0.7,0.1-0.9,0.3C682.4,328.5,682.3,328.7,682.3,329z"/>
		<path fill="#40352D" d="M692,330.5h-0.7v2.5h-1v-5.8h1v2.4h0.6l1.9-2.4h1.2l-2.3,2.8l2.5,3H694L692,330.5z"/>
		<path fill="#40352D" d="M695.7,330c0-0.6,0.1-1.1,0.3-1.5c0.2-0.5,0.5-0.8,0.9-1c0.4-0.2,0.8-0.4,1.4-0.4c0.8,0,1.4,0.3,1.9,0.8
			c0.5,0.5,0.7,1.3,0.7,2.2v0.1c0,0.6-0.1,1.1-0.3,1.5c-0.2,0.4-0.5,0.8-0.9,1c-0.4,0.2-0.9,0.4-1.4,0.4c-0.8,0-1.4-0.3-1.9-0.8
			S695.7,331,695.7,330L695.7,330z M696.7,330.2c0,0.6,0.1,1.2,0.4,1.5c0.3,0.4,0.7,0.6,1.2,0.6c0.5,0,0.9-0.2,1.2-0.6
			c0.3-0.4,0.4-0.9,0.4-1.7c0-0.6-0.2-1.1-0.5-1.5c-0.3-0.4-0.7-0.6-1.2-0.6c-0.5,0-0.9,0.2-1.2,0.6
			C696.8,328.9,696.7,329.4,696.7,330.2z"/>
		<path fill="#40352D" d="M705.5,331.7l2-4.5h1.2v5.8h-1v-4.2l-1.9,4.2h-0.7l-1.9-4.3v4.3h-1v-5.8h1.3L705.5,331.7z"/>
		<path fill="#40352D" d="M715,333h-1v-2.5h-2.7v2.5h-1v-5.8h1v2.5h2.7v-2.5h1V333z"/>
		<path fill="#40352D" d="M720.1,333c-0.1-0.1-0.1-0.3-0.1-0.6c-0.5,0.5-1,0.7-1.6,0.7c-0.6,0-1-0.2-1.4-0.5s-0.5-0.7-0.5-1.2
			c0-0.6,0.2-1.1,0.7-1.4c0.5-0.3,1.1-0.5,1.9-0.5h1V329c0-0.3-0.1-0.6-0.3-0.8c-0.2-0.2-0.5-0.3-0.9-0.3c-0.4,0-0.6,0.1-0.9,0.3
			s-0.4,0.4-0.4,0.6h-1c0-0.3,0.1-0.6,0.3-0.8c0.2-0.3,0.5-0.5,0.8-0.6c0.4-0.2,0.7-0.2,1.2-0.2c0.7,0,1.2,0.2,1.6,0.5
			c0.4,0.3,0.6,0.8,0.6,1.4v2.7c0,0.5,0.1,1,0.2,1.3v0.1H720.1z M718.5,332.2c0.3,0,0.6-0.1,0.9-0.2c0.3-0.2,0.5-0.4,0.6-0.6v-1.2
			h-0.8c-1.2,0-1.8,0.4-1.8,1.1c0,0.3,0.1,0.6,0.3,0.7S718.2,332.2,718.5,332.2z"/>
		<path fill="#40352D" d="M726.7,328h-1.9v5h-1v-5h-1.9v-0.8h4.8V328z"/>
		<path fill="#40352D" d="M731.1,333c-0.1-0.1-0.1-0.3-0.1-0.6c-0.5,0.5-1,0.7-1.6,0.7c-0.6,0-1-0.2-1.4-0.5s-0.5-0.7-0.5-1.2
			c0-0.6,0.2-1.1,0.7-1.4c0.5-0.3,1.1-0.5,1.9-0.5h1V329c0-0.3-0.1-0.6-0.3-0.8c-0.2-0.2-0.5-0.3-0.9-0.3c-0.4,0-0.6,0.1-0.9,0.3
			s-0.4,0.4-0.4,0.6h-1c0-0.3,0.1-0.6,0.3-0.8c0.2-0.3,0.5-0.5,0.8-0.6c0.4-0.2,0.7-0.2,1.2-0.2c0.7,0,1.2,0.2,1.6,0.5
			c0.4,0.3,0.6,0.8,0.6,1.4v2.7c0,0.5,0.1,1,0.2,1.3v0.1H731.1z M729.5,332.2c0.3,0,0.6-0.1,0.9-0.2c0.3-0.2,0.5-0.4,0.6-0.6v-1.2
			h-0.8c-1.2,0-1.8,0.4-1.8,1.1c0,0.3,0.1,0.6,0.3,0.7S729.2,332.2,729.5,332.2z"/>
		<path fill="#40352D" d="M657.5,349.8h-1.7v-8l-2.4,0.8v-1.4l3.9-1.4h0.2V349.8z"/>
		<path fill="#40352D" d="M667.7,349.8H661v-1.1l3.3-3.6c0.5-0.5,0.8-1,1-1.3s0.3-0.7,0.3-1.1c0-0.5-0.1-0.9-0.4-1.2
			c-0.3-0.3-0.6-0.4-1.1-0.4c-0.5,0-1,0.2-1.3,0.5s-0.4,0.8-0.4,1.4h-1.7c0-0.6,0.1-1.2,0.4-1.6c0.3-0.5,0.7-0.9,1.2-1.1
			c0.5-0.3,1.1-0.4,1.8-0.4c1,0,1.7,0.2,2.3,0.7c0.6,0.5,0.8,1.2,0.8,2c0,0.5-0.1,1-0.4,1.6c-0.3,0.5-0.7,1.2-1.4,1.9l-2.4,2.6h4.6
			V349.8z"/>
		<path fill="#40352D" d="M670.1,348.1c0.3,0,0.6,0.1,0.7,0.3s0.3,0.4,0.3,0.7c0,0.3-0.1,0.5-0.3,0.6s-0.4,0.3-0.7,0.3
			c-0.3,0-0.5-0.1-0.7-0.3c-0.2-0.2-0.3-0.4-0.3-0.7s0.1-0.5,0.3-0.7C669.5,348.2,669.8,348.1,670.1,348.1z"/>
		<path fill="#40352D" d="M674.8,344.1h1c0.5,0,0.9-0.1,1.2-0.4c0.3-0.3,0.4-0.6,0.4-1.1c0-0.5-0.1-0.8-0.4-1.1
			c-0.2-0.3-0.6-0.4-1.1-0.4c-0.4,0-0.8,0.1-1.1,0.4c-0.3,0.3-0.4,0.6-0.4,1h-1.7c0-0.5,0.1-1,0.4-1.4c0.3-0.4,0.7-0.7,1.1-1
			c0.5-0.2,1-0.4,1.6-0.4c1,0,1.8,0.3,2.3,0.8c0.6,0.5,0.9,1.2,0.9,2.1c0,0.4-0.1,0.9-0.4,1.3c-0.3,0.4-0.7,0.7-1.1,0.9
			c0.5,0.2,1,0.5,1.3,0.9c0.3,0.4,0.4,0.9,0.4,1.4c0,0.9-0.3,1.6-0.9,2.1c-0.6,0.5-1.4,0.8-2.4,0.8c-1,0-1.7-0.3-2.4-0.8
			c-0.6-0.5-0.9-1.2-0.9-2h1.7c0,0.4,0.1,0.8,0.4,1.1s0.7,0.4,1.2,0.4c0.5,0,0.9-0.1,1.2-0.4c0.3-0.3,0.4-0.7,0.4-1.2
			c0-0.5-0.2-0.9-0.5-1.2c-0.3-0.3-0.8-0.4-1.4-0.4h-1V344.1z"/>
		<path fill="#40352D" d="M688.9,347.8l2.2-5.4h2.1v7.4h-1.7v-4.9l-2,4.9h-1.1l-2.1-4.9v4.9h-1.7v-7.4h2.1L688.9,347.8z"/>
		<path fill="#40352D" d="M698.9,345.3h-4.2v-0.9l2-1.8c0.5-0.5,0.8-0.9,0.8-1.2c0-0.2-0.1-0.3-0.2-0.5c-0.1-0.1-0.3-0.2-0.5-0.2
			c-0.3,0-0.5,0.1-0.6,0.2c-0.2,0.2-0.2,0.3-0.2,0.6h-1.3c0-0.5,0.2-1,0.6-1.3c0.4-0.3,0.9-0.5,1.5-0.5c0.7,0,1.2,0.1,1.5,0.4
			s0.5,0.7,0.5,1.2c0,0.5-0.2,1-0.7,1.4l-0.7,0.6l-1,0.8h2.5V345.3z"/>
	</g>
	<g>
		<path fill="#40352D" d="M573.6,160.9h-0.8v3.5h-1v-3.5h-0.9l-2.2,3.5h-1.3l2.6-4.1l-2.4-3.7h1.2l2.1,3.4h0.9v-3.4h1v3.4h0.8
			l2.1-3.4h1.2l-2.4,3.7l2.6,4.1h-1.3L573.6,160.9z"/>
		<path fill="#40352D" d="M581.6,158.7h1v5.8h-1v-4.2l-2.7,4.2h-1v-5.8h1v4.2L581.6,158.7z"/>
		<path fill="#40352D" d="M588.9,158.7v5.8h-1v-5h-2l-0.1,2.2c-0.1,1-0.2,1.7-0.5,2.1s-0.7,0.6-1.3,0.7h-0.4v-0.9l0.3,0
			c0.3,0,0.5-0.2,0.7-0.6c0.1-0.3,0.2-1,0.3-1.9l0.1-2.5H588.9z"/>
		<path fill="#40352D" d="M594.1,164.5c-0.1-0.1-0.1-0.3-0.1-0.6c-0.5,0.5-1,0.7-1.6,0.7c-0.6,0-1-0.2-1.4-0.5s-0.5-0.7-0.5-1.2
			c0-0.6,0.2-1.1,0.7-1.4c0.5-0.3,1.1-0.5,1.9-0.5h1v-0.5c0-0.3-0.1-0.6-0.3-0.8c-0.2-0.2-0.5-0.3-0.9-0.3c-0.4,0-0.6,0.1-0.9,0.3
			s-0.4,0.4-0.4,0.6h-1c0-0.3,0.1-0.6,0.3-0.8c0.2-0.3,0.5-0.5,0.8-0.6c0.4-0.2,0.7-0.2,1.2-0.2c0.7,0,1.2,0.2,1.6,0.5
			c0.4,0.3,0.6,0.8,0.6,1.4v2.7c0,0.5,0.1,1,0.2,1.3v0.1H594.1z M592.4,163.7c0.3,0,0.6-0.1,0.9-0.2c0.3-0.2,0.5-0.4,0.6-0.6v-1.2
			h-0.8c-1.2,0-1.8,0.4-1.8,1.1c0,0.3,0.1,0.6,0.3,0.7S592.1,163.7,592.4,163.7z"/>
		<path fill="#40352D" d="M600.9,158.7v5.8h-1v-2.2h-1.5l-1.4,2.2H596l1.5-2.4c-0.4-0.1-0.7-0.3-0.9-0.6s-0.3-0.6-0.3-1
			c0-0.5,0.2-1,0.6-1.3s0.9-0.5,1.6-0.5H600.9z M597.3,160.5c0,0.3,0.1,0.5,0.3,0.7c0.2,0.2,0.4,0.3,0.8,0.3h1.6v-1.9h-1.4
			c-0.4,0-0.7,0.1-0.9,0.3C597.4,160,597.3,160.2,597.3,160.5z"/>
		<path fill="#40352D" d="M606.9,162h-0.7v2.5h-1v-5.8h1v2.4h0.6l1.9-2.4h1.2l-2.3,2.8l2.5,3h-1.3L606.9,162z"/>
		<path fill="#40352D" d="M610.7,161.5c0-0.6,0.1-1.1,0.3-1.5c0.2-0.5,0.5-0.8,0.9-1c0.4-0.2,0.8-0.4,1.4-0.4c0.8,0,1.4,0.3,1.9,0.8
			c0.5,0.5,0.7,1.3,0.7,2.2v0.1c0,0.6-0.1,1.1-0.3,1.5c-0.2,0.4-0.5,0.8-0.9,1c-0.4,0.2-0.9,0.4-1.4,0.4c-0.8,0-1.4-0.3-1.9-0.8
			S610.7,162.5,610.7,161.5L610.7,161.5z M611.7,161.7c0,0.6,0.1,1.2,0.4,1.5c0.3,0.4,0.7,0.6,1.2,0.6c0.5,0,0.9-0.2,1.2-0.6
			c0.3-0.4,0.4-0.9,0.4-1.7c0-0.6-0.2-1.1-0.5-1.5c-0.3-0.4-0.7-0.6-1.2-0.6c-0.5,0-0.9,0.2-1.2,0.6
			C611.8,160.4,611.7,160.9,611.7,161.7z"/>
		<path fill="#40352D" d="M620.5,163.2l2-4.5h1.2v5.8h-1v-4.2l-1.9,4.2h-0.7l-1.9-4.3v4.3h-1v-5.8h1.3L620.5,163.2z"/>
		<path fill="#40352D" d="M630,164.5h-1V162h-2.7v2.5h-1v-5.8h1v2.5h2.7v-2.5h1V164.5z"/>
		<path fill="#40352D" d="M635.1,164.5c-0.1-0.1-0.1-0.3-0.1-0.6c-0.5,0.5-1,0.7-1.6,0.7c-0.6,0-1-0.2-1.4-0.5s-0.5-0.7-0.5-1.2
			c0-0.6,0.2-1.1,0.7-1.4c0.5-0.3,1.1-0.5,1.9-0.5h1v-0.5c0-0.3-0.1-0.6-0.3-0.8c-0.2-0.2-0.5-0.3-0.9-0.3c-0.4,0-0.6,0.1-0.9,0.3
			s-0.4,0.4-0.4,0.6h-1c0-0.3,0.1-0.6,0.3-0.8c0.2-0.3,0.5-0.5,0.8-0.6c0.4-0.2,0.7-0.2,1.2-0.2c0.7,0,1.2,0.2,1.6,0.5
			c0.4,0.3,0.6,0.8,0.6,1.4v2.7c0,0.5,0.1,1,0.2,1.3v0.1H635.1z M633.5,163.7c0.3,0,0.6-0.1,0.9-0.2c0.3-0.2,0.5-0.4,0.6-0.6v-1.2
			h-0.8c-1.2,0-1.8,0.4-1.8,1.1c0,0.3,0.1,0.6,0.3,0.7S633.2,163.7,633.5,163.7z"/>
		<path fill="#40352D" d="M641.7,159.5h-1.9v5h-1v-5h-1.9v-0.8h4.8V159.5z"/>
		<path fill="#40352D" d="M646.1,164.5c-0.1-0.1-0.1-0.3-0.1-0.6c-0.5,0.5-1,0.7-1.6,0.7c-0.6,0-1-0.2-1.4-0.5s-0.5-0.7-0.5-1.2
			c0-0.6,0.2-1.1,0.7-1.4c0.5-0.3,1.1-0.5,1.9-0.5h1v-0.5c0-0.3-0.1-0.6-0.3-0.8c-0.2-0.2-0.5-0.3-0.9-0.3c-0.4,0-0.6,0.1-0.9,0.3
			s-0.4,0.4-0.4,0.6h-1c0-0.3,0.1-0.6,0.3-0.8c0.2-0.3,0.5-0.5,0.8-0.6c0.4-0.2,0.7-0.2,1.2-0.2c0.7,0,1.2,0.2,1.6,0.5
			c0.4,0.3,0.6,0.8,0.6,1.4v2.7c0,0.5,0.1,1,0.2,1.3v0.1H646.1z M644.5,163.7c0.3,0,0.6-0.1,0.9-0.2c0.3-0.2,0.5-0.4,0.6-0.6v-1.2
			h-0.8c-1.2,0-1.8,0.4-1.8,1.1c0,0.3,0.1,0.6,0.3,0.7S644.2,163.7,644.5,163.7z"/>
		<path fill="#40352D" d="M572.5,181.3h-1.7v-8l-2.4,0.8v-1.4l3.9-1.4h0.2V181.3z"/>
		<path fill="#40352D" d="M582.7,181.3H576v-1.1l3.3-3.6c0.5-0.5,0.8-1,1-1.3s0.3-0.7,0.3-1.1c0-0.5-0.1-0.9-0.4-1.2
			c-0.3-0.3-0.6-0.4-1.1-0.4c-0.5,0-1,0.2-1.3,0.5s-0.4,0.8-0.4,1.4h-1.7c0-0.6,0.1-1.2,0.4-1.6c0.3-0.5,0.7-0.9,1.2-1.1
			c0.5-0.3,1.1-0.4,1.8-0.4c1,0,1.7,0.2,2.3,0.7c0.6,0.5,0.8,1.2,0.8,2c0,0.5-0.1,1-0.4,1.6c-0.3,0.5-0.7,1.2-1.4,1.9L578,180h4.6
			V181.3z"/>
		<path fill="#40352D" d="M585.1,179.6c0.3,0,0.6,0.1,0.7,0.3s0.3,0.4,0.3,0.7c0,0.3-0.1,0.5-0.3,0.6s-0.4,0.3-0.7,0.3
			c-0.3,0-0.5-0.1-0.7-0.3c-0.2-0.2-0.3-0.4-0.3-0.7s0.1-0.5,0.3-0.7C584.5,179.7,584.8,179.6,585.1,179.6z"/>
		<path fill="#40352D" d="M592.4,181.3h-1.7v-8l-2.4,0.8v-1.4l3.9-1.4h0.2V181.3z"/>
		<path fill="#40352D" d="M603.9,179.3l2.2-5.4h2.1v7.4h-1.7v-4.9l-2,4.9h-1.1l-2.1-4.9v4.9h-1.7v-7.4h2.1L603.9,179.3z"/>
		<path fill="#40352D" d="M613.9,176.8h-4.2v-0.9l2-1.8c0.5-0.5,0.8-0.9,0.8-1.2c0-0.2-0.1-0.3-0.2-0.5c-0.1-0.1-0.3-0.2-0.5-0.2
			c-0.3,0-0.5,0.1-0.6,0.2c-0.2,0.2-0.2,0.3-0.2,0.6h-1.3c0-0.5,0.2-1,0.6-1.3c0.4-0.3,0.9-0.5,1.5-0.5c0.7,0,1.2,0.1,1.5,0.4
			s0.5,0.7,0.5,1.2c0,0.5-0.2,1-0.7,1.4l-0.7,0.6l-1,0.8h2.5V176.8z"/>
	</g>
	<g>
		<path fill="#40352D" d="M371.3,195.8h-0.8v3.5h-1v-3.5h-0.9l-2.2,3.5h-1.3l2.6-4.1l-2.4-3.7h1.2l2.1,3.4h0.9v-3.4h1v3.4h0.8
			l2.1-3.4h1.2l-2.4,3.7l2.6,4.1h-1.3L371.3,195.8z"/>
		<path fill="#40352D" d="M379.3,193.6h1v5.8h-1v-4.2l-2.7,4.2h-1v-5.8h1v4.2L379.3,193.6z"/>
		<path fill="#40352D" d="M386.6,193.6v5.8h-1v-5h-2l-0.1,2.2c-0.1,1-0.2,1.7-0.5,2.1c-0.3,0.4-0.7,0.6-1.3,0.7h-0.4v-0.9l0.3,0
			c0.3,0,0.5-0.2,0.7-0.6c0.1-0.3,0.2-1,0.3-1.9l0.1-2.5H386.6z"/>
		<path fill="#40352D" d="M391.8,199.4c-0.1-0.1-0.1-0.3-0.1-0.6c-0.5,0.5-1,0.7-1.6,0.7c-0.6,0-1-0.2-1.4-0.5s-0.5-0.7-0.5-1.2
			c0-0.6,0.2-1.1,0.7-1.4c0.5-0.3,1.1-0.5,1.9-0.5h1v-0.5c0-0.3-0.1-0.6-0.3-0.8c-0.2-0.2-0.5-0.3-0.9-0.3c-0.4,0-0.6,0.1-0.9,0.3
			s-0.4,0.4-0.4,0.6h-1c0-0.3,0.1-0.6,0.3-0.8c0.2-0.3,0.5-0.5,0.8-0.6c0.4-0.2,0.7-0.2,1.2-0.2c0.7,0,1.2,0.2,1.6,0.5
			c0.4,0.3,0.6,0.8,0.6,1.4v2.7c0,0.5,0.1,1,0.2,1.3v0.1H391.8z M390.1,198.6c0.3,0,0.6-0.1,0.9-0.2c0.3-0.2,0.5-0.4,0.6-0.6v-1.2
			h-0.8c-1.2,0-1.8,0.4-1.8,1.1c0,0.3,0.1,0.6,0.3,0.7C389.5,198.5,389.8,198.6,390.1,198.6z"/>
		<path fill="#40352D" d="M398.6,193.6v5.8h-1v-2.2h-1.5l-1.4,2.2h-1.1l1.5-2.4c-0.4-0.1-0.7-0.3-0.9-0.6s-0.3-0.6-0.3-1
			c0-0.5,0.2-1,0.6-1.3s0.9-0.5,1.6-0.5H398.6z M394.9,195.4c0,0.3,0.1,0.5,0.3,0.7s0.4,0.3,0.8,0.3h1.6v-1.9h-1.4
			c-0.4,0-0.7,0.1-0.9,0.3C395.1,194.9,394.9,195.1,394.9,195.4z"/>
		<path fill="#40352D" d="M404.6,196.9h-0.7v2.5h-1v-5.8h1v2.4h0.6l1.9-2.4h1.2l-2.3,2.8l2.5,3h-1.3L404.6,196.9z"/>
		<path fill="#40352D" d="M408.4,196.4c0-0.6,0.1-1.1,0.3-1.5c0.2-0.5,0.5-0.8,0.9-1c0.4-0.2,0.8-0.4,1.4-0.4c0.8,0,1.4,0.3,1.9,0.8
			s0.7,1.3,0.7,2.2v0.1c0,0.6-0.1,1.1-0.3,1.5c-0.2,0.4-0.5,0.8-0.9,1c-0.4,0.2-0.9,0.4-1.4,0.4c-0.8,0-1.4-0.3-1.9-0.8
			S408.4,197.4,408.4,196.4L408.4,196.4z M409.4,196.6c0,0.6,0.1,1.2,0.4,1.5c0.3,0.4,0.7,0.6,1.2,0.6c0.5,0,0.9-0.2,1.2-0.6
			c0.3-0.4,0.4-0.9,0.4-1.7c0-0.6-0.1-1.1-0.5-1.5c-0.3-0.4-0.7-0.6-1.2-0.6c-0.5,0-0.9,0.2-1.2,0.6
			C409.5,195.3,409.4,195.8,409.4,196.6z"/>
		<path fill="#40352D" d="M418.2,198.1l2-4.5h1.2v5.8h-1v-4.2l-1.9,4.2h-0.7l-1.9-4.3v4.3h-1v-5.8h1.3L418.2,198.1z"/>
		<path fill="#40352D" d="M427.7,199.4h-1v-2.5H424v2.5h-1v-5.8h1v2.5h2.7v-2.5h1V199.4z"/>
		<path fill="#40352D" d="M432.8,199.4c-0.1-0.1-0.1-0.3-0.1-0.6c-0.5,0.5-1,0.7-1.6,0.7c-0.6,0-1-0.2-1.4-0.5s-0.5-0.7-0.5-1.2
			c0-0.6,0.2-1.1,0.7-1.4c0.5-0.3,1.1-0.5,1.9-0.5h1v-0.5c0-0.3-0.1-0.6-0.3-0.8c-0.2-0.2-0.5-0.3-0.9-0.3c-0.4,0-0.6,0.1-0.9,0.3
			s-0.4,0.4-0.4,0.6h-1c0-0.3,0.1-0.6,0.3-0.8s0.5-0.5,0.8-0.6c0.4-0.2,0.7-0.2,1.2-0.2c0.7,0,1.2,0.2,1.6,0.5
			c0.4,0.3,0.6,0.8,0.6,1.4v2.7c0,0.5,0.1,1,0.2,1.3v0.1H432.8z M431.2,198.6c0.3,0,0.6-0.1,0.9-0.2c0.3-0.2,0.5-0.4,0.6-0.6v-1.2
			h-0.8c-1.2,0-1.8,0.4-1.8,1.1c0,0.3,0.1,0.6,0.3,0.7S430.9,198.6,431.2,198.6z"/>
		<path fill="#40352D" d="M439.4,194.4h-1.9v5h-1v-5h-1.9v-0.8h4.8V194.4z"/>
		<path fill="#40352D" d="M443.8,199.4c-0.1-0.1-0.1-0.3-0.1-0.6c-0.5,0.5-1,0.7-1.6,0.7c-0.6,0-1-0.2-1.4-0.5s-0.5-0.7-0.5-1.2
			c0-0.6,0.2-1.1,0.7-1.4c0.5-0.3,1.1-0.5,1.9-0.5h1v-0.5c0-0.3-0.1-0.6-0.3-0.8c-0.2-0.2-0.5-0.3-0.9-0.3c-0.4,0-0.6,0.1-0.9,0.3
			s-0.4,0.4-0.4,0.6h-1c0-0.3,0.1-0.6,0.3-0.8s0.5-0.5,0.8-0.6c0.4-0.2,0.7-0.2,1.2-0.2c0.7,0,1.2,0.2,1.6,0.5
			c0.4,0.3,0.6,0.8,0.6,1.4v2.7c0,0.5,0.1,1,0.2,1.3v0.1H443.8z M442.2,198.6c0.3,0,0.6-0.1,0.9-0.2c0.3-0.2,0.5-0.4,0.6-0.6v-1.2
			h-0.8c-1.2,0-1.8,0.4-1.8,1.1c0,0.3,0.1,0.6,0.3,0.7S441.9,198.6,442.2,198.6z"/>
		<path fill="#40352D" d="M370.2,216.2h-1.7v-8l-2.4,0.8v-1.4l3.9-1.4h0.2V216.2z"/>
		<path fill="#40352D" d="M375.6,210.5h1c0.5,0,0.9-0.1,1.2-0.4s0.4-0.6,0.4-1.1c0-0.5-0.1-0.8-0.4-1.1c-0.2-0.3-0.6-0.4-1.1-0.4
			c-0.4,0-0.8,0.1-1.1,0.4s-0.4,0.6-0.4,1h-1.7c0-0.5,0.1-1,0.4-1.4s0.7-0.7,1.1-1c0.5-0.2,1-0.4,1.6-0.4c1,0,1.8,0.3,2.3,0.8
			c0.6,0.5,0.9,1.2,0.9,2.1c0,0.4-0.1,0.9-0.4,1.3s-0.7,0.7-1.1,0.9c0.5,0.2,1,0.5,1.3,0.9c0.3,0.4,0.4,0.9,0.4,1.4
			c0,0.9-0.3,1.6-0.9,2.1c-0.6,0.5-1.4,0.8-2.4,0.8c-1,0-1.7-0.3-2.4-0.8c-0.6-0.5-0.9-1.2-0.9-2h1.7c0,0.4,0.1,0.8,0.4,1.1
			c0.3,0.3,0.7,0.4,1.2,0.4c0.5,0,0.9-0.1,1.2-0.4c0.3-0.3,0.4-0.7,0.4-1.2c0-0.5-0.2-0.9-0.5-1.2c-0.3-0.3-0.8-0.4-1.4-0.4h-1
			V210.5z"/>
		<path fill="#40352D" d="M382.8,214.5c0.3,0,0.6,0.1,0.7,0.3s0.3,0.4,0.3,0.7c0,0.3-0.1,0.5-0.3,0.6s-0.4,0.3-0.7,0.3
			c-0.3,0-0.5-0.1-0.7-0.3s-0.3-0.4-0.3-0.7s0.1-0.5,0.3-0.7C382.2,214.6,382.5,214.5,382.8,214.5z"/>
		<path fill="#40352D" d="M386,211.3l0.5-5h5.4v1.4h-4l-0.3,2.4c0.5-0.3,1-0.4,1.6-0.4c1,0,1.7,0.3,2.2,0.9s0.8,1.4,0.8,2.5
			c0,1-0.3,1.8-0.9,2.4c-0.6,0.6-1.4,0.9-2.4,0.9c-0.9,0-1.7-0.3-2.3-0.8c-0.6-0.5-0.9-1.2-1-2.1h1.6c0.1,0.5,0.2,0.9,0.5,1.1
			c0.3,0.3,0.7,0.4,1.1,0.4c0.5,0,0.9-0.2,1.2-0.5s0.4-0.9,0.4-1.5c0-0.6-0.2-1.1-0.5-1.4c-0.3-0.4-0.8-0.5-1.3-0.5
			c-0.3,0-0.6,0-0.8,0.1c-0.2,0.1-0.4,0.2-0.7,0.5L386,211.3z"/>
		<path fill="#40352D" d="M401.5,214.2l2.2-5.4h2.1v7.4h-1.7v-4.9l-2,4.9H401l-2.1-4.9v4.9h-1.7v-7.4h2.1L401.5,214.2z"/>
		<path fill="#40352D" d="M411.6,211.6h-4.2v-0.9l2-1.8c0.5-0.5,0.8-0.9,0.8-1.2c0-0.2-0.1-0.3-0.2-0.5c-0.1-0.1-0.3-0.2-0.5-0.2
			c-0.3,0-0.5,0.1-0.6,0.2c-0.2,0.2-0.2,0.3-0.2,0.6h-1.3c0-0.5,0.2-1,0.6-1.3c0.4-0.3,0.9-0.5,1.5-0.5c0.7,0,1.2,0.1,1.5,0.4
			s0.5,0.7,0.5,1.2c0,0.5-0.2,1-0.7,1.4l-0.7,0.6l-1,0.8h2.5V211.6z"/>
	</g>
	<g>
		<path fill="#40352D" d="M73.8,64.1h-0.9v3.5h-1v-7.8h1v3.4h0.8l2.7-3.4h1.3l-3,3.8l3.2,4h-1.3L73.8,64.1z"/>
		<path fill="#40352D" d="M80.3,66.1l1.3-4.3h1.1l-2.3,6.7c-0.4,1-0.9,1.4-1.7,1.4l-0.2,0l-0.4-0.1V69l0.3,0c0.3,0,0.6-0.1,0.8-0.2
			c0.2-0.1,0.3-0.4,0.5-0.7l0.2-0.6l-2.1-5.7h1.1L80.3,66.1z"/>
		<path fill="#40352D" d="M85.5,63.9l1.3-2.1h1.2L86,64.6l1.9,2.9h-1.1l-1.3-2.2l-1.3,2.2H83l1.9-2.9l-1.9-2.9h1.1L85.5,63.9z"/>
		<path fill="#40352D" d="M93.7,67.6h-1v-2.5h-2.7v2.5h-1v-5.8h1v2.5h2.7v-2.5h1V67.6z"/>
		<path fill="#40352D" d="M99.7,61.8v5.8h-1v-2.2h-1.5l-1.4,2.2h-1.1l1.5-2.4c-0.4-0.1-0.7-0.3-0.9-0.6s-0.3-0.6-0.3-1
			c0-0.5,0.2-1,0.6-1.3s0.9-0.5,1.6-0.5H99.7z M96.1,63.6c0,0.3,0.1,0.5,0.3,0.7s0.4,0.3,0.8,0.3h1.6v-1.9h-1.4
			c-0.4,0-0.7,0.1-0.9,0.3C96.2,63,96.1,63.3,96.1,63.6z"/>
		<path fill="#40352D" d="M103.3,64.7h-2.6v-0.8h2.6V64.7z"/>
		<path fill="#40352D" d="M108,62.6h-2.7v5h-1v-5.8h3.7V62.6z"/>
		<path fill="#40352D" d="M108.5,64.6c0-0.6,0.1-1.1,0.3-1.5c0.2-0.5,0.5-0.8,0.9-1c0.4-0.2,0.8-0.4,1.4-0.4c0.8,0,1.4,0.3,1.9,0.8
			s0.7,1.3,0.7,2.2v0.1c0,0.6-0.1,1.1-0.3,1.5c-0.2,0.4-0.5,0.8-0.9,1s-0.9,0.4-1.4,0.4c-0.8,0-1.4-0.3-1.9-0.8
			S108.5,65.6,108.5,64.6L108.5,64.6z M109.5,64.7c0,0.6,0.1,1.2,0.4,1.5c0.3,0.4,0.7,0.6,1.2,0.6c0.5,0,0.9-0.2,1.2-0.6
			c0.3-0.4,0.4-0.9,0.4-1.7c0-0.6-0.2-1.1-0.5-1.5c-0.3-0.4-0.7-0.6-1.2-0.6c-0.5,0-0.9,0.2-1.2,0.6C109.6,63.5,109.5,64,109.5,64.7
			z"/>
		<path fill="#40352D" d="M117.3,66.9c0.4,0,0.7-0.1,0.9-0.3s0.4-0.5,0.4-0.8h0.9c0,0.3-0.1,0.6-0.3,0.9c-0.2,0.3-0.5,0.5-0.8,0.7
			c-0.4,0.2-0.7,0.3-1.1,0.3c-0.8,0-1.4-0.3-1.9-0.8c-0.5-0.5-0.7-1.2-0.7-2.2v-0.2c0-0.6,0.1-1.1,0.3-1.5c0.2-0.4,0.5-0.8,0.9-1
			s0.8-0.4,1.4-0.4c0.6,0,1.2,0.2,1.6,0.6c0.4,0.4,0.7,0.9,0.7,1.5h-0.9c0-0.4-0.2-0.7-0.4-0.9c-0.3-0.2-0.6-0.4-0.9-0.4
			c-0.5,0-0.9,0.2-1.2,0.5s-0.4,0.9-0.4,1.6v0.2c0,0.7,0.1,1.2,0.4,1.5C116.4,66.7,116.8,66.9,117.3,66.9z"/>
		<path fill="#40352D" d="M125,62.6h-1.9v5h-1v-5h-1.9v-0.8h4.8V62.6z"/>
		<path fill="#40352D" d="M129.7,61.8h1v5.8h-1v-4.2l-2.7,4.2h-1v-5.8h1V66L129.7,61.8z"/>
		<path fill="#40352D" d="M137,67.6h-1v-2.5h-2.7v2.5h-1v-5.8h1v2.5h2.7v-2.5h1V67.6z"/>
		<path fill="#40352D" d="M142.1,67.6c-0.1-0.1-0.1-0.3-0.1-0.6c-0.5,0.5-1,0.7-1.6,0.7c-0.6,0-1-0.2-1.4-0.5s-0.5-0.7-0.5-1.2
			c0-0.6,0.2-1.1,0.7-1.4c0.5-0.3,1.1-0.5,1.9-0.5h1v-0.5c0-0.3-0.1-0.6-0.3-0.8c-0.2-0.2-0.5-0.3-0.9-0.3c-0.4,0-0.6,0.1-0.9,0.3
			c-0.2,0.2-0.4,0.4-0.4,0.6h-1c0-0.3,0.1-0.6,0.3-0.8c0.2-0.3,0.5-0.5,0.8-0.6c0.4-0.2,0.7-0.2,1.2-0.2c0.7,0,1.2,0.2,1.6,0.5
			c0.4,0.3,0.6,0.8,0.6,1.4v2.7c0,0.5,0.1,1,0.2,1.3v0.1H142.1z M140.5,66.8c0.3,0,0.6-0.1,0.9-0.2c0.3-0.2,0.5-0.4,0.6-0.6v-1.2
			h-0.8c-1.2,0-1.8,0.4-1.8,1.1c0,0.3,0.1,0.6,0.3,0.7C139.9,66.7,140.2,66.8,140.5,66.8z"/>
		<path fill="#40352D" d="M148.9,61.8v5.8h-1v-2.2h-1.5l-1.4,2.2H144l1.5-2.4c-0.4-0.1-0.7-0.3-0.9-0.6s-0.3-0.6-0.3-1
			c0-0.5,0.2-1,0.6-1.3s0.9-0.5,1.6-0.5H148.9z M145.3,63.6c0,0.3,0.1,0.5,0.3,0.7s0.4,0.3,0.8,0.3h1.6v-1.9h-1.4
			c-0.4,0-0.7,0.1-0.9,0.3C145.4,63,145.3,63.3,145.3,63.6z"/>
		<path fill="#40352D" d="M76.1,84.4h-1.7v-8L72,77.2v-1.4l3.9-1.4h0.2V84.4z"/>
		<path fill="#40352D" d="M80,79.5l0.5-5h5.4v1.4h-4l-0.3,2.4c0.5-0.3,1-0.4,1.6-0.4c1,0,1.7,0.3,2.2,0.9c0.5,0.6,0.8,1.4,0.8,2.5
			c0,1-0.3,1.8-0.9,2.4c-0.6,0.6-1.4,0.9-2.4,0.9c-0.9,0-1.7-0.3-2.3-0.8c-0.6-0.5-0.9-1.2-1-2.1h1.6c0.1,0.5,0.2,0.9,0.5,1.1
			c0.3,0.3,0.7,0.4,1.1,0.4c0.5,0,0.9-0.2,1.2-0.5s0.4-0.9,0.4-1.5c0-0.6-0.2-1.1-0.5-1.4c-0.3-0.4-0.8-0.5-1.3-0.5
			c-0.3,0-0.6,0-0.8,0.1c-0.2,0.1-0.4,0.2-0.7,0.5L80,79.5z"/>
		<path fill="#40352D" d="M88.7,82.7c0.3,0,0.6,0.1,0.7,0.3c0.2,0.2,0.3,0.4,0.3,0.7c0,0.3-0.1,0.5-0.3,0.6s-0.4,0.3-0.7,0.3
			c-0.3,0-0.5-0.1-0.7-0.3s-0.3-0.4-0.3-0.7s0.1-0.5,0.3-0.7C88.2,82.7,88.4,82.7,88.7,82.7z"/>
		<path fill="#40352D" d="M96.7,74.4v1.4h-0.2c-0.9,0-1.7,0.3-2.2,0.8c-0.6,0.5-0.9,1.2-1,2.1c0.5-0.6,1.2-0.8,2-0.8
			c0.9,0,1.6,0.3,2.1,0.9s0.8,1.4,0.8,2.4c0,1-0.3,1.8-0.9,2.5c-0.6,0.6-1.4,0.9-2.3,0.9c-1,0-1.8-0.4-2.4-1.1
			c-0.6-0.7-0.9-1.7-0.9-2.9V80c0-1.8,0.4-3.1,1.3-4.1c0.9-1,2.1-1.5,3.7-1.5H96.7z M94.9,79.1c-0.4,0-0.7,0.1-1,0.3
			c-0.3,0.2-0.5,0.5-0.7,0.8v0.5c0,0.7,0.2,1.3,0.5,1.8c0.3,0.4,0.7,0.7,1.2,0.7s0.9-0.2,1.2-0.6s0.4-0.9,0.4-1.5s-0.1-1.1-0.4-1.5
			S95.4,79.1,94.9,79.1z"/>
		<path fill="#40352D" d="M107.5,82.4l2.2-5.4h2.1v7.4h-1.7v-4.9l-2,4.9h-1.1l-2.1-4.9v4.9h-1.7V77h2.1L107.5,82.4z"/>
		<path fill="#40352D" d="M117.5,79.8h-4.2V79l2-1.8c0.5-0.5,0.8-0.9,0.8-1.2c0-0.2-0.1-0.3-0.2-0.5s-0.3-0.2-0.5-0.2
			c-0.3,0-0.5,0.1-0.6,0.2s-0.2,0.3-0.2,0.6h-1.3c0-0.5,0.2-1,0.6-1.3s0.9-0.5,1.5-0.5c0.7,0,1.2,0.1,1.5,0.4s0.5,0.7,0.5,1.2
			c0,0.5-0.2,1-0.7,1.4l-0.7,0.6l-1,0.8h2.5V79.8z"/>
	</g>
	<g>
		<path fill="#40352D" d="M177.3,496.4h-0.9v3.5h-1v-7.8h1v3.4h0.8l2.7-3.4h1.3l-3,3.8l3.2,4h-1.3L177.3,496.4z"/>
		<path fill="#40352D" d="M181.7,497c0-0.6,0.1-1.1,0.3-1.5c0.2-0.5,0.5-0.8,0.9-1s0.8-0.4,1.4-0.4c0.8,0,1.4,0.3,1.9,0.8
			s0.7,1.3,0.7,2.2v0.1c0,0.6-0.1,1.1-0.3,1.5c-0.2,0.4-0.5,0.8-0.9,1s-0.9,0.4-1.4,0.4c-0.8,0-1.4-0.3-1.9-0.8
			S181.7,497.9,181.7,497L181.7,497z M182.7,497.1c0,0.6,0.1,1.2,0.4,1.5c0.3,0.4,0.7,0.6,1.2,0.6c0.5,0,0.9-0.2,1.2-0.6
			c0.3-0.4,0.4-0.9,0.4-1.7c0-0.6-0.1-1.1-0.5-1.5c-0.3-0.4-0.7-0.6-1.2-0.6c-0.5,0-0.9,0.2-1.2,0.6
			C182.8,495.8,182.7,496.4,182.7,497.1z"/>
		<path fill="#40352D" d="M193.1,497.1c0,0.9-0.2,1.6-0.6,2.1c-0.4,0.5-0.9,0.8-1.6,0.8c-0.7,0-1.3-0.2-1.7-0.7v2.8h-1v-8h0.9l0,0.6
			c0.4-0.5,1-0.7,1.7-0.7c0.7,0,1.2,0.3,1.6,0.8S193.1,496.1,193.1,497.1L193.1,497.1z M192.1,497c0-0.7-0.1-1.2-0.4-1.5
			s-0.7-0.6-1.1-0.6c-0.6,0-1,0.3-1.3,0.8v2.8c0.3,0.5,0.7,0.8,1.4,0.8c0.5,0,0.8-0.2,1.1-0.6C191.9,498.3,192.1,497.7,192.1,497z"
			/>
		<path fill="#40352D" d="M198.1,494.1h1v5.8h-1v-4.2l-2.7,4.2h-1v-5.8h1v4.2L198.1,494.1z"/>
		<path fill="#40352D" d="M200.6,499.1l0.3-0.4c0.4-0.5,0.6-1.2,0.7-2.2l0.1-2.3h3.7v5h0.7v2.5h-1v-1.7h-4v1.7h-1l0-2.5H200.6z
			 M201.7,499.1h2.7v-4.1h-1.8l-0.1,1.4C202.5,497.6,202.2,498.5,201.7,499.1z"/>
		<path fill="#40352D" d="M207,497c0-0.6,0.1-1.1,0.3-1.5c0.2-0.5,0.5-0.8,0.9-1s0.8-0.4,1.4-0.4c0.8,0,1.4,0.3,1.9,0.8
			s0.7,1.3,0.7,2.2v0.1c0,0.6-0.1,1.1-0.3,1.5c-0.2,0.4-0.5,0.8-0.9,1s-0.9,0.4-1.4,0.4c-0.8,0-1.4-0.3-1.9-0.8S207,497.9,207,497
			L207,497z M207.9,497.1c0,0.6,0.1,1.2,0.4,1.5c0.3,0.4,0.7,0.6,1.2,0.6c0.5,0,0.9-0.2,1.2-0.6c0.3-0.4,0.4-0.9,0.4-1.7
			c0-0.6-0.1-1.1-0.5-1.5c-0.3-0.4-0.7-0.6-1.2-0.6c-0.5,0-0.9,0.2-1.2,0.6C208.1,495.8,207.9,496.4,207.9,497.1z"/>
		<path fill="#40352D" d="M218.3,497.1c0,0.9-0.2,1.6-0.6,2.1c-0.4,0.5-0.9,0.8-1.6,0.8c-0.7,0-1.3-0.2-1.7-0.7v2.8h-1v-8h0.9l0,0.6
			c0.4-0.5,1-0.7,1.7-0.7c0.7,0,1.2,0.3,1.6,0.8S218.3,496.1,218.3,497.1L218.3,497.1z M217.3,497c0-0.7-0.1-1.2-0.4-1.5
			s-0.7-0.6-1.1-0.6c-0.6,0-1,0.3-1.3,0.8v2.8c0.3,0.5,0.7,0.8,1.4,0.8c0.5,0,0.8-0.2,1.1-0.6C217.2,498.3,217.3,497.7,217.3,497z"
			/>
		<path fill="#40352D" d="M179.6,516.8h-1.7v-8l-2.4,0.8v-1.4l3.9-1.4h0.2V516.8z"/>
		<path fill="#40352D" d="M188.3,506.7v1.4H188c-0.9,0-1.7,0.3-2.2,0.8c-0.6,0.5-0.9,1.2-1,2.1c0.5-0.6,1.2-0.8,2.1-0.8
			c0.9,0,1.6,0.3,2.1,0.9c0.5,0.6,0.8,1.4,0.8,2.4c0,1-0.3,1.8-0.9,2.5c-0.6,0.6-1.4,0.9-2.3,0.9c-1,0-1.8-0.4-2.4-1.1
			c-0.6-0.7-0.9-1.7-0.9-2.9v-0.6c0-1.8,0.4-3.1,1.3-4.1c0.9-1,2.1-1.5,3.7-1.5H188.3z M186.5,511.5c-0.4,0-0.7,0.1-1,0.3
			c-0.3,0.2-0.5,0.5-0.7,0.8v0.5c0,0.7,0.2,1.3,0.5,1.8s0.7,0.7,1.2,0.7s0.9-0.2,1.2-0.6c0.3-0.4,0.4-0.9,0.4-1.5s-0.1-1.1-0.4-1.5
			C187.3,511.7,187,511.5,186.5,511.5z"/>
		<path fill="#40352D" d="M192.2,515c0.3,0,0.6,0.1,0.7,0.3s0.3,0.4,0.3,0.7c0,0.3-0.1,0.5-0.3,0.6c-0.2,0.2-0.4,0.3-0.7,0.3
			c-0.3,0-0.5-0.1-0.7-0.3c-0.2-0.2-0.3-0.4-0.3-0.7c0-0.3,0.1-0.5,0.3-0.7C191.7,515.1,191.9,515,192.2,515z"/>
		<path fill="#40352D" d="M201.3,509.4c0,0.5-0.1,0.9-0.4,1.3s-0.6,0.7-1,0.9c0.5,0.2,0.9,0.6,1.2,1c0.3,0.4,0.4,0.9,0.4,1.4
			c0,0.9-0.3,1.6-0.9,2.1c-0.6,0.5-1.4,0.8-2.4,0.8c-1,0-1.8-0.3-2.4-0.8s-0.9-1.2-0.9-2.1c0-0.5,0.1-1,0.4-1.4
			c0.3-0.4,0.7-0.8,1.2-1c-0.4-0.2-0.8-0.5-1-0.9s-0.4-0.8-0.4-1.3c0-0.8,0.3-1.5,0.8-2s1.3-0.7,2.2-0.7c0.9,0,1.7,0.2,2.2,0.7
			C201,507.9,201.3,508.6,201.3,509.4z M199.8,514c0-0.5-0.1-0.9-0.4-1.2s-0.7-0.5-1.2-0.5c-0.5,0-0.9,0.2-1.2,0.5
			c-0.3,0.3-0.4,0.7-0.4,1.2c0,0.5,0.1,0.9,0.4,1.2s0.7,0.4,1.2,0.4c0.5,0,0.9-0.1,1.2-0.4S199.8,514.5,199.8,514z M199.6,509.5
			c0-0.4-0.1-0.8-0.4-1.1s-0.6-0.4-1-0.4c-0.4,0-0.8,0.1-1,0.4c-0.2,0.3-0.4,0.6-0.4,1.1c0,0.5,0.1,0.8,0.4,1.1
			c0.2,0.3,0.6,0.4,1,0.4c0.4,0,0.8-0.1,1-0.4S199.6,509.9,199.6,509.5z"/>
		<path fill="#40352D" d="M211,514.7l2.2-5.4h2.1v7.4h-1.7v-4.9l-2,4.9h-1.1l-2.1-4.9v4.9h-1.7v-7.4h2.1L211,514.7z"/>
		<path fill="#40352D" d="M221,512.2h-4.2v-0.9l2-1.8c0.5-0.5,0.8-0.9,0.8-1.2c0-0.2-0.1-0.3-0.2-0.5s-0.3-0.2-0.5-0.2
			c-0.3,0-0.5,0.1-0.6,0.2c-0.2,0.2-0.2,0.3-0.2,0.6h-1.3c0-0.5,0.2-1,0.6-1.3s0.9-0.5,1.5-0.5c0.7,0,1.2,0.1,1.5,0.4
			c0.4,0.3,0.5,0.7,0.5,1.2c0,0.5-0.2,1-0.7,1.4l-0.7,0.6l-1,0.8h2.5V512.2z"/>
	</g>
	<g>
		<path fill="#40352D" d="M349.4,429h1.2v1.3h-1.2v2.2h-1.7v-2.2h-4.3l0-1l4.3-6.7h1.7V429z M345.1,429h2.6v-4.2l-0.1,0.2L345.1,429
			z"/>
		<path fill="#40352D" d="M352.9,430.8c0.3,0,0.5,0.1,0.7,0.3c0.2,0.2,0.3,0.4,0.3,0.7c0,0.3-0.1,0.5-0.3,0.6s-0.4,0.3-0.7,0.3
			c-0.3,0-0.5-0.1-0.7-0.3c-0.2-0.2-0.3-0.4-0.3-0.6c0-0.3,0.1-0.5,0.3-0.7C352.3,430.9,352.5,430.8,352.9,430.8z"/>
		<path fill="#40352D" d="M356.1,427.6l0.5-5h5.3v1.4h-4l-0.3,2.4c0.5-0.3,1-0.4,1.6-0.4c0.9,0,1.7,0.3,2.2,0.9
			c0.5,0.6,0.8,1.4,0.8,2.4c0,1-0.3,1.8-0.9,2.4c-0.6,0.6-1.4,0.9-2.4,0.9c-0.9,0-1.7-0.3-2.3-0.8c-0.6-0.5-0.9-1.2-1-2h1.6
			c0.1,0.5,0.2,0.9,0.5,1.1c0.3,0.3,0.7,0.4,1.1,0.4c0.5,0,0.9-0.2,1.2-0.5c0.3-0.4,0.4-0.9,0.4-1.5c0-0.6-0.2-1.1-0.5-1.4
			c-0.3-0.4-0.7-0.5-1.3-0.5c-0.3,0-0.6,0-0.8,0.1c-0.2,0.1-0.4,0.2-0.7,0.5L356.1,427.6z"/>
		<path fill="#40352D" d="M371.6,430.5l2.2-5.4h2.1v7.4h-1.7v-4.9l-2,4.9H371l-2-4.9v4.9h-1.7v-7.4h2.1L371.6,430.5z"/>
		<path fill="#40352D" d="M381.6,428h-4.2v-0.9l1.9-1.8c0.5-0.5,0.8-0.9,0.8-1.2c0-0.2-0.1-0.3-0.2-0.5c-0.1-0.1-0.3-0.2-0.5-0.2
			c-0.3,0-0.5,0.1-0.6,0.2s-0.2,0.3-0.2,0.6h-1.3c0-0.5,0.2-1,0.6-1.3s0.9-0.5,1.5-0.5c0.7,0,1.2,0.1,1.5,0.4
			c0.4,0.3,0.5,0.7,0.5,1.2c0,0.5-0.2,1-0.7,1.4l-0.7,0.6l-1,0.8h2.5V428z"/>
	</g>
	<g>
		<path fill="#40352D" d="M121.9,394.4h-6.7v-1.1l3.3-3.6c0.5-0.5,0.8-1,1-1.3c0.2-0.4,0.3-0.7,0.3-1.1c0-0.5-0.1-0.9-0.4-1.1
			s-0.6-0.4-1.1-0.4c-0.5,0-1,0.2-1.3,0.5c-0.3,0.3-0.4,0.8-0.4,1.3H115c0-0.6,0.1-1.2,0.4-1.6c0.3-0.5,0.7-0.9,1.2-1.1
			s1.1-0.4,1.8-0.4c1,0,1.7,0.2,2.3,0.7c0.6,0.5,0.8,1.2,0.8,2c0,0.5-0.1,1-0.4,1.6s-0.7,1.2-1.4,1.9l-2.4,2.6h4.6V394.4z"/>
		<path fill="#40352D" d="M124.3,392.6c0.3,0,0.5,0.1,0.7,0.3c0.2,0.2,0.3,0.4,0.3,0.7c0,0.3-0.1,0.5-0.3,0.6
			c-0.2,0.2-0.4,0.3-0.7,0.3c-0.3,0-0.5-0.1-0.7-0.3c-0.2-0.2-0.3-0.4-0.3-0.6s0.1-0.5,0.3-0.7C123.7,392.7,124,392.6,124.3,392.6z"
			/>
		<path fill="#40352D" d="M132.2,384.4v1.4H132c-0.9,0-1.7,0.3-2.2,0.8c-0.6,0.5-0.9,1.2-1,2.1c0.5-0.6,1.2-0.8,2-0.8
			c0.9,0,1.6,0.3,2.1,0.9c0.5,0.6,0.8,1.4,0.8,2.4c0,1-0.3,1.8-0.9,2.5s-1.4,0.9-2.3,0.9c-1,0-1.8-0.4-2.4-1.1
			c-0.6-0.7-0.9-1.7-0.9-2.9v-0.6c0-1.7,0.4-3.1,1.3-4.1c0.8-1,2.1-1.5,3.7-1.5H132.2z M130.4,389.1c-0.4,0-0.7,0.1-1,0.3
			c-0.3,0.2-0.5,0.5-0.7,0.8v0.5c0,0.7,0.2,1.3,0.5,1.8c0.3,0.4,0.7,0.7,1.2,0.7s0.9-0.2,1.2-0.6s0.4-0.9,0.4-1.5s-0.1-1.1-0.4-1.5
			C131.3,389.3,130.9,389.1,130.4,389.1z"/>
		<path fill="#40352D" d="M143,392.3l2.2-5.4h2.1v7.4h-1.7v-4.9l-2,4.9h-1.1l-2-4.9v4.9h-1.7V387h2.1L143,392.3z"/>
		<path fill="#40352D" d="M153,389.8h-4.2V389l1.9-1.8c0.5-0.5,0.8-0.9,0.8-1.2c0-0.2-0.1-0.3-0.2-0.5s-0.3-0.2-0.5-0.2
			c-0.3,0-0.5,0.1-0.6,0.2s-0.2,0.3-0.2,0.6h-1.3c0-0.5,0.2-1,0.6-1.3c0.4-0.3,0.9-0.5,1.5-0.5c0.7,0,1.2,0.1,1.5,0.4
			s0.5,0.7,0.5,1.2c0,0.5-0.2,1-0.7,1.4l-0.7,0.6l-1,0.8h2.5V389.8z"/>
	</g>
	<g>
		<path fill="#40352D" d="M617.7,40.6h1c0.5,0,0.9-0.1,1.2-0.4c0.3-0.3,0.4-0.6,0.4-1.1c0-0.5-0.1-0.8-0.4-1.1
			c-0.2-0.3-0.6-0.4-1.1-0.4c-0.4,0-0.8,0.1-1.1,0.4s-0.4,0.6-0.4,1h-1.7c0-0.5,0.1-1,0.4-1.4c0.3-0.4,0.6-0.7,1.1-1
			c0.5-0.2,1-0.4,1.6-0.4c1,0,1.8,0.2,2.3,0.7c0.6,0.5,0.9,1.2,0.9,2.1c0,0.4-0.1,0.9-0.4,1.3c-0.3,0.4-0.7,0.7-1.1,0.9
			c0.5,0.2,1,0.5,1.2,0.9c0.3,0.4,0.4,0.9,0.4,1.4c0,0.9-0.3,1.6-0.9,2.1c-0.6,0.5-1.4,0.8-2.4,0.8c-1,0-1.7-0.3-2.4-0.8
			s-0.9-1.2-0.9-2h1.7c0,0.4,0.1,0.8,0.4,1.1c0.3,0.3,0.7,0.4,1.2,0.4c0.5,0,0.9-0.1,1.2-0.4s0.4-0.7,0.4-1.2c0-0.5-0.2-0.9-0.5-1.2
			s-0.8-0.4-1.4-0.4h-1V40.6z"/>
		<path fill="#40352D" d="M624.9,44.6c0.3,0,0.5,0.1,0.7,0.3s0.3,0.4,0.3,0.7c0,0.3-0.1,0.5-0.3,0.6s-0.4,0.3-0.7,0.3
			c-0.3,0-0.5-0.1-0.7-0.3s-0.3-0.4-0.3-0.6s0.1-0.5,0.3-0.7S624.6,44.6,624.9,44.6z"/>
		<path fill="#40352D" d="M633.3,42.8h1.2v1.3h-1.2v2.2h-1.7v-2.2h-4.3l0-1l4.3-6.7h1.7V42.8z M629,42.8h2.6v-4.2l-0.1,0.2L629,42.8
			z"/>
		<path fill="#40352D" d="M643.6,44.3l2.2-5.4h2.1v7.4h-1.7v-4.9l-2,4.9H643l-2-4.9v4.9h-1.7v-7.4h2.1L643.6,44.3z"/>
		<path fill="#40352D" d="M653.6,41.7h-4.2v-0.9l1.9-1.8c0.5-0.5,0.8-0.9,0.8-1.2c0-0.2-0.1-0.3-0.2-0.5s-0.3-0.2-0.5-0.2
			c-0.3,0-0.5,0.1-0.6,0.2s-0.2,0.3-0.2,0.6h-1.3c0-0.5,0.2-1,0.6-1.3c0.4-0.3,0.9-0.5,1.5-0.5c0.7,0,1.2,0.1,1.5,0.4
			s0.5,0.7,0.5,1.2c0,0.5-0.2,1-0.7,1.4L652,40l-1,0.8h2.5V41.7z"/>
	</g>
	<g>
		<path fill="#40352D" d="M611.9,60c0-1.1,0.1-2.1,0.4-3s0.7-1.8,1.2-2.5s1.1-1.3,1.7-1.6l0.3,1c-0.6,0.5-1.2,1.2-1.6,2.2
			c-0.4,1-0.6,2.1-0.7,3.4l0,0.6c0,1.4,0.2,2.6,0.6,3.7c0.4,1.1,0.9,1.9,1.6,2.5l-0.3,0.9c-0.6-0.3-1.2-0.8-1.7-1.6
			c-0.5-0.7-1-1.6-1.2-2.5C612.1,62.2,611.9,61.2,611.9,60z"/>
		<path fill="#40352D" d="M621.2,64.1h-1.7v-8l-2.4,0.8v-1.4l3.9-1.4h0.2V64.1z"/>
		<path fill="#40352D" d="M625.8,62.3c0.3,0,0.5,0.1,0.7,0.3s0.3,0.4,0.3,0.7c0,0.3-0.1,0.5-0.3,0.6s-0.4,0.3-0.7,0.3
			c-0.3,0-0.5-0.1-0.7-0.3s-0.3-0.4-0.3-0.6s0.1-0.5,0.3-0.7S625.5,62.3,625.8,62.3z"/>
		<path fill="#40352D" d="M635.2,55.1l-4,9h-1.7l4-8.6h-5.1v-1.3h6.9V55.1z"/>
		<path fill="#40352D" d="M639.8,60.2c0,1-0.1,2-0.4,2.9s-0.7,1.8-1.3,2.6s-1.2,1.3-1.8,1.6l-0.3-0.9c0.7-0.5,1.2-1.3,1.6-2.4
			c0.4-1.1,0.6-2.3,0.6-3.7V60c0-1.3-0.2-2.4-0.5-3.5s-0.8-1.9-1.5-2.5l-0.2-0.2l0.3-0.9c0.6,0.3,1.1,0.8,1.7,1.5s1,1.5,1.3,2.4
			s0.5,1.8,0.5,2.8L639.8,60.2z"/>
	</g>
	<circle fill="#FFFFFF" stroke="#CBC6C0" stroke-width="0.5" stroke-miterlimit="10" cx="179.9" cy="222.5" r="39.8"/>
	<g>
		<path fill="#40352D" d="M171,210.2h1.5c0.8,0,1.4-0.2,1.8-0.6c0.4-0.4,0.7-0.9,0.7-1.7c0-0.7-0.2-1.2-0.6-1.6
			c-0.4-0.4-0.9-0.6-1.7-0.6c-0.7,0-1.2,0.2-1.6,0.6s-0.6,0.9-0.6,1.5H168c0-0.8,0.2-1.4,0.6-2.1c0.4-0.6,1-1.1,1.7-1.5
			c0.7-0.3,1.5-0.5,2.4-0.5c1.5,0,2.6,0.4,3.5,1.1c0.8,0.7,1.3,1.8,1.3,3.1c0,0.7-0.2,1.3-0.6,1.9c-0.4,0.6-1,1-1.6,1.3
			c0.8,0.3,1.4,0.7,1.9,1.3c0.4,0.6,0.6,1.3,0.6,2.1c0,1.3-0.5,2.4-1.4,3.2c-0.9,0.8-2.1,1.2-3.6,1.2c-1.4,0-2.6-0.4-3.5-1.1
			s-1.4-1.8-1.4-3h2.5c0,0.6,0.2,1.2,0.7,1.6c0.4,0.4,1,0.6,1.8,0.6c0.8,0,1.4-0.2,1.8-0.6c0.4-0.4,0.7-1,0.7-1.8
			c0-0.8-0.2-1.4-0.7-1.8c-0.5-0.4-1.1-0.6-2-0.6H171V210.2z"/>
		<path fill="#40352D" d="M188.6,215.3h-5.7l-1.2,3.4H179l5.6-14.8h2.3l5.6,14.8h-2.7L188.6,215.3z M183.6,213.2h4.3l-2.1-6.1
			L183.6,213.2z"/>
	</g>
	<g>
		<path fill="#40352D" d="M164.7,228.6l-3.8,8.5h-1.6l3.7-8.1h-4.9v-1.3h6.5V228.6z"/>
		<path fill="#40352D" d="M170.4,233.2c-0.5,0.6-1.1,0.8-1.8,0.8c-0.8,0-1.5-0.3-2-0.9s-0.7-1.3-0.7-2.3c0-0.6,0.1-1.2,0.4-1.7
			c0.2-0.5,0.6-0.9,1.1-1.2c0.5-0.3,1-0.4,1.6-0.4c0.9,0,1.7,0.4,2.2,1.1c0.6,0.7,0.8,1.6,0.8,2.8v0.4c0,1.7-0.4,3-1.1,3.9
			c-0.8,0.9-1.9,1.3-3.4,1.4h-0.2v-1.3h0.2c0.9,0,1.6-0.2,2.1-0.7C170,234.8,170.3,234.1,170.4,233.2z M168.9,232.8
			c0.3,0,0.6-0.1,0.9-0.3c0.3-0.2,0.5-0.4,0.6-0.7v-0.6c0-0.7-0.1-1.2-0.4-1.7s-0.7-0.6-1.1-0.6c-0.5,0-0.8,0.2-1.1,0.6
			s-0.4,0.8-0.4,1.4c0,0.6,0.1,1.1,0.4,1.4C168,232.6,168.4,232.8,168.9,232.8z"/>
		<path fill="#40352D" d="M174.5,235.5c0.3,0,0.5,0.1,0.7,0.2c0.2,0.2,0.2,0.4,0.2,0.6c0,0.2-0.1,0.4-0.2,0.6
			c-0.2,0.2-0.4,0.2-0.7,0.2c-0.3,0-0.5-0.1-0.7-0.2c-0.2-0.2-0.2-0.4-0.2-0.6c0-0.2,0.1-0.5,0.2-0.6
			C174,235.6,174.2,235.5,174.5,235.5z"/>
		<path fill="#40352D" d="M181.4,237.1h-1.6v-7.5l-2.3,0.8v-1.3l3.7-1.3h0.2V237.1z"/>
		<path fill="#40352D" d="M192.2,235.2l2.1-5h2v7h-1.6v-4.6l-1.9,4.6h-1.1l-1.9-4.6v4.6h-1.6v-7h2L192.2,235.2z"/>
		<path fill="#40352D" d="M201.6,232.8h-3.9V232l1.8-1.7c0.5-0.4,0.7-0.8,0.7-1.1c0-0.2-0.1-0.3-0.2-0.4c-0.1-0.1-0.3-0.2-0.5-0.2
			c-0.2,0-0.4,0.1-0.6,0.2c-0.1,0.1-0.2,0.3-0.2,0.6h-1.2c0-0.5,0.2-0.9,0.5-1.2s0.8-0.5,1.4-0.5c0.6,0,1.1,0.1,1.4,0.4
			c0.3,0.3,0.5,0.7,0.5,1.2c0,0.5-0.2,0.9-0.7,1.3l-0.6,0.6l-0.9,0.7h2.4V232.8z"/>
	</g>
	<g>
	</g>
	<g>
	</g>
	<g>
	</g>
	<g>
	</g>
	<g>
	</g>
	<g>
	</g>
</g>
</svg>
